<?xml version="1.0" encoding="utf-8"?>
<!-- Generator: Adobe Illustrator 23.0.1, SVG Export Plug-In . SVG Version: 6.00 Build 0)  -->
<svg version="1.1" id="Capa_1" xmlns="http://www.w3.org/2000/svg" xmlns:xlink="http://www.w3.org/1999/xlink" x="0px" y="0px"
	 viewBox="0 0 850 250" style="enable-background:new 0 0 850 250;" xml:space="preserve">
<style type="text/css">
	.st0{fill:#6FC8B7;}
</style>
<g>
	<g>
		<g>
			<path class="st0" d="M92.58,24.28v10.09c-4.98-4.12-10.14-6.18-15.47-6.18c-5.87,0-10.82,2.08-14.84,6.25
				c-4.05,4.14-6.07,9.21-6.07,15.21c0,5.92,2.02,10.92,6.07,14.99c4.04,4.07,9,6.1,14.88,6.1c3.03,0,5.61-0.49,7.73-1.46
				c1.18-0.49,2.41-1.15,3.68-1.97c1.27-0.83,2.61-1.83,4.01-3v10.27c-4.93,2.75-10.11,4.13-15.54,4.13
				c-8.17,0-15.13-2.81-20.91-8.44c-5.75-5.68-8.62-12.52-8.62-20.54c0-7.19,2.41-13.6,7.22-19.23c5.92-6.9,13.58-10.34,22.98-10.34
				C82.83,20.15,87.79,21.53,92.58,24.28z"/>
			<path class="st0" d="M100.24,49.21c0-7.94,2.95-14.77,8.84-20.47c5.87-5.7,12.93-8.55,21.16-8.55c8.14,0,15.12,2.88,20.94,8.63
				c5.85,5.75,8.77,12.66,8.77,20.72c0,8.11-2.94,15-8.81,20.65c-5.9,5.68-13.01,8.52-21.35,8.52c-7.38,0-14-2.52-19.87-7.57
				C103.47,65.56,100.24,58.25,100.24,49.21z M108.93,49.32c0,6.24,2.12,11.37,6.36,15.39c4.22,4.02,9.09,6.03,14.62,6.03
				c6,0,11.05-2.05,15.17-6.14c4.12-4.14,6.18-9.19,6.18-15.13c0-6.02-2.04-11.06-6.11-15.13c-4.05-4.09-9.05-6.14-15.02-6.14
				c-5.95,0-10.97,2.05-15.06,6.14C110.98,38.38,108.93,43.38,108.93,49.32z"/>
			<path class="st0" d="M170.8,77.68V17.41l41.66,43.06V21.25h8.62v59.87l-41.66-42.95v39.51H170.8z"/>
			<path class="st0" d="M232.44,49.21c0-7.94,2.95-14.77,8.84-20.47c5.87-5.7,12.93-8.55,21.16-8.55c8.14,0,15.12,2.88,20.94,8.63
				c5.85,5.75,8.77,12.66,8.77,20.72c0,8.11-2.94,15-8.81,20.65c-5.9,5.68-13.01,8.52-21.35,8.52c-7.38,0-14-2.52-19.87-7.57
				C235.68,65.56,232.44,58.25,232.44,49.21z M241.14,49.32c0,6.24,2.12,11.37,6.36,15.39c4.22,4.02,9.09,6.03,14.62,6.03
				c6,0,11.05-2.05,15.17-6.14c4.12-4.14,6.18-9.19,6.18-15.13c0-6.02-2.04-11.06-6.11-15.13c-4.05-4.09-9.05-6.14-15.02-6.14
				c-5.95,0-10.97,2.05-15.06,6.14C243.19,38.38,241.14,43.38,241.14,49.32z M275.44,6.08l-15.1,10.09l-4.11-3.4L268.11,1
				L275.44,6.08z"/>
			<path class="st0" d="M345.23,24.28v10.09c-4.98-4.12-10.14-6.18-15.47-6.18c-5.87,0-10.82,2.08-14.84,6.25
				c-4.05,4.14-6.07,9.21-6.07,15.21c0,5.92,2.02,10.92,6.07,14.99c4.04,4.07,9,6.1,14.88,6.1c3.03,0,5.61-0.49,7.73-1.46
				c1.18-0.49,2.41-1.15,3.68-1.97c1.27-0.83,2.61-1.83,4.01-3v10.27c-4.93,2.75-10.11,4.13-15.54,4.13
				c-8.17,0-15.13-2.81-20.91-8.44c-5.75-5.68-8.62-12.52-8.62-20.54c0-7.19,2.41-13.6,7.22-19.23c5.92-6.9,13.58-10.34,22.98-10.34
				C335.48,20.15,340.44,21.53,345.23,24.28z"/>
			<path class="st0" d="M387.63,29.25h-22.9v13.56h22.24v8h-22.24v18.86h22.9v8H356.1V21.25h31.52V29.25z"/>
			<path class="st0" d="M422.34,77.68V17.41L464,60.47V21.25h8.62v59.87l-41.66-42.95v39.51H422.34z"/>
			<path class="st0" d="M494.93,21.25v33.99c0,4.85,0.8,8.39,2.41,10.64c2.39,3.24,5.76,4.86,10.1,4.86c4.37,0,7.75-1.62,10.14-4.86
				c1.6-2.17,2.41-5.71,2.41-10.64V21.25h8.62v36.33c0,5.95-1.88,10.84-5.62,14.69c-4.22,4.29-9.4,6.43-15.54,6.43
				c-6.14,0-11.31-2.14-15.5-6.43c-3.75-3.85-5.62-8.75-5.62-14.69V21.25H494.93z"/>
			<path class="st0" d="M573.82,29.25h-22.9v13.56h22.24v8h-22.24v18.86h22.9v8h-31.52V21.25h31.52V29.25z"/>
			<path class="st0" d="M617.44,29.66l-6.99,4.09c-1.31-2.24-2.55-3.7-3.74-4.39c-1.23-0.78-2.82-1.17-4.77-1.17
				c-2.39,0-4.38,0.67-5.96,2.01c-1.58,1.32-2.37,2.97-2.37,4.97c0,2.75,2.07,4.97,6.22,6.65l5.7,2.3
				c4.64,1.85,8.03,4.11,10.17,6.78c2.15,2.67,3.22,5.94,3.22,9.81c0,5.19-1.75,9.48-5.25,12.87c-3.53,3.41-7.91,5.12-13.13,5.12
				c-4.96,0-9.05-1.45-12.29-4.35c-3.18-2.9-5.17-6.98-5.96-12.24l8.73-1.9c0.39,3.31,1.08,5.6,2.07,6.87
				c1.78,2.44,4.37,3.66,7.77,3.66c2.69,0,4.92-0.89,6.7-2.67c1.78-1.78,2.66-4.03,2.66-6.76c0-1.1-0.15-2.1-0.46-3.01
				c-0.31-0.91-0.79-1.75-1.44-2.52c-0.65-0.77-1.5-1.49-2.53-2.16s-2.27-1.31-3.7-1.92l-5.51-2.27
				c-7.82-3.26-11.73-8.04-11.73-14.33c0-4.24,1.64-7.79,4.92-10.64c3.28-2.87,7.36-4.31,12.25-4.31
				C608.6,20.15,613.74,23.32,617.44,29.66z"/>
			<path class="st0" d="M646.16,29.25v48.43h-8.62V29.25H624.4v-8h34.86v8H646.16z"/>
			<path class="st0" d="M686.3,53.63l17.69,24.05h-10.55l-16.32-23.1h-1.55v23.1h-8.62V21.25h10.1c7.55,0,13,1.4,16.36,4.2
				c3.7,3.12,5.55,7.24,5.55,12.35c0,4-1.16,7.43-3.48,10.31C693.16,50.99,690.1,52.83,686.3,53.63z M675.57,47.16h2.74
				c8.16,0,12.25-3.08,12.25-9.25c0-5.77-3.97-8.66-11.91-8.66h-3.07V47.16z"/>
			<path class="st0" d="M746.14,63.98h-24.46l-6.36,13.71h-9.29L734.3,17.7l27.27,59.98h-9.44L746.14,63.98z M742.62,55.97
				l-8.47-19.19l-8.88,19.19H742.62z"/>
			<path class="st0" d="M801.01,29.66l-6.99,4.09c-1.31-2.24-2.55-3.7-3.74-4.39c-1.23-0.78-2.82-1.17-4.77-1.17
				c-2.39,0-4.38,0.67-5.96,2.01c-1.58,1.32-2.37,2.97-2.37,4.97c0,2.75,2.07,4.97,6.22,6.65l5.7,2.3
				c4.64,1.85,8.03,4.11,10.17,6.78c2.15,2.67,3.22,5.94,3.22,9.81c0,5.19-1.75,9.48-5.25,12.87c-3.53,3.41-7.91,5.12-13.13,5.12
				c-4.96,0-9.05-1.45-12.29-4.35c-3.18-2.9-5.17-6.98-5.96-12.24l8.73-1.9c0.39,3.31,1.08,5.6,2.07,6.87
				c1.78,2.44,4.37,3.66,7.77,3.66c2.69,0,4.92-0.89,6.7-2.67c1.78-1.78,2.66-4.03,2.66-6.76c0-1.1-0.15-2.1-0.46-3.01
				c-0.31-0.91-0.79-1.75-1.44-2.52c-0.65-0.77-1.5-1.49-2.53-2.16s-2.27-1.31-3.7-1.92l-5.51-2.27
				c-7.82-3.26-11.73-8.04-11.73-14.33c0-4.24,1.64-7.79,4.92-10.64c3.28-2.87,7.36-4.31,12.25-4.31
				C792.17,20.15,797.31,23.32,801.01,29.66z"/>
		</g>
	</g>
	<g>
		<g>
			<path class="st0" d="M336.53,188.04c-0.42,0-1.06-0.1-1.91-0.31c-3.39-1.15-4.93-4.82-4.61-11c0.32-5.03,1.25-9.84,2.78-14.45
				c1.54-4.61,3.42-8.77,5.65-12.49c2.23-3.72,4.61-6.91,7.16-9.58c2.54-2.67,4.93-4.58,7.16-5.74c1.8-0.94,3.29-1.39,4.45-1.34
				c1.17,0.05,2.07,0.29,2.7,0.71c1.8,1.05,2.89,2.62,3.26,4.71c0.37,2.1,0.4,4.24,0.08,6.44c-0.32,2.2-0.77,4.19-1.35,5.97
				c-0.58,1.78-0.98,2.88-1.19,3.3c-0.21,0.53-0.56,0.92-1.03,1.18c-0.48,0.26-0.98,0.29-1.51,0.08c-0.53-0.21-0.9-0.57-1.11-1.1
				c-0.21-0.52-0.21-1.05,0-1.57c0.42-1.05,0.85-2.36,1.27-3.93c0.42-1.57,0.74-3.14,0.96-4.71c0.21-1.57,0.24-2.98,0.08-4.24
				c-0.16-1.26-0.66-2.15-1.51-2.67c-0.43-0.31-1.49-0.1-3.18,0.63c-2.02,1.15-4.16,2.93-6.44,5.34c-2.28,2.41-4.43,5.34-6.44,8.8
				c-2.02,3.46-3.74,7.28-5.17,11.47c-1.43,4.19-2.25,8.64-2.46,13.36c-0.32,4.19,0.27,6.5,1.75,6.91c1.59,0.53,4.06-0.34,7.4-2.59
				c3.34-2.25,6.97-5.21,10.9-8.88c3.92-3.66,7.79-7.72,11.61-12.18c3.82-4.45,7-8.56,9.54-12.33c0.21-0.52,0.58-0.81,1.11-0.86
				c0.53-0.05,1.06,0.08,1.59,0.39c0.53,0.31,0.85,0.73,0.96,1.26c0.1,0.52,0,1-0.32,1.41c-0.95,1.47-2.39,3.4-4.29,5.81
				c-1.91,2.41-4.08,5.03-6.52,7.86c-2.44,2.83-5.07,5.68-7.87,8.56c-2.81,2.88-5.62,5.5-8.43,7.86c-2.81,2.36-5.51,4.27-8.11,5.73
				C340.84,187.31,338.54,188.04,336.53,188.04z"/>
			<path class="st0" d="M361.34,203.28h-0.16c-0.53-0.11-1.01-0.37-1.43-0.79c-0.42-0.42-0.58-0.89-0.48-1.41
				c0.21-2.41,1.03-6.15,2.47-11.23c1.43-5.08,3.26-10.94,5.49-17.6c2.23-6.65,4.74-13.83,7.55-21.52
				c2.81-7.7,5.65-15.42,8.51-23.18c2.86-7.75,5.7-15.27,8.51-22.55c2.81-7.28,5.33-13.77,7.56-19.48
				c2.23-5.71,4.08-10.39,5.57-14.06c1.48-3.67,2.33-5.81,2.54-6.44c0.21-0.52,0.58-0.92,1.11-1.18c0.53-0.26,1.06-0.29,1.59-0.08
				c0.53,0.21,0.93,0.58,1.19,1.1c0.26,0.53,0.29,1.05,0.08,1.57c-0.11,0.21-0.82,2.02-2.15,5.42c-1.33,3.41-3.1,7.93-5.33,13.59
				c-2.23,5.66-4.72,12.1-7.48,19.33c-2.76,7.23-5.62,14.74-8.59,22.55c-2.97,7.8-5.86,15.63-8.67,23.49
				c-2.81,7.86-5.36,15.14-7.63,21.84c-2.28,6.7-4.16,12.6-5.65,17.68c-1.48,5.08-2.33,8.77-2.54,11.08
				C363.4,202.65,362.72,203.28,361.34,203.28z"/>
			<path class="st0" d="M392.35,181.91c-1.27,0-2.33-0.26-3.18-0.79c-1.49-0.94-2.6-2.43-3.34-4.48c-0.74-2.04-1.06-4.42-0.95-7.15
				c0.11-2.72,0.58-5.63,1.43-8.72c0.85-3.09,2.07-6.1,3.66-9.03c4.35-8.27,8.8-14.35,13.36-18.23c4.56-3.87,8.38-6.13,11.45-6.76
				c1.59-0.31,2.92-0.31,3.98,0c1.06,0.31,1.85,0.68,2.39,1.1c1.06,0.94,1.77,1.96,2.15,3.06c0.37,1.1,0.48,2.2,0.32,3.3
				c-0.16,1.1-0.45,2.12-0.88,3.06c-0.42,0.94-0.85,1.73-1.27,2.36c-0.74,1.05-1.7,1.21-2.86,0.47c-1.06-0.73-1.22-1.67-0.48-2.83
				c0.64-0.94,1.06-1.73,1.27-2.36c0.21-0.63,0.26-1.31,0.16-2.04c-0.11-0.73-0.48-1.36-1.11-1.89c-0.53-0.52-1.49-0.63-2.86-0.31
				c-2.54,0.53-5.83,2.54-9.86,6.05c-4.03,3.51-8.11,9.14-12.25,16.89c-1.49,2.73-2.57,5.42-3.26,8.09
				c-0.69,2.67-1.09,5.11-1.19,7.31c-0.11,2.2,0.02,4.09,0.4,5.66c0.37,1.57,0.98,2.57,1.83,2.98c0.85,0.53,2.36,0.13,4.53-1.18
				c2.17-1.31,4.85-4.27,8.03-8.88c3.39-4.82,6.23-8.93,8.51-12.33c2.28-3.4,4.14-6.28,5.57-8.64s2.52-4.24,3.26-5.66
				c0.74-1.41,1.27-2.49,1.59-3.22c0.21-0.42,0.34-0.76,0.4-1.02c0.05-0.26,0.13-0.5,0.24-0.71c0.21-0.52,0.53-0.89,0.95-1.1
				c0.42-0.21,0.9-0.26,1.43-0.16c1.17,0.42,1.64,1.21,1.43,2.36c0,0.21-0.21,0.89-0.64,2.04c-0.53,1.57-1.11,3.43-1.75,5.58
				c-0.64,2.15-1.14,4.32-1.51,6.52c-0.37,2.2-0.53,4.32-0.48,6.36c0.05,2.04,0.45,3.69,1.19,4.95c0.64,1.05,1.7,1.68,3.18,1.89
				c2.33,0.31,4.8-0.21,7.4-1.57c2.6-1.36,5.06-3.06,7.4-5.11c2.33-2.04,4.43-4.16,6.28-6.36c1.85-2.2,3.26-3.98,4.22-5.34
				c0.32-0.52,0.74-0.81,1.27-0.86c0.53-0.05,1.01,0.08,1.43,0.39c1.17,0.73,1.38,1.68,0.64,2.83c-0.21,0.21-1.19,1.44-2.94,3.69
				c-1.75,2.25-3.98,4.66-6.68,7.23c-2.7,2.57-5.75,4.85-9.15,6.83c-3.39,1.99-6.84,2.78-10.34,2.36c-2.65-0.31-4.72-1.62-6.2-3.93
				c-0.95-1.57-1.51-3.43-1.67-5.58c-0.16-2.15-0.08-4.42,0.24-6.83c-1.49,2.2-3.18,4.77-5.09,7.7c-1.91,2.93-4.19,6.23-6.84,9.9
				c-3.29,4.71-6.15,7.91-8.59,9.58C396.11,181.07,394.05,181.91,392.35,181.91z"/>
			<path class="st0" d="M427.66,249h-0.48c-2.01-0.21-3.45-1.26-4.29-3.14c-1.7-3.88,0.4-11.03,6.28-21.45
				c5.89-10.42,15.14-23.59,27.76-39.52c-0.53-4.61-1.41-8.85-2.62-12.73c-1.22-3.87-2.46-7.59-3.74-11.16
				c-0.21-0.52-0.37-1.02-0.48-1.49c-0.1-0.47-0.21-0.97-0.32-1.49c0-0.1-0.05-0.39-0.16-0.86c-0.1-0.47-0.21-0.99-0.32-1.57
				c-0.1-0.57-0.18-1.15-0.24-1.73c-0.05-0.57-0.08-1.02-0.08-1.34c0-2.41,0.29-4.71,0.88-6.91c0.58-2.2,1.38-4.21,2.39-6.05
				c1.01-1.83,2.12-3.43,3.34-4.79c1.22-1.36,2.47-2.41,3.74-3.14c2.01-1.26,3.55-1.73,4.61-1.41c1.06,0.31,1.8,0.68,2.23,1.1
				c1.17,1.15,1.22,2.96,0.16,5.42c-1.06,2.46-3.45,6-7.16,10.61c-0.96,1.15-1.94,2.3-2.94,3.46c-1.01,1.15-1.94,2.2-2.78,3.14
				c0.1,1.57,0.53,3.41,1.27,5.5c1.17,3.14,2.28,6.42,3.34,9.82c1.06,3.41,1.96,7.05,2.7,10.92c3.07-3.98,6.39-8.04,9.94-12.18
				c3.55-4.14,7.29-8.46,11.21-12.96c0.85-1.05,1.85-1.1,3.02-0.16c1.17,0.94,1.27,1.94,0.32,2.98
				c-4.77,5.34-9.09,10.35-12.96,15.01c-3.87,4.66-7.5,9.09-10.89,13.28c0.53,6.07,0,12.67-1.59,19.8
				c-1.59,7.12-4.93,14.98-10.02,23.57c-1.59,2.72-3.36,5.29-5.33,7.7c-1.96,2.41-3.92,4.48-5.88,6.21
				c-1.96,1.73-3.9,3.09-5.81,4.09C430.84,248.5,429.14,249,427.66,249z M457.24,191.49c-5.62,7.23-10.28,13.51-14,18.85
				c-3.71,5.34-6.68,9.95-8.91,13.83c-2.23,3.87-3.87,7.1-4.93,9.66c-1.06,2.57-1.8,4.61-2.23,6.13c-0.42,1.52-0.58,2.59-0.48,3.22
				c0.11,0.63,0.16,0.99,0.16,1.1c0.21,0.21,0.42,0.31,0.64,0.31c0.85,0.1,1.99-0.21,3.42-0.94c1.43-0.73,3-1.86,4.69-3.38
				c1.7-1.52,3.47-3.35,5.33-5.5c1.86-2.15,3.58-4.64,5.17-7.46c4.03-6.91,6.86-13.33,8.51-19.25
				C456.26,202.15,457.14,196.63,457.24,191.49z M462.49,134.77c-0.53,0.21-1.17,0.6-1.91,1.18c-0.74,0.58-1.59,1.44-2.54,2.59
				c-0.53,0.63-1.19,1.63-1.99,2.99c-0.8,1.36-1.46,3.09-1.99,5.18c2.12-2.51,3.95-4.84,5.49-6.99
				C461.09,137.58,462.07,135.93,462.49,134.77z"/>
			<path class="st0" d="M490.64,183.32c-1.06,0-1.8-0.05-2.23-0.16c-4.67-0.94-7.63-3.93-8.91-8.96c-0.64-2.72-0.69-5.79-0.16-9.19
				c0.53-3.4,1.46-6.83,2.79-10.29c1.32-3.46,3.02-6.7,5.09-9.74c2.07-3.04,4.38-5.55,6.92-7.54c3.71-2.93,6.6-4.42,8.67-4.48
				c2.07-0.05,3.58,0.34,4.53,1.18c1.59,1.68,2.04,3.95,1.35,6.83c-0.69,2.88-1.94,5.53-3.74,7.93c-1.7,2.2-3.58,3.88-5.65,5.03
				c-2.07,1.15-4.06,1.96-5.96,2.44s-3.53,0.73-4.85,0.79c-1.33,0.05-2.04,0.08-2.15,0.08c-0.11,0-0.21-0.03-0.32-0.08
				c-0.11-0.05-0.21-0.08-0.32-0.08c-1.17,2.93-1.94,5.81-2.31,8.64c-0.37,2.83-0.29,5.34,0.24,7.54c0.74,3.25,2.6,5.18,5.57,5.81
				c2.65,0.53,5.51-0.31,8.59-2.51c3.07-2.2,6.07-5,8.99-8.41c2.92-3.4,5.54-6.91,7.87-10.53c2.33-3.61,4.13-6.57,5.41-8.88
				c0.74-1.26,1.7-1.57,2.86-0.94c1.27,0.73,1.59,1.68,0.95,2.83c-0.32,0.63-1.01,1.86-2.07,3.69c-1.06,1.83-2.41,3.95-4.06,6.36
				c-1.64,2.41-3.5,4.95-5.57,7.62c-2.07,2.67-4.29,5.11-6.68,7.31c-2.39,2.2-4.85,4.03-7.4,5.5
				C495.57,182.59,493.08,183.32,490.64,183.32z M503.69,136.97c-0.53,0-1.35,0.26-2.46,0.79c-1.11,0.52-2.62,1.52-4.53,2.98
				c-1.8,1.47-3.5,3.28-5.09,5.42c-1.59,2.15-3.02,4.48-4.29,6.99c0.64,0,1.51-0.08,2.62-0.24s2.36-0.47,3.74-0.94
				c1.38-0.47,2.76-1.15,4.13-2.04c1.38-0.89,2.65-2.07,3.82-3.53c1.59-2.09,2.57-4.03,2.94-5.81c0.37-1.78,0.29-2.93-0.24-3.46
				h-0.16c-0.11,0-0.19-0.02-0.24-0.08C503.87,137,503.79,136.97,503.69,136.97z"/>
			<path class="st0" d="M496.53,249h-0.48c-2.01-0.21-3.45-1.26-4.29-3.14c-1.7-3.88,0.4-11.03,6.28-21.45
				c5.89-10.42,15.14-23.59,27.76-39.52c-0.53-4.61-1.41-8.85-2.62-12.73c-1.22-3.87-2.46-7.59-3.74-11.16
				c-0.21-0.52-0.37-1.02-0.48-1.49c-0.1-0.47-0.21-0.97-0.32-1.49c0-0.1-0.05-0.39-0.16-0.86c-0.1-0.47-0.21-0.99-0.32-1.57
				c-0.1-0.57-0.18-1.15-0.24-1.73c-0.05-0.57-0.08-1.02-0.08-1.34c0-2.41,0.29-4.71,0.88-6.91c0.58-2.2,1.38-4.21,2.39-6.05
				c1.01-1.83,2.12-3.43,3.34-4.79c1.22-1.36,2.46-2.41,3.74-3.14c2.01-1.26,3.55-1.73,4.61-1.41c1.06,0.31,1.8,0.68,2.23,1.1
				c1.17,1.15,1.22,2.96,0.16,5.42c-1.06,2.46-3.45,6-7.16,10.61c-0.95,1.15-1.94,2.3-2.94,3.46c-1.01,1.15-1.94,2.2-2.79,3.14
				c0.11,1.57,0.53,3.41,1.27,5.5c1.17,3.14,2.28,6.42,3.34,9.82c1.06,3.41,1.96,7.05,2.71,10.92c3.07-3.98,6.39-8.04,9.94-12.18
				c3.55-4.14,7.29-8.46,11.21-12.96c0.85-1.05,1.86-1.1,3.02-0.16c1.17,0.94,1.27,1.94,0.32,2.98
				c-4.77,5.34-9.09,10.35-12.96,15.01c-3.87,4.66-7.5,9.09-10.9,13.28c0.53,6.07,0,12.67-1.59,19.8
				c-1.59,7.12-4.93,14.98-10.02,23.57c-1.59,2.72-3.36,5.29-5.33,7.7c-1.96,2.41-3.92,4.48-5.88,6.21c-1.96,1.73-3.9,3.09-5.8,4.09
				C499.71,248.5,498.01,249,496.53,249z M526.11,191.49c-5.62,7.23-10.28,13.51-14,18.85c-3.71,5.34-6.68,9.95-8.91,13.83
				c-2.23,3.87-3.87,7.1-4.93,9.66c-1.06,2.57-1.8,4.61-2.23,6.13c-0.42,1.52-0.58,2.59-0.48,3.22c0.11,0.63,0.16,0.99,0.16,1.1
				c0.21,0.21,0.42,0.31,0.63,0.31c0.85,0.1,1.99-0.21,3.42-0.94c1.43-0.73,3-1.86,4.69-3.38c1.7-1.52,3.47-3.35,5.33-5.5
				c1.86-2.15,3.58-4.64,5.17-7.46c4.03-6.91,6.87-13.33,8.51-19.25C525.13,202.15,526,196.63,526.11,191.49z M531.36,134.77
				c-0.53,0.21-1.17,0.6-1.91,1.18c-0.74,0.58-1.59,1.44-2.54,2.59c-0.53,0.63-1.19,1.63-1.99,2.99c-0.79,1.36-1.46,3.09-1.99,5.18
				c2.12-2.51,3.95-4.84,5.49-6.99C529.95,137.58,530.94,135.93,531.36,134.77z"/>
		</g>
	</g>
</g>
</svg>
