<?xml version="1.0" encoding="utf-8"?>
<!-- Generator: Adobe Illustrator 23.0.1, SVG Export Plug-In . SVG Version: 6.00 Build 0)  -->
<svg version="1.1" id="Capa_1" xmlns="http://www.w3.org/2000/svg" xmlns:xlink="http://www.w3.org/1999/xlink" x="0px" y="0px"
	 viewBox="0 0 600 235" style="enable-background:new 0 0 600 235;" xml:space="preserve">
<style type="text/css">
	.st0{fill:#6FC8B7;}
</style>
<g>
	<g>
		<g>
			<path class="st0" d="M9.5,78.12V8.53l47.52,49.71V12.96h9.83v69.12L19.34,32.5v45.62H9.5z"/>
			<path class="st0" d="M92.3,12.96V52.2c0,5.6,0.91,9.69,2.74,12.28c2.73,3.74,6.57,5.61,11.52,5.61c4.98,0,8.83-1.87,11.56-5.61
				c1.83-2.5,2.74-6.6,2.74-12.28V12.96h9.83V54.9c0,6.87-2.14,12.52-6.41,16.96c-4.81,4.95-10.72,7.43-17.72,7.43
				c-7.01,0-12.9-2.48-17.68-7.43c-4.28-4.44-6.41-10.1-6.41-16.96V12.96H92.3z"/>
			<path class="st0" d="M182.27,22.2h-26.12v15.66h25.36v9.24h-25.36v21.78h26.12v9.24h-35.96V12.96h35.96V22.2z"/>
			<path class="st0" d="M232.03,22.66l-7.98,4.73c-1.49-2.59-2.91-4.28-4.26-5.06c-1.41-0.9-3.22-1.35-5.44-1.35
				c-2.73,0-4.99,0.77-6.79,2.32c-1.8,1.52-2.7,3.43-2.7,5.74c0,3.18,2.36,5.74,7.09,7.68l6.5,2.66c5.29,2.14,9.16,4.75,11.61,7.83
				c2.45,3.08,3.67,6.86,3.67,11.33c0,5.99-2,10.94-5.99,14.85c-4.02,3.94-9.02,5.91-14.98,5.91c-5.66,0-10.33-1.67-14.01-5.02
				c-3.63-3.35-5.89-8.06-6.79-14.14l9.96-2.19c0.45,3.83,1.24,6.47,2.36,7.93c2.03,2.81,4.98,4.22,8.86,4.22
				c3.07,0,5.61-1.03,7.64-3.08s3.04-4.66,3.04-7.81c0-1.27-0.18-2.43-0.53-3.48s-0.9-2.03-1.65-2.91
				c-0.75-0.89-1.71-1.72-2.89-2.49s-2.59-1.51-4.22-2.22l-6.29-2.62c-8.92-3.77-13.38-9.28-13.38-16.54c0-4.9,1.87-8.99,5.61-12.28
				c3.74-3.32,8.4-4.98,13.97-4.98C221.94,11.69,227.81,15.35,232.03,22.66z"/>
			<path class="st0" d="M264.78,22.2v55.92h-9.83V22.2h-14.98v-9.24h39.75v9.24H264.78z"/>
			<path class="st0" d="M310.56,50.35l20.17,27.77h-12.03L300.1,51.44h-1.77v26.67h-9.83V12.96h11.52c8.61,0,14.83,1.62,18.65,4.85
				c4.22,3.6,6.33,8.36,6.33,14.26c0,4.61-1.32,8.58-3.97,11.9C318.39,47.29,314.9,49.42,310.56,50.35z M298.33,42.88h3.12
				c9.31,0,13.97-3.56,13.97-10.68c0-6.67-4.53-10-13.59-10h-3.5V42.88z"/>
			<path class="st0" d="M335.8,45.24c0-9.17,3.36-17.05,10.09-23.63c6.7-6.58,14.74-9.88,24.14-9.88c9.28,0,17.25,3.32,23.89,9.96
				c6.67,6.64,10,14.62,10,23.93c0,9.37-3.35,17.32-10.04,23.84c-6.72,6.56-14.84,9.83-24.35,9.83c-8.41,0-15.97-2.91-22.66-8.74
				C339.49,64.12,335.8,55.68,335.8,45.24z M345.72,45.37c0,7.2,2.42,13.12,7.26,17.77c4.81,4.64,10.37,6.96,16.67,6.96
				c6.84,0,12.6-2.36,17.3-7.09c4.7-4.78,7.05-10.61,7.05-17.47c0-6.95-2.32-12.77-6.96-17.47c-4.61-4.73-10.33-7.09-17.13-7.09
				c-6.78,0-12.51,2.36-17.18,7.09C348.05,32.74,345.72,38.5,345.72,45.37z"/>
			<path class="st0" d="M453.12,22.66l-7.98,4.73c-1.49-2.59-2.91-4.28-4.26-5.06c-1.41-0.9-3.22-1.35-5.44-1.35
				c-2.73,0-4.99,0.77-6.79,2.32c-1.8,1.52-2.7,3.43-2.7,5.74c0,3.18,2.36,5.74,7.09,7.68l6.5,2.66c5.29,2.14,9.16,4.75,11.61,7.83
				c2.45,3.08,3.67,6.86,3.67,11.33c0,5.99-2,10.94-5.99,14.85c-4.02,3.94-9.02,5.91-14.98,5.91c-5.66,0-10.33-1.67-14.01-5.02
				c-3.63-3.35-5.89-8.06-6.79-14.14l9.96-2.19c0.45,3.83,1.24,6.47,2.36,7.93c2.03,2.81,4.98,4.22,8.86,4.22
				c3.07,0,5.61-1.03,7.64-3.08s3.04-4.66,3.04-7.81c0-1.27-0.18-2.43-0.53-3.48s-0.9-2.03-1.65-2.91
				c-0.75-0.89-1.71-1.72-2.89-2.49s-2.59-1.51-4.22-2.22l-6.29-2.62c-8.92-3.77-13.38-9.28-13.38-16.54c0-4.9,1.87-8.99,5.61-12.28
				c3.74-3.32,8.4-4.98,13.97-4.98C443.03,11.69,448.9,15.35,453.12,22.66z"/>
		</g>
	</g>
	<g>
		<g>
			<path class="st0" d="M218.79,173.51c-0.32,0-0.53-0.05-0.64-0.16c-1.06-0.21-1.59-0.9-1.59-2.07v-0.16
				c0.42-3.61,1.27-7.79,2.54-12.57c1.27-4.77,2.78-9.78,4.53-15.03c1.75-5.25,3.66-10.63,5.73-16.14
				c2.07-5.51,4.08-10.84,6.04-15.99c1.96-5.14,3.87-9.89,5.73-14.24c1.85-4.35,3.42-8.06,4.69-11.13
				c3.18-7.63,6.39-14.98,9.62-22.03c3.23-7.05,6.23-13.44,8.99-19.17c2.23-4.56,4.03-8.11,5.41-10.66
				c1.38-2.54,2.46-4.45,3.26-5.73c0.79-1.27,1.4-2.07,1.83-2.39c0.42-0.32,0.74-0.53,0.95-0.64c0.74-0.32,1.48-0.21,2.23,0.32
				c0.74,0.64,1.22,1.54,1.43,2.7c0,0.95-0.32,2.07-0.95,3.34c-0.64,1.27-1.38,2.52-2.23,3.74c-0.85,1.22-1.75,2.33-2.7,3.34
				c-0.96,1.01-1.65,1.72-2.07,2.15c-0.21,0.21-0.53,0.43-0.95,0.64c-2.23,4.35-4.75,9.54-7.55,15.59
				c-2.81,6.04-5.75,12.59-8.83,19.64c-3.08,7.05-6.18,14.37-9.3,21.95c-3.13,7.58-6.1,15.06-8.91,22.43
				c-2.81,7.37-5.36,14.45-7.63,21.23c-2.28,6.79-4.11,12.88-5.49,18.29c3.92-6.26,7.82-12.25,11.69-17.97
				c3.87-5.73,7.61-10.76,11.21-15.11c3.6-4.35,6.97-7.79,10.1-10.34c3.13-2.54,5.96-3.76,8.51-3.66h0.32
				c1.8,0.21,2.76,1.54,2.86,3.98c0.1,2.44,0.05,5.88-0.16,10.34c-0.21,1.91-0.37,3.9-0.48,5.96c-0.11,2.07-0.05,4,0.16,5.81
				c0,1.17,0.05,2.07,0.16,2.7c0.1,0.64,0.26,1.17,0.48,1.59c0.21,0.42,0.37,0.74,0.48,0.96c0.21,0,0.53-0.05,0.95-0.16
				c1.8-0.85,4.4-3.02,7.79-6.52c3.39-3.5,7.26-7.95,11.61-13.36l0.16-0.32c0.85-1.17,1.85-1.27,3.02-0.32
				c0.95,0.95,1.06,1.96,0.32,3.02l-0.32,0.16c-1.27,1.7-2.81,3.61-4.61,5.73c-1.8,2.12-3.66,4.21-5.57,6.28
				c-1.91,2.07-3.79,3.92-5.65,5.57c-1.86,1.65-3.53,2.84-5.01,3.58c-1.17,0.53-2.15,0.74-2.94,0.64c-0.8-0.1-1.46-0.37-1.99-0.79
				c-1.8-1.17-2.81-3.52-3.02-7.08c-0.21-3.55-0.16-8.14,0.16-13.76c0.1-1.7,0.21-3.5,0.32-5.41c0.1-1.91,0.05-3.34-0.16-4.29
				c-0.64,0.21-1.49,0.61-2.54,1.19c-1.06,0.58-2.33,1.54-3.82,2.86c-1.49,1.33-3.24,3.13-5.25,5.41c-2.02,2.28-4.35,5.17-7,8.67
				c-4.03,5.2-7.82,10.58-11.37,16.14c-3.55,5.57-6.44,10.21-8.67,13.92c-0.64,0.96-1.19,1.83-1.67,2.62s-0.93,1.46-1.35,1.99
				c-0.53,0.85-0.98,1.51-1.35,1.99C219.93,173.27,219.42,173.51,218.79,173.51z"/>
			<path class="st0" d="M286.39,162.22c-1.17,0-2.2-0.16-3.1-0.48c-0.9-0.32-1.62-0.69-2.15-1.11c-2.76-2.12-4.24-5.43-4.45-9.94
				c-0.21-4.5,0.9-9.09,3.34-13.76c1.7-3.18,3.6-6.18,5.73-8.99c2.12-2.81,4.29-5.35,6.52-7.63c2.23-2.28,4.43-4.16,6.6-5.65
				c2.17-1.48,4.21-2.44,6.12-2.86c1.17-0.21,2.15-0.26,2.94-0.16c0.8,0.11,1.46,0.27,1.99,0.48c1.38-0.32,2.6-0.21,3.66,0.32
				c3.07,1.91,4.82,4.51,5.25,7.79c0.64,3.39,0,7.32-1.91,11.77c2.12-0.42,4.85-1.3,8.19-2.62c3.34-1.33,7.45-3.47,12.33-6.44
				c1.38-0.74,2.44-0.48,3.18,0.8c0.74,1.27,0.48,2.28-0.8,3.02c-10.71,6.58-19.14,9.92-25.29,10.02c-2.86,5.09-7,10.5-12.41,16.22
				c-3.4,3.71-6.42,6.18-9.07,7.4C290.41,161.61,288.19,162.22,286.39,162.22z M305.31,116.57c-1.38,0.42-2.97,1.27-4.77,2.54
				c-1.8,1.27-3.66,2.92-5.57,4.93c-1.91,2.02-3.82,4.29-5.73,6.84c-1.91,2.54-3.66,5.3-5.25,8.27c-2.12,3.82-3.1,7.45-2.94,10.9
				c0.16,3.45,1.09,5.75,2.78,6.92c1.59,1.17,3.71,1.11,6.36-0.16c2.65-1.27,5.57-3.6,8.75-7c2.44-2.65,4.53-5.12,6.28-7.4
				c1.75-2.28,3.21-4.37,4.37-6.28c-1.59-0.53-2.97-1.43-4.14-2.7c-0.95-1.06-1.65-2.33-2.07-3.82c-0.43-1.48-0.61-3-0.56-4.53
				c0.05-1.54,0.32-3.05,0.8-4.53C304.12,119.06,304.68,117.74,305.31,116.57z M311.36,116.57c-0.21,0-0.66,0.37-1.35,1.11
				c-0.69,0.74-1.3,1.96-1.83,3.66c-0.53,1.59-0.77,3.32-0.72,5.17c0.05,1.86,0.72,3.32,1.99,4.37c0.42,0.42,1.27,0.79,2.54,1.11
				c1.38-2.86,2.17-5.19,2.39-7c0.21-1.8,0.21-3.13,0-3.98C314.06,118.79,313.05,117.31,311.36,116.57z"/>
			<path class="st0" d="M329.96,163.81c-1.17,0-1.96-0.48-2.39-1.43c-0.21-0.32-0.4-0.82-0.56-1.51c-0.16-0.69-0.13-1.96,0.08-3.82
				c0.21-1.85,0.74-4.5,1.59-7.95c0.85-3.44,2.17-8.08,3.98-13.92c0.85-2.76,1.72-5.46,2.62-8.11c0.9-2.65,1.7-4.98,2.39-7
				c0.69-2.01,1.51-4.29,2.47-6.84c0.21-0.53,0.58-0.93,1.11-1.19c0.53-0.26,1.06-0.29,1.59-0.08c0.53,0.21,0.93,0.61,1.19,1.19
				c0.26,0.58,0.29,1.14,0.08,1.67c-1.49,3.92-2.92,7.93-4.29,12.01c-1.38,4.08-2.62,7.98-3.74,11.69
				c-1.11,3.71-2.07,7.13-2.86,10.26c-0.79,3.13-1.35,5.7-1.67,7.71c0.74-1.38,1.59-2.99,2.54-4.85c0.95-1.85,1.85-3.68,2.7-5.49
				c2.33-4.67,4.64-9.12,6.92-13.36c2.28-4.24,4.5-7.98,6.68-11.21c2.17-3.23,4.35-5.91,6.52-8.03c2.17-2.12,4.37-3.44,6.6-3.98
				l0.16-0.16c0.74-0.1,1.32-0.05,1.75,0.16c0.42,0.21,0.74,0.42,0.95,0.64c0.74,0.74,1.09,1.7,1.03,2.86
				c-0.05,1.17-0.19,2.49-0.4,3.98c-0.21,1.38-0.4,2.89-0.56,4.53c-0.16,1.65,0.13,2.73,0.88,3.26c0.21,0.21,0.77,0.37,1.67,0.48
				c0.9,0.11,2.52-0.26,4.85-1.11c1.38-0.42,2.28,0.05,2.7,1.43c0.21,0.53,0.18,1.06-0.08,1.59c-0.27,0.53-0.66,0.9-1.19,1.11
				c-4.99,1.8-8.59,1.75-10.82-0.16c-1.59-1.38-2.36-3.15-2.31-5.33c0.05-2.17,0.24-4.32,0.56-6.44c0-0.53,0.1-1.22,0.32-2.07
				c-1.8,0.96-3.71,2.68-5.73,5.17c-2.02,2.49-3.98,5.36-5.88,8.59c-1.91,3.24-3.79,6.63-5.65,10.18c-1.86,3.55-3.53,6.82-5.01,9.78
				c-1.59,3.08-2.92,5.62-3.98,7.63c-1.06,2.02-1.99,3.63-2.78,4.85c-0.79,1.22-1.48,2.07-2.07,2.54c-0.58,0.48-1.19,0.72-1.83,0.72
				H329.96z"/>
			<path class="st0" d="M381.5,158.56c-1.27,0-2.33-0.26-3.18-0.8c-1.49-0.95-2.6-2.46-3.34-4.53c-0.74-2.07-1.06-4.48-0.95-7.24
				c0.11-2.76,0.58-5.7,1.43-8.83c0.85-3.13,2.07-6.18,3.66-9.15c4.35-8.38,8.8-14.53,13.36-18.45c4.56-3.92,8.38-6.2,11.45-6.84
				c1.59-0.32,2.92-0.32,3.98,0c1.06,0.32,1.85,0.69,2.39,1.11c1.06,0.95,1.77,1.99,2.15,3.1c0.37,1.11,0.48,2.23,0.32,3.34
				s-0.45,2.15-0.88,3.1c-0.42,0.95-0.85,1.75-1.27,2.39c-0.74,1.06-1.7,1.22-2.86,0.48c-1.06-0.74-1.22-1.7-0.48-2.86
				c0.64-0.95,1.06-1.75,1.27-2.39c0.21-0.64,0.26-1.32,0.16-2.07c-0.11-0.74-0.48-1.38-1.11-1.91c-0.53-0.53-1.49-0.64-2.86-0.32
				c-2.54,0.53-5.83,2.57-9.86,6.12c-4.03,3.55-8.11,9.25-12.25,17.1c-1.49,2.76-2.57,5.49-3.26,8.19c-0.69,2.7-1.09,5.17-1.19,7.4
				c-0.11,2.23,0.02,4.14,0.4,5.73c0.37,1.59,0.98,2.6,1.83,3.02c0.85,0.53,2.36,0.13,4.53-1.19c2.17-1.33,4.85-4.32,8.03-8.99
				c3.39-4.88,6.23-9.04,8.51-12.49c2.28-3.44,4.14-6.36,5.57-8.75s2.52-4.29,3.26-5.73c0.74-1.43,1.27-2.52,1.59-3.26
				c0.21-0.42,0.34-0.77,0.4-1.03c0.05-0.26,0.13-0.5,0.24-0.72c0.21-0.53,0.53-0.9,0.95-1.11c0.42-0.21,0.9-0.26,1.43-0.16
				c1.17,0.42,1.64,1.22,1.43,2.39c0,0.21-0.21,0.9-0.64,2.07c-0.53,1.59-1.11,3.47-1.75,5.65c-0.64,2.17-1.14,4.37-1.51,6.6
				c-0.37,2.23-0.53,4.37-0.48,6.44c0.05,2.07,0.45,3.74,1.19,5.01c0.64,1.06,1.7,1.7,3.18,1.91c2.33,0.32,4.8-0.21,7.4-1.59
				c2.6-1.38,5.06-3.1,7.4-5.17c2.33-2.07,4.43-4.21,6.28-6.44c1.85-2.23,3.26-4.03,4.21-5.41c0.32-0.53,0.74-0.82,1.27-0.88
				c0.53-0.05,1.01,0.08,1.43,0.4c1.17,0.74,1.38,1.7,0.64,2.86c-0.21,0.21-1.19,1.46-2.94,3.74c-1.75,2.28-3.98,4.72-6.68,7.32
				c-2.7,2.6-5.75,4.91-9.15,6.92c-3.39,2.02-6.84,2.81-10.34,2.39c-2.65-0.32-4.72-1.64-6.2-3.98c-0.95-1.59-1.51-3.47-1.67-5.65
				c-0.16-2.17-0.08-4.48,0.24-6.92c-1.49,2.23-3.18,4.83-5.09,7.79c-1.91,2.97-4.19,6.31-6.84,10.02c-3.29,4.77-6.15,8.01-8.59,9.7
				C385.26,157.71,383.19,158.56,381.5,158.56z"/>
			<path class="st0" d="M434.78,163.81c-1.17,0-1.96-0.48-2.39-1.43c-0.21-0.32-0.4-0.82-0.56-1.51c-0.16-0.69-0.13-1.96,0.08-3.82
				c0.21-1.85,0.74-4.5,1.59-7.95c0.85-3.44,2.17-8.08,3.98-13.92c0.85-2.76,1.72-5.46,2.62-8.11c0.9-2.65,1.7-4.98,2.39-7
				c0.69-2.01,1.51-4.29,2.47-6.84c0.21-0.53,0.58-0.93,1.11-1.19c0.53-0.26,1.06-0.29,1.59-0.08c0.53,0.21,0.93,0.61,1.19,1.19
				c0.26,0.58,0.29,1.14,0.08,1.67c-1.49,3.92-2.92,7.93-4.29,12.01c-1.38,4.08-2.62,7.98-3.74,11.69
				c-1.11,3.71-2.07,7.13-2.86,10.26c-0.79,3.13-1.35,5.7-1.67,7.71c0.74-1.38,1.59-2.99,2.54-4.85c0.95-1.85,1.85-3.68,2.7-5.49
				c2.33-4.67,4.64-9.12,6.92-13.36c2.28-4.24,4.5-7.98,6.68-11.21c2.17-3.23,4.35-5.91,6.52-8.03c2.17-2.12,4.37-3.44,6.6-3.98
				l0.16-0.16c0.74-0.1,1.32-0.05,1.75,0.16c0.42,0.21,0.74,0.42,0.95,0.64c0.74,0.74,1.09,1.7,1.03,2.86
				c-0.05,1.17-0.19,2.49-0.4,3.98c-0.21,1.38-0.4,2.89-0.56,4.53c-0.16,1.65,0.13,2.73,0.88,3.26c0.21,0.21,0.77,0.37,1.67,0.48
				c0.9,0.11,2.52-0.26,4.85-1.11c1.38-0.42,2.28,0.05,2.7,1.43c0.21,0.53,0.18,1.06-0.08,1.59c-0.27,0.53-0.66,0.9-1.19,1.11
				c-4.99,1.8-8.59,1.75-10.82-0.16c-1.59-1.38-2.36-3.15-2.31-5.33c0.05-2.17,0.24-4.32,0.56-6.44c0-0.53,0.1-1.22,0.32-2.07
				c-1.8,0.96-3.71,2.68-5.73,5.17c-2.02,2.49-3.98,5.36-5.88,8.59c-1.91,3.24-3.79,6.63-5.65,10.18c-1.86,3.55-3.53,6.82-5.01,9.78
				c-1.59,3.08-2.92,5.62-3.98,7.63c-1.06,2.02-1.99,3.63-2.78,4.85c-0.79,1.22-1.48,2.07-2.07,2.54c-0.58,0.48-1.19,0.72-1.83,0.72
				H434.78z"/>
			<path class="st0" d="M512.24,124.36c0.53,0.32,0.85,0.77,0.95,1.35c0.1,0.58,0.05,1.14-0.16,1.67c-0.53,0.85-1.41,2.17-2.62,3.98
				c-1.22,1.8-2.62,3.82-4.21,6.04c-1.59,2.23-3.37,4.51-5.33,6.84c-1.96,2.33-3.92,4.48-5.89,6.44c-1.96,1.96-3.95,3.55-5.96,4.77
				c-2.02,1.22-3.87,1.83-5.57,1.83h-1.11c-1.59-0.32-2.7-1.22-3.34-2.7c-0.64-1.38-0.82-3.29-0.56-5.73
				c0.27-2.44,0.85-5.14,1.75-8.11c0.9-2.97,1.99-6.04,3.26-9.23c1.27-3.18,2.54-6.2,3.82-9.07c1.27-2.86,2.47-5.38,3.58-7.56
				c1.11-2.17,1.93-3.79,2.46-4.85c0.21-0.53,0.61-0.88,1.19-1.03c0.58-0.16,1.14-0.08,1.67,0.24c0.53,0.21,0.88,0.61,1.03,1.19
				c0.16,0.58,0.13,1.14-0.08,1.67c-1.8,3.5-3.66,7.4-5.57,11.69c-1.91,4.29-3.61,8.38-5.09,12.25c-1.49,3.87-2.57,7.34-3.26,10.42
				c-0.69,3.08-0.77,5.14-0.24,6.2v0.32h0.16c1.38,0.21,3.15-0.56,5.33-2.31c2.17-1.75,4.48-4,6.92-6.76
				c2.44-2.76,4.88-5.83,7.32-9.22c2.44-3.39,4.61-6.63,6.52-9.7c0.32-0.53,0.77-0.85,1.35-0.96
				C511.15,123.94,511.7,124.04,512.24,124.36z M501.1,102.57c-0.85,0-1.59-0.32-2.23-0.95c-0.64-0.64-0.95-1.38-0.95-2.23
				c0-0.85,0.32-1.59,0.95-2.23c0.64-0.64,1.38-0.95,2.23-0.95c0.85,0,1.59,0.32,2.23,0.95c0.64,0.64,0.95,1.38,0.95,2.23
				c0,0.85-0.32,1.59-0.95,2.23C502.69,102.25,501.95,102.57,501.1,102.57z"/>
			<path class="st0" d="M507.62,162.22c-1.17,0-2.2-0.16-3.1-0.48c-0.9-0.32-1.62-0.69-2.15-1.11c-2.76-2.12-4.24-5.43-4.45-9.94
				c-0.21-4.5,0.9-9.09,3.34-13.76c1.7-3.18,3.6-6.18,5.73-8.99c2.12-2.81,4.29-5.35,6.52-7.63c2.23-2.28,4.43-4.16,6.6-5.65
				c2.17-1.48,4.21-2.44,6.12-2.86c1.17-0.21,2.15-0.26,2.94-0.16c0.8,0.11,1.46,0.27,1.99,0.48c1.38-0.32,2.6-0.21,3.66,0.32
				c3.07,1.91,4.82,4.51,5.25,7.79c0.64,3.39,0,7.32-1.91,11.77c2.12-0.42,4.85-1.3,8.19-2.62c3.34-1.33,7.45-3.47,12.33-6.44
				c1.38-0.74,2.44-0.48,3.18,0.8c0.74,1.27,0.48,2.28-0.8,3.02c-10.71,6.58-19.14,9.92-25.29,10.02c-2.86,5.09-7,10.5-12.41,16.22
				c-3.4,3.71-6.42,6.18-9.07,7.4C511.65,161.61,509.43,162.22,507.62,162.22z M526.55,116.57c-1.38,0.42-2.97,1.27-4.77,2.54
				c-1.8,1.27-3.66,2.92-5.57,4.93c-1.91,2.02-3.82,4.29-5.73,6.84c-1.91,2.54-3.66,5.3-5.25,8.27c-2.12,3.82-3.1,7.45-2.94,10.9
				c0.16,3.45,1.09,5.75,2.78,6.92c1.59,1.17,3.71,1.11,6.36-0.16c2.65-1.27,5.57-3.6,8.75-7c2.44-2.65,4.53-5.12,6.28-7.4
				c1.75-2.28,3.21-4.37,4.37-6.28c-1.59-0.53-2.97-1.43-4.14-2.7c-0.95-1.06-1.65-2.33-2.07-3.82c-0.43-1.48-0.61-3-0.56-4.53
				c0.05-1.54,0.32-3.05,0.8-4.53C525.36,119.06,525.92,117.74,526.55,116.57z M532.6,116.57c-0.21,0-0.66,0.37-1.35,1.11
				c-0.69,0.74-1.3,1.96-1.83,3.66c-0.53,1.59-0.77,3.32-0.72,5.17c0.05,1.86,0.72,3.32,1.99,4.37c0.42,0.42,1.27,0.79,2.54,1.11
				c1.38-2.86,2.17-5.19,2.39-7c0.21-1.8,0.21-3.13,0-3.98C535.3,118.79,534.29,117.31,532.6,116.57z"/>
			<path class="st0" d="M532.27,226.47h-0.48c-2.01-0.21-3.45-1.27-4.29-3.18c-1.7-3.92,0.4-11.16,6.28-21.71
				c5.89-10.55,15.14-23.88,27.76-40c-0.53-4.67-1.41-8.96-2.62-12.88c-1.22-3.92-2.46-7.69-3.74-11.29
				c-0.21-0.53-0.37-1.03-0.48-1.51c-0.1-0.48-0.21-0.98-0.32-1.51c0-0.1-0.05-0.4-0.16-0.88c-0.1-0.48-0.21-1.01-0.32-1.59
				c-0.1-0.58-0.18-1.17-0.24-1.75c-0.05-0.58-0.08-1.03-0.08-1.35c0-2.44,0.29-4.77,0.88-7c0.58-2.23,1.38-4.27,2.39-6.12
				c1.01-1.85,2.12-3.47,3.34-4.85c1.22-1.38,2.47-2.44,3.74-3.18c2.01-1.27,3.55-1.75,4.61-1.43c1.06,0.32,1.8,0.69,2.23,1.11
				c1.17,1.17,1.22,3,0.16,5.49c-1.06,2.49-3.45,6.07-7.16,10.74c-0.95,1.17-1.94,2.33-2.94,3.5c-1.01,1.17-1.94,2.23-2.78,3.18
				c0.1,1.59,0.53,3.45,1.27,5.57c1.17,3.18,2.28,6.5,3.34,9.94c1.06,3.45,1.96,7.13,2.7,11.05c3.07-4.03,6.39-8.14,9.94-12.33
				c3.55-4.19,7.29-8.56,11.21-13.12c0.85-1.06,1.85-1.11,3.02-0.16c1.17,0.95,1.27,1.96,0.32,3.02
				c-4.77,5.41-9.09,10.47-12.96,15.19c-3.87,4.72-7.5,9.2-10.9,13.44c0.53,6.15,0,12.83-1.59,20.04
				c-1.59,7.21-4.93,15.16-10.02,23.86c-1.59,2.76-3.36,5.35-5.33,7.79c-1.96,2.44-3.92,4.53-5.88,6.28
				c-1.96,1.75-3.9,3.13-5.81,4.14C535.46,225.97,533.76,226.47,532.27,226.47z M561.86,168.26c-5.62,7.32-10.28,13.68-14,19.09
				c-3.71,5.41-6.68,10.07-8.91,14c-2.23,3.92-3.87,7.18-4.93,9.78c-1.06,2.6-1.8,4.66-2.23,6.2c-0.42,1.54-0.58,2.62-0.48,3.26
				c0.11,0.64,0.16,1.01,0.16,1.11c0.21,0.21,0.42,0.32,0.64,0.32c0.85,0.1,1.99-0.21,3.42-0.95c1.43-0.74,3-1.88,4.69-3.42
				c1.7-1.54,3.47-3.39,5.33-5.57c1.86-2.17,3.58-4.69,5.17-7.55c4.03-7,6.86-13.5,8.51-19.48
				C560.88,179.05,561.75,173.46,561.86,168.26z M567.11,110.84c-0.53,0.21-1.17,0.61-1.91,1.19c-0.74,0.58-1.59,1.46-2.54,2.62
				c-0.53,0.64-1.19,1.65-1.99,3.02c-0.8,1.38-1.46,3.13-1.99,5.25c2.12-2.54,3.95-4.9,5.49-7.08
				C565.7,113.68,566.68,112.01,567.11,110.84z"/>
		</g>
	</g>
</g>
</svg>
