<?xml version="1.0" encoding="utf-8"?>
<!-- Generator: Adobe Illustrator 23.0.1, SVG Export Plug-In . SVG Version: 6.00 Build 0)  -->
<svg version="1.1" id="Capa_1" xmlns="http://www.w3.org/2000/svg" xmlns:xlink="http://www.w3.org/1999/xlink" x="0px" y="0px"
	 viewBox="0 0 393 194" style="enable-background:new 0 0 393 194;" xml:space="preserve">
<style type="text/css">
	.st0{fill:#4C7D6C;}
</style>
<g>
	<g>
		<path class="st0" d="M33.11,51.38L5.7,3.68h14.58l19.2,33.56L58.73,3.68h14.58l-27.52,47.7v36.28H33.11V51.38z"/>
		<path class="st0" d="M74.56,45.29c0-11.82,4.33-21.98,13-30.46c8.63-8.49,19-12.73,31.11-12.73c11.97,0,22.23,4.28,30.79,12.84
			c8.59,8.56,12.89,18.84,12.89,30.84c0,12.08-4.32,22.32-12.95,30.73c-8.67,8.45-19.13,12.67-31.38,12.67
			c-10.84,0-20.58-3.75-29.21-11.26C79.31,69.62,74.56,58.75,74.56,45.29z M87.34,45.45c0,9.28,3.12,16.92,9.36,22.9
			c6.2,5.98,13.36,8.97,21.49,8.97c8.81,0,16.25-3.05,22.3-9.14c6.06-6.16,9.08-13.67,9.08-22.52c0-8.96-2.99-16.46-8.98-22.52
			c-5.95-6.09-13.31-9.14-22.08-9.14c-8.74,0-16.12,3.05-22.14,9.14C90.35,29.17,87.34,36.61,87.34,45.45z"/>
		<path class="st0" d="M221.48,43.93h34.7v2.77c0,6.31-0.74,11.89-2.23,16.75c-1.45,4.5-3.9,8.7-7.34,12.62
			c-7.8,8.78-17.71,13.16-29.75,13.16c-11.75,0-21.81-4.24-30.19-12.73c-8.38-8.52-12.56-18.75-12.56-30.68
			c0-12.18,4.26-22.52,12.78-31C195.41,6.31,205.78,2.05,218,2.05c6.56,0,12.69,1.34,18.39,4.02c5.44,2.68,10.79,7.04,16.05,13.05
			l-9.03,8.65c-6.89-9.17-15.29-13.76-25.18-13.76c-8.88,0-16.34,3.07-22.36,9.19c-6.02,6.02-9.03,13.56-9.03,22.63
			c0,9.36,3.35,17.06,10.06,23.12c6.27,5.62,13.07,8.43,20.4,8.43c6.24,0,11.84-2.1,16.81-6.31c4.97-4.24,7.74-9.32,8.32-15.23
			h-20.94V43.93z"/>
		<path class="st0" d="M284.8,3.68v50.59c0,7.22,1.18,12.49,3.54,15.83c3.52,4.82,8.47,7.23,14.85,7.23c6.42,0,11.39-2.41,14.9-7.23
			c2.36-3.23,3.54-8.5,3.54-15.83V3.68h12.67v54.07c0,8.85-2.76,16.14-8.27,21.87c-6.2,6.38-13.82,9.57-22.85,9.57
			s-16.63-3.19-22.79-9.57c-5.51-5.73-8.27-13.02-8.27-21.87V3.68H284.8z"/>
		<path class="st0" d="M367.09,3.68v83.98h-12.67V3.68H367.09z"/>
	</g>
	<g>
		<path class="st0" d="M148.52,134.33c0.54,0.33,0.87,0.79,0.98,1.39c0.11,0.6,0.05,1.17-0.16,1.72c-0.55,0.87-1.45,2.24-2.7,4.09
			c-1.25,1.86-2.7,3.93-4.34,6.22c-1.64,2.29-3.46,4.64-5.48,7.04c-2.02,2.4-4.04,4.61-6.05,6.63c-2.02,2.02-4.07,3.66-6.14,4.91
			c-2.07,1.25-3.98,1.88-5.73,1.88h-1.15c-1.64-0.33-2.78-1.25-3.44-2.78c-0.65-1.42-0.84-3.38-0.57-5.89
			c0.27-2.51,0.87-5.29,1.8-8.34c0.93-3.05,2.04-6.22,3.35-9.49c1.31-3.27,2.62-6.38,3.93-9.33c1.31-2.95,2.54-5.54,3.68-7.77
			c1.14-2.23,1.99-3.9,2.54-4.99c0.22-0.54,0.63-0.9,1.23-1.06c0.6-0.16,1.17-0.08,1.72,0.25c0.54,0.22,0.9,0.63,1.06,1.23
			c0.16,0.6,0.13,1.17-0.08,1.72c-1.86,3.6-3.76,7.61-5.73,12.03c-1.96,4.42-3.71,8.62-5.24,12.6c-1.53,3.98-2.65,7.55-3.35,10.72
			c-0.71,3.17-0.79,5.29-0.25,6.38v0.33h0.16c1.42,0.22,3.24-0.57,5.48-2.37c2.23-1.8,4.61-4.12,7.12-6.95
			c2.51-2.84,5.02-6,7.53-9.49c2.51-3.49,4.75-6.82,6.71-9.98c0.33-0.54,0.79-0.87,1.39-0.98C147.4,133.9,147.97,134,148.52,134.33z
			 M137.07,111.92c-0.87,0-1.64-0.33-2.29-0.98s-0.98-1.42-0.98-2.29c0-0.87,0.33-1.64,0.98-2.29c0.65-0.66,1.42-0.98,2.29-0.98
			c0.87,0,1.64,0.33,2.29,0.98c0.65,0.65,0.98,1.42,0.98,2.29c0,0.88-0.33,1.64-0.98,2.29S137.94,111.92,137.07,111.92z"/>
		<path class="st0" d="M144.92,165.75c-0.11,0-0.22-0.03-0.33-0.08c-0.11-0.05-0.27-0.08-0.49-0.08c-1.64-0.54-2.89-1.64-3.76-3.27
			c-0.76-1.64-0.95-3.85-0.57-6.63c0.38-2.78,1.06-5.78,2.04-9c0.98-3.22,2.15-6.54,3.52-9.98c1.36-3.44,2.7-6.6,4.01-9.49
			c1.31-2.89,2.48-5.37,3.52-7.45c1.04-2.07,1.72-3.44,2.04-4.09c0.76-1.31,1.74-1.64,2.95-0.98c1.42,0.76,1.74,1.75,0.98,2.94
			c-1.75,3.38-3.6,7.23-5.56,11.54c-1.96,4.31-3.71,8.54-5.24,12.68c-1.53,4.15-2.67,7.94-3.44,11.37
			c-0.76,3.44-0.82,5.86-0.16,7.28c0.11,0.22,0.22,0.38,0.33,0.49c0.11,0.11,0.22,0.22,0.33,0.33c0.65-0.11,1.61-0.84,2.86-2.21
			c1.25-1.36,2.64-2.97,4.17-4.83c1.53-1.85,3.08-3.82,4.66-5.89c1.58-2.07,2.97-3.93,4.17-5.56c2.18-3.05,4.06-5.62,5.65-7.69
			c1.58-2.07,2.97-3.74,4.17-4.99c1.2-1.25,2.21-2.15,3.03-2.7c0.82-0.54,1.61-0.82,2.37-0.82c0.87,0,1.69,0.38,2.45,1.15
			c0.87,0.88,1.28,2.21,1.23,4.01c-0.06,1.8-0.25,4.17-0.57,7.12c-0.22,2.18-0.41,4.56-0.57,7.12c-0.16,2.56,0.14,4.23,0.9,4.99
			c0,0.22,0.16,0.33,0.49,0.33c1.2,0,2.83-0.6,4.91-1.8c2.07-1.2,4.28-2.7,6.63-4.5c2.34-1.8,4.69-3.76,7.04-5.89
			c2.34-2.13,4.34-4.06,5.97-5.81c1.09-1.09,2.13-1.15,3.11-0.16c0.54,0.44,0.82,0.96,0.82,1.55c0,0.6-0.22,1.12-0.65,1.55
			c-0.87,0.87-2.4,2.37-4.58,4.5c-2.18,2.13-4.66,4.31-7.44,6.54c-2.78,2.24-5.62,4.2-8.51,5.89c-2.89,1.69-5.37,2.54-7.44,2.54
			c-1.64-0.22-2.89-0.82-3.76-1.8c-1.31-1.53-1.94-3.71-1.88-6.54c0.05-2.83,0.3-5.83,0.74-9c0.11-1.09,0.22-2.26,0.33-3.52
			c0.11-1.25,0.16-2.32,0.16-3.19c-1.2,1.09-2.89,3.03-5.07,5.81c-2.18,2.78-4.2,5.43-6.05,7.94c-5.13,6.87-9.14,11.97-12.03,15.3
			C149.47,164.09,146.99,165.75,144.92,165.75z"/>
		<path class="st0" d="M230.82,134.33c0.54,0.33,0.87,0.79,0.98,1.39c0.11,0.6,0.05,1.17-0.16,1.72c-0.55,0.87-1.45,2.24-2.7,4.09
			c-1.25,1.86-2.7,3.93-4.34,6.22c-1.64,2.29-3.46,4.64-5.48,7.04c-2.02,2.4-4.04,4.61-6.05,6.63c-2.02,2.02-4.07,3.66-6.14,4.91
			c-2.07,1.25-3.98,1.88-5.73,1.88h-1.15c-1.64-0.33-2.78-1.25-3.44-2.78c-0.65-1.42-0.84-3.38-0.57-5.89
			c0.27-2.51,0.87-5.29,1.8-8.34c0.93-3.05,2.04-6.22,3.35-9.49c1.31-3.27,2.62-6.38,3.93-9.33c1.31-2.95,2.54-5.54,3.68-7.77
			c1.14-2.23,1.99-3.9,2.54-4.99c0.22-0.54,0.63-0.9,1.23-1.06c0.6-0.16,1.17-0.08,1.72,0.25c0.54,0.22,0.9,0.63,1.06,1.23
			c0.16,0.6,0.13,1.17-0.08,1.72c-1.86,3.6-3.76,7.61-5.73,12.03c-1.96,4.42-3.71,8.62-5.24,12.6c-1.53,3.98-2.65,7.55-3.35,10.72
			c-0.71,3.17-0.79,5.29-0.25,6.38v0.33h0.16c1.42,0.22,3.24-0.57,5.48-2.37c2.23-1.8,4.61-4.12,7.12-6.95
			c2.51-2.84,5.02-6,7.53-9.49c2.51-3.49,4.75-6.82,6.71-9.98c0.33-0.54,0.79-0.87,1.39-0.98C229.7,133.9,230.27,134,230.82,134.33z
			 M219.37,111.92c-0.87,0-1.64-0.33-2.29-0.98s-0.98-1.42-0.98-2.29c0-0.87,0.33-1.64,0.98-2.29c0.65-0.66,1.42-0.98,2.29-0.98
			c0.87,0,1.64,0.33,2.29,0.98c0.65,0.65,0.98,1.42,0.98,2.29c0,0.88-0.33,1.64-0.98,2.29S220.24,111.92,219.37,111.92z"/>
		<path class="st0" d="M225.75,175.89c-0.44,0-1.09-0.11-1.96-0.33c-3.49-1.2-5.07-5.02-4.75-11.45c0.33-5.24,1.28-10.25,2.86-15.05
			c1.58-4.8,3.52-9.13,5.81-13.01c2.29-3.87,4.75-7.2,7.36-9.98s5.07-4.77,7.36-5.97c1.85-0.98,3.38-1.45,4.58-1.39
			c1.2,0.06,2.13,0.3,2.78,0.74c1.85,1.09,2.97,2.73,3.35,4.91c0.38,2.18,0.41,4.42,0.08,6.71c-0.33,2.29-0.79,4.36-1.39,6.22
			c-0.6,1.86-1.01,3-1.23,3.44c-0.22,0.55-0.57,0.96-1.06,1.23c-0.49,0.27-1.01,0.3-1.55,0.08c-0.55-0.22-0.93-0.6-1.14-1.15
			c-0.22-0.54-0.22-1.09,0-1.64c0.43-1.09,0.87-2.46,1.31-4.09c0.43-1.64,0.76-3.27,0.98-4.91c0.22-1.64,0.25-3.11,0.08-4.42
			c-0.16-1.31-0.68-2.23-1.55-2.78c-0.44-0.33-1.53-0.11-3.27,0.66c-2.07,1.2-4.28,3.05-6.63,5.56c-2.35,2.51-4.56,5.56-6.63,9.16
			c-2.07,3.6-3.84,7.58-5.32,11.94c-1.47,4.36-2.32,9-2.54,13.91c-0.33,4.36,0.27,6.76,1.8,7.2c1.64,0.55,4.17-0.35,7.61-2.7
			c3.44-2.34,7.17-5.42,11.21-9.24c4.03-3.82,8.02-8.04,11.94-12.68c3.93-4.64,7.2-8.92,9.82-12.84c0.22-0.54,0.6-0.84,1.14-0.9
			c0.54-0.05,1.09,0.08,1.64,0.41c0.54,0.33,0.87,0.76,0.98,1.31c0.11,0.55,0,1.04-0.33,1.47c-0.98,1.53-2.45,3.55-4.42,6.05
			c-1.96,2.51-4.2,5.24-6.71,8.18c-2.51,2.95-5.21,5.92-8.1,8.92c-2.89,3-5.78,5.73-8.67,8.18c-2.89,2.45-5.67,4.45-8.34,5.97
			C230.19,175.13,227.82,175.89,225.75,175.89z"/>
		<path class="st0" d="M292.67,134.33c0.54,0.33,0.87,0.79,0.98,1.39c0.11,0.6,0.05,1.17-0.16,1.72c-0.55,0.87-1.45,2.24-2.7,4.09
			c-1.25,1.86-2.7,3.93-4.34,6.22c-1.64,2.29-3.46,4.64-5.48,7.04c-2.02,2.4-4.04,4.61-6.05,6.63c-2.02,2.02-4.07,3.66-6.14,4.91
			c-2.07,1.25-3.98,1.88-5.73,1.88h-1.15c-1.64-0.33-2.78-1.25-3.44-2.78c-0.65-1.42-0.84-3.38-0.57-5.89
			c0.27-2.51,0.87-5.29,1.8-8.34c0.93-3.05,2.04-6.22,3.35-9.49c1.31-3.27,2.62-6.38,3.93-9.33c1.31-2.95,2.54-5.54,3.68-7.77
			c1.14-2.23,1.99-3.9,2.54-4.99c0.22-0.54,0.63-0.9,1.23-1.06c0.6-0.16,1.17-0.08,1.72,0.25c0.54,0.22,0.9,0.63,1.06,1.23
			c0.16,0.6,0.13,1.17-0.08,1.72c-1.86,3.6-3.76,7.61-5.73,12.03c-1.96,4.42-3.71,8.62-5.24,12.6c-1.53,3.98-2.65,7.55-3.35,10.72
			c-0.71,3.17-0.79,5.29-0.25,6.38v0.33h0.16c1.42,0.22,3.24-0.57,5.48-2.37c2.23-1.8,4.61-4.12,7.12-6.95
			c2.51-2.84,5.02-6,7.53-9.49c2.51-3.49,4.75-6.82,6.71-9.98c0.33-0.54,0.79-0.87,1.39-0.98C291.54,133.9,292.12,134,292.67,134.33
			z M281.21,111.92c-0.87,0-1.64-0.33-2.29-0.98s-0.98-1.42-0.98-2.29c0-0.87,0.33-1.64,0.98-2.29c0.65-0.66,1.42-0.98,2.29-0.98
			c0.87,0,1.64,0.33,2.29,0.98c0.65,0.65,0.98,1.42,0.98,2.29c0,0.88-0.33,1.64-0.98,2.29S282.08,111.92,281.21,111.92z"/>
		<path class="st0" d="M290.38,169.51c-1.31,0-2.4-0.27-3.27-0.82c-1.53-0.98-2.67-2.54-3.44-4.66c-0.76-2.13-1.09-4.61-0.98-7.44
			c0.11-2.84,0.6-5.86,1.47-9.08c0.87-3.22,2.13-6.35,3.76-9.41c4.47-8.62,9.05-14.94,13.74-18.98c4.69-4.03,8.62-6.38,11.78-7.04
			c1.64-0.33,3-0.33,4.09,0c1.09,0.33,1.91,0.71,2.46,1.15c1.09,0.98,1.83,2.04,2.21,3.19c0.38,1.15,0.49,2.29,0.33,3.44
			c-0.16,1.15-0.47,2.21-0.9,3.19c-0.44,0.98-0.87,1.8-1.31,2.46c-0.76,1.09-1.75,1.25-2.95,0.49c-1.09-0.76-1.26-1.74-0.49-2.95
			c0.65-0.98,1.09-1.8,1.31-2.45c0.22-0.65,0.27-1.36,0.16-2.13c-0.11-0.76-0.49-1.42-1.15-1.96c-0.55-0.54-1.53-0.66-2.95-0.33
			c-2.62,0.55-6,2.65-10.14,6.3c-4.15,3.66-8.34,9.52-12.6,17.59c-1.53,2.84-2.65,5.65-3.35,8.43c-0.71,2.78-1.12,5.32-1.23,7.61
			c-0.11,2.29,0.03,4.25,0.41,5.89c0.38,1.64,1.01,2.67,1.88,3.11c0.87,0.55,2.43,0.14,4.66-1.23c2.23-1.36,4.99-4.44,8.26-9.25
			c3.49-5.02,6.41-9.3,8.75-12.84c2.34-3.54,4.25-6.54,5.73-9c1.47-2.46,2.59-4.42,3.35-5.89c0.76-1.47,1.31-2.59,1.64-3.35
			c0.22-0.43,0.35-0.79,0.41-1.06c0.05-0.27,0.14-0.52,0.25-0.74c0.22-0.54,0.54-0.93,0.98-1.15c0.43-0.22,0.92-0.27,1.47-0.16
			c1.2,0.44,1.69,1.25,1.47,2.45c0,0.22-0.22,0.93-0.65,2.13c-0.55,1.64-1.15,3.57-1.8,5.81c-0.65,2.24-1.17,4.5-1.55,6.79
			c-0.38,2.29-0.55,4.5-0.49,6.63c0.05,2.13,0.46,3.84,1.23,5.15c0.66,1.09,1.74,1.75,3.27,1.96c2.4,0.33,4.93-0.22,7.61-1.64
			c2.67-1.42,5.21-3.19,7.61-5.32c2.4-2.13,4.55-4.34,6.46-6.63c1.91-2.29,3.35-4.14,4.34-5.56c0.33-0.54,0.76-0.84,1.31-0.9
			c0.54-0.05,1.04,0.08,1.47,0.41c1.2,0.76,1.42,1.75,0.65,2.95c-0.22,0.22-1.23,1.5-3.03,3.85c-1.8,2.35-4.09,4.85-6.87,7.53
			c-2.78,2.67-5.92,5.05-9.41,7.12c-3.49,2.07-7.04,2.89-10.63,2.45c-2.73-0.33-4.86-1.69-6.38-4.09c-0.98-1.64-1.55-3.57-1.72-5.81
			c-0.16-2.23-0.08-4.61,0.25-7.12c-1.53,2.29-3.27,4.96-5.24,8.02c-1.96,3.06-4.31,6.49-7.04,10.31c-3.38,4.91-6.33,8.24-8.83,9.98
			C294.25,168.64,292.12,169.51,290.38,169.51z"/>
		<path class="st0" d="M336.51,191.76h-0.16c-0.54-0.11-1.04-0.38-1.47-0.82c-0.43-0.44-0.6-0.93-0.49-1.47
			c0.22-2.51,1.06-6.41,2.54-11.7c1.47-5.29,3.35-11.4,5.65-18.33c2.29-6.93,4.88-14.4,7.77-22.42c2.89-8.02,5.81-16.06,8.75-24.13
			c2.95-8.07,5.86-15.9,8.75-23.48c2.89-7.58,5.48-14.34,7.77-20.29c2.29-5.94,4.2-10.83,5.73-14.64c1.53-3.82,2.4-6.05,2.62-6.71
			c0.22-0.54,0.6-0.95,1.15-1.23c0.54-0.27,1.09-0.3,1.64-0.08c0.54,0.22,0.95,0.6,1.23,1.15c0.27,0.55,0.3,1.09,0.08,1.64
			c-0.11,0.22-0.85,2.1-2.21,5.64c-1.37,3.55-3.19,8.26-5.48,14.15s-4.85,12.6-7.69,20.12c-2.84,7.53-5.78,15.35-8.83,23.48
			c-3.06,8.13-6.03,16.28-8.92,24.46c-2.89,8.18-5.51,15.76-7.85,22.74c-2.34,6.98-4.28,13.12-5.81,18.41
			c-1.53,5.29-2.4,9.13-2.62,11.54C338.64,191.11,337.93,191.76,336.51,191.76z"/>
	</g>
</g>
</svg>
