<?xml version="1.0" encoding="utf-8"?>
<!-- Generator: Adobe Illustrator 23.0.1, SVG Export Plug-In . SVG Version: 6.00 Build 0)  -->
<svg version="1.1" id="Capa_1" xmlns="http://www.w3.org/2000/svg" xmlns:xlink="http://www.w3.org/1999/xlink" x="0px" y="0px"
	 viewBox="0 0 380 310" style="enable-background:new 0 0 380 310;" xml:space="preserve">
<style type="text/css">
	.st0{fill:#66CAA6;}
</style>
<g>
	<g>
		<path class="st0" d="M34.11,153.38L6.7,105.68h14.58l19.2,33.56l19.25-33.56h14.58l-27.52,47.7v36.28H34.11V153.38z"/>
		<path class="st0" d="M75.56,147.29c0-11.82,4.33-21.98,13-30.46c8.63-8.49,19-12.73,31.11-12.73c11.97,0,22.23,4.28,30.79,12.84
			c8.59,8.56,12.89,18.84,12.89,30.84c0,12.08-4.32,22.32-12.95,30.73c-8.67,8.45-19.13,12.67-31.38,12.67
			c-10.84,0-20.58-3.75-29.21-11.26C80.31,171.62,75.56,160.75,75.56,147.29z M88.34,147.45c0,9.28,3.12,16.92,9.36,22.9
			c6.2,5.98,13.36,8.97,21.49,8.97c8.81,0,16.25-3.05,22.3-9.14c6.06-6.16,9.08-13.67,9.08-22.52c0-8.96-2.99-16.46-8.98-22.52
			c-5.95-6.09-13.31-9.14-22.08-9.14c-8.74,0-16.12,3.05-22.14,9.14C91.35,131.17,88.34,138.61,88.34,147.45z"/>
		<path class="st0" d="M222.48,145.93h34.7v2.77c0,6.31-0.74,11.89-2.23,16.75c-1.45,4.5-3.9,8.7-7.34,12.62
			c-7.8,8.78-17.71,13.16-29.75,13.16c-11.75,0-21.81-4.24-30.19-12.73c-8.38-8.52-12.56-18.75-12.56-30.68
			c0-12.18,4.26-22.52,12.78-31c8.52-8.52,18.89-12.78,31.11-12.78c6.56,0,12.69,1.34,18.39,4.02c5.44,2.68,10.79,7.04,16.05,13.05
			l-9.03,8.65c-6.89-9.17-15.29-13.76-25.18-13.76c-8.88,0-16.34,3.07-22.36,9.19c-6.02,6.02-9.03,13.56-9.03,22.63
			c0,9.36,3.35,17.06,10.06,23.12c6.27,5.62,13.07,8.43,20.4,8.43c6.24,0,11.84-2.1,16.81-6.31c4.97-4.24,7.74-9.32,8.32-15.23
			h-20.94V145.93z"/>
		<path class="st0" d="M285.8,105.68v50.59c0,7.22,1.18,12.49,3.54,15.83c3.52,4.82,8.47,7.23,14.85,7.23
			c6.42,0,11.39-2.41,14.9-7.23c2.36-3.23,3.54-8.5,3.54-15.83v-50.59h12.67v54.07c0,8.85-2.76,16.14-8.27,21.87
			c-6.2,6.38-13.82,9.57-22.85,9.57s-16.63-3.19-22.79-9.57c-5.51-5.73-8.27-13.02-8.27-21.87v-54.07H285.8z"/>
		<path class="st0" d="M368.09,105.68v83.98h-12.67v-83.98H368.09z"/>
	</g>
	<g>
		<g>
			<path class="st0" d="M125.48,71.73H89.53l-9.36,20.4H66.52l41.56-89.26l40.09,89.26H134.3L125.48,71.73z M120.32,59.81
				l-12.46-28.56L94.81,59.81H120.32z"/>
			<path class="st0" d="M205.01,20.05h-33.67v20.18h32.69v11.91h-32.69v28.07h33.67v11.91h-46.34V8.14h46.34V20.05z"/>
			<path class="st0" d="M250.1,56.33l26,35.79h-15.5l-23.99-34.38h-2.28v34.38h-12.67V8.14h14.85c11.1,0,19.11,2.08,24.04,6.25
				c5.44,4.64,8.16,10.77,8.16,18.39c0,5.95-1.71,11.06-5.11,15.34C260.18,52.4,255.69,55.14,250.1,56.33z M234.33,46.71h4.02
				c12,0,18-4.59,18-13.76c0-8.59-5.84-12.89-17.51-12.89h-4.51V46.71z"/>
			<path class="st0" d="M282.63,49.75c0-11.82,4.33-21.98,13-30.46c8.63-8.49,19-12.73,31.11-12.73c11.97,0,22.23,4.28,30.79,12.84
				c8.59,8.56,12.89,18.84,12.89,30.84c0,12.08-4.32,22.32-12.95,30.73c-8.67,8.45-19.13,12.67-31.38,12.67
				c-10.84,0-20.58-3.75-29.21-11.26C287.38,74.08,282.63,63.21,282.63,49.75z M295.41,49.91c0,9.28,3.12,16.92,9.36,22.9
				c6.2,5.98,13.36,8.97,21.49,8.97c8.81,0,16.25-3.05,22.3-9.14c6.06-6.16,9.08-13.67,9.08-22.52c0-8.96-2.99-16.46-8.98-22.52
				c-5.95-6.09-13.31-9.14-22.08-9.14c-8.74,0-16.12,3.05-22.14,9.14C298.42,33.63,295.41,41.07,295.41,49.91z"/>
		</g>
	</g>
	<g>
		<path class="st0" d="M182,304.88h-0.16c-0.54-0.11-1.03-0.38-1.47-0.81c-0.43-0.44-0.6-0.92-0.49-1.47
			c0.22-2.5,1.06-6.38,2.53-11.65c1.47-5.27,3.34-11.36,5.62-18.26s4.86-14.34,7.74-22.33c2.88-7.99,5.79-16,8.72-24.04
			c2.93-8.04,5.84-15.84,8.72-23.39c2.88-7.55,5.46-14.29,7.74-20.21c2.28-5.92,4.18-10.78,5.71-14.59c1.52-3.8,2.39-6.03,2.61-6.68
			c0.22-0.54,0.6-0.95,1.14-1.22c0.54-0.27,1.08-0.3,1.63-0.08c0.54,0.22,0.95,0.6,1.22,1.14c0.27,0.55,0.3,1.09,0.08,1.63
			c-0.11,0.22-0.84,2.09-2.2,5.62c-1.36,3.53-3.18,8.23-5.46,14.1c-2.28,5.87-4.84,12.55-7.66,20.05c-2.83,7.5-5.76,15.3-8.8,23.39
			c-3.04,8.1-6,16.22-8.88,24.37c-2.88,8.15-5.49,15.7-7.82,22.66c-2.34,6.96-4.26,13.07-5.79,18.34c-1.52,5.27-2.39,9.1-2.61,11.49
			C184.12,304.23,183.42,304.88,182,304.88z"/>
		<path class="st0" d="M240.36,247.67c0.54,0.33,0.87,0.79,0.98,1.39c0.11,0.6,0.05,1.17-0.16,1.71c-0.54,0.87-1.44,2.23-2.69,4.07
			c-1.25,1.85-2.69,3.91-4.32,6.2c-1.63,2.28-3.45,4.62-5.46,7.01c-2.01,2.39-4.02,4.59-6.03,6.6c-2.01,2.01-4.05,3.64-6.11,4.89
			c-2.07,1.25-3.97,1.88-5.71,1.88h-1.14c-1.63-0.33-2.77-1.25-3.42-2.77c-0.65-1.41-0.84-3.37-0.57-5.87
			c0.27-2.5,0.87-5.27,1.79-8.31c0.92-3.04,2.04-6.19,3.34-9.45c1.3-3.26,2.61-6.36,3.91-9.29c1.3-2.94,2.53-5.51,3.67-7.74
			c1.14-2.23,1.98-3.88,2.53-4.97c0.22-0.54,0.62-0.9,1.22-1.06c0.6-0.16,1.17-0.08,1.71,0.24c0.54,0.22,0.9,0.63,1.06,1.22
			c0.16,0.6,0.13,1.17-0.08,1.71c-1.85,3.59-3.75,7.58-5.71,11.98s-3.7,8.59-5.22,12.55c-1.52,3.97-2.64,7.53-3.34,10.68
			c-0.71,3.15-0.79,5.27-0.24,6.36v0.33h0.16c1.41,0.22,3.23-0.57,5.46-2.36c2.23-1.79,4.59-4.1,7.09-6.93c2.5-2.82,5-5.97,7.5-9.45
			c2.5-3.48,4.73-6.79,6.68-9.94c0.33-0.54,0.79-0.87,1.38-0.98C239.24,247.24,239.81,247.34,240.36,247.67z M228.95,225.34
			c-0.87,0-1.63-0.33-2.28-0.98c-0.65-0.65-0.98-1.41-0.98-2.28c0-0.87,0.33-1.63,0.98-2.28c0.65-0.65,1.41-0.98,2.28-0.98
			c0.87,0,1.63,0.33,2.28,0.98c0.65,0.65,0.98,1.41,0.98,2.28c0,0.87-0.33,1.63-0.98,2.28
			C230.58,225.01,229.82,225.34,228.95,225.34z"/>
		<path class="st0" d="M223.08,294.29c-0.33,0-0.6-0.06-0.82-0.16c-1.19-0.44-1.57-1.25-1.14-2.45c1.09-4.13,2.55-8.72,4.4-13.77
			c1.85-5.05,3.91-10.32,6.19-15.81c2.28-5.49,4.7-11.03,7.25-16.63c2.55-5.59,5.08-11.08,7.58-16.46
			c2.5-5.38,4.94-10.46,7.33-15.24c2.39-4.78,4.56-9.13,6.52-13.04c4.89-9.56,9.21-17.87,12.96-24.94
			c3.75-7.06,6.6-12.33,8.56-15.81c2.39-4.34,4.32-7.74,5.79-10.19c1.47-2.45,2.55-4.26,3.26-5.46c0.71-1.2,1.19-1.93,1.47-2.2
			c0.27-0.27,0.51-0.46,0.73-0.57c0.76-0.22,1.36-0.22,1.79,0c0.65,0.22,1.08,0.71,1.3,1.47c0.11,0.22,0.16,0.52,0.16,0.9
			c0,0.38-0.14,0.98-0.41,1.79c-0.27,0.82-0.81,1.96-1.63,3.42c-0.82,1.47-1.98,3.4-3.5,5.79c-0.33,0.76-0.98,1.03-1.96,0.81
			c-2.17,3.91-4.78,8.67-7.82,14.26c-3.04,5.6-6.28,11.71-9.7,18.34c-3.42,6.63-6.98,13.64-10.68,21.03
			c-3.7,7.39-7.31,14.81-10.84,22.25c-3.53,7.44-6.9,14.81-10.11,22.09c-3.21,7.28-6,14.13-8.39,20.54
			c2.93-4.56,6.22-9.43,9.86-14.59c3.64-5.16,7.42-9.8,11.33-13.94c3.91-4.13,7.8-7.39,11.65-9.78c3.86-2.39,7.42-3.15,10.68-2.28
			c2.61,0.65,4.13,2.28,4.56,4.89c0.43,2.28,0.03,5.05-1.22,8.31c-1.25,3.26-3.07,6.63-5.46,10.11c-2.39,3.48-5.13,6.88-8.23,10.19
			c-3.1,3.32-6.17,6.17-9.21,8.56c-9.45,7.17-17.39,9.18-23.8,6.03c-1.96,3.37-3.53,6.11-4.73,8.23c-1.19,2.12-1.85,3.23-1.96,3.34
			C224.55,293.96,223.95,294.29,223.08,294.29z M233.84,278.15c1.63,0.65,3.31,0.87,5.05,0.65c1.74-0.22,3.45-0.65,5.13-1.3
			c1.68-0.65,3.29-1.44,4.81-2.37c1.52-0.92,2.88-1.82,4.08-2.69c3.26-2.5,6.33-5.35,9.21-8.56c2.88-3.2,5.35-6.36,7.42-9.45
			c2.06-3.1,3.64-6,4.73-8.72c1.08-2.71,1.47-4.83,1.14-6.36c-0.11-0.87-0.6-1.47-1.47-1.79c-0.98-0.22-2.26-0.13-3.83,0.24
			c-1.58,0.38-3.59,1.41-6.03,3.1c-2.44,1.69-5.35,4.29-8.72,7.82c-3.37,3.53-7.23,8.39-11.57,14.59c-1.85,2.5-3.59,5.03-5.22,7.58
			C236.94,273.45,235.36,275.87,233.84,278.15z"/>
		<path class="st0" d="M278.82,288.09c-1.19,0-2.01-0.49-2.44-1.47c-0.22-0.33-0.41-0.84-0.57-1.55c-0.16-0.71-0.14-2.01,0.08-3.91
			c0.22-1.9,0.76-4.62,1.63-8.15c0.87-3.53,2.23-8.29,4.08-14.26c0.87-2.82,1.76-5.6,2.69-8.31c0.92-2.71,1.74-5.11,2.45-7.17
			c0.71-2.06,1.55-4.4,2.53-7.01c0.22-0.54,0.6-0.95,1.14-1.22c0.54-0.27,1.08-0.3,1.63-0.08c0.54,0.22,0.95,0.62,1.22,1.22
			c0.27,0.6,0.3,1.17,0.08,1.71c-1.52,4.02-2.99,8.12-4.4,12.31c-1.41,4.18-2.69,8.18-3.83,11.98c-1.14,3.8-2.12,7.31-2.93,10.51
			c-0.81,3.21-1.39,5.84-1.71,7.9c0.76-1.41,1.63-3.07,2.61-4.97c0.98-1.9,1.9-3.78,2.77-5.62c2.39-4.78,4.75-9.35,7.09-13.69
			c2.34-4.34,4.62-8.18,6.85-11.49c2.23-3.31,4.45-6.06,6.68-8.23c2.23-2.17,4.48-3.53,6.76-4.07l0.16-0.16
			c0.76-0.11,1.36-0.05,1.79,0.16c0.43,0.22,0.76,0.44,0.98,0.65c0.76,0.76,1.11,1.74,1.06,2.93c-0.06,1.2-0.19,2.55-0.41,4.07
			c-0.22,1.41-0.41,2.96-0.57,4.65c-0.16,1.69,0.13,2.8,0.9,3.34c0.22,0.22,0.79,0.38,1.71,0.49c0.92,0.11,2.58-0.27,4.97-1.14
			c1.41-0.43,2.34,0.05,2.77,1.47c0.22,0.54,0.19,1.09-0.08,1.63c-0.27,0.54-0.68,0.93-1.22,1.14c-5.11,1.85-8.8,1.79-11.08-0.16
			c-1.63-1.41-2.42-3.23-2.36-5.46c0.05-2.22,0.25-4.43,0.57-6.6c0-0.54,0.11-1.25,0.33-2.12c-1.85,0.98-3.8,2.75-5.87,5.3
			c-2.07,2.55-4.07,5.49-6.03,8.8c-1.96,3.32-3.89,6.79-5.79,10.43c-1.9,3.64-3.61,6.98-5.13,10.02c-1.63,3.15-2.99,5.76-4.08,7.82
			c-1.09,2.07-2.04,3.72-2.85,4.97c-0.82,1.25-1.52,2.12-2.12,2.61c-0.6,0.49-1.22,0.73-1.88,0.73H278.82z"/>
		<path class="st0" d="M336.36,284.18c-1.09,0-1.85-0.05-2.28-0.16c-4.78-0.98-7.82-4.08-9.13-9.29c-0.65-2.82-0.71-6-0.16-9.54
			c0.54-3.53,1.5-7.09,2.85-10.68s3.1-6.95,5.22-10.11c2.12-3.15,4.48-5.76,7.09-7.82c3.8-3.04,6.76-4.59,8.88-4.64
			c2.12-0.05,3.67,0.35,4.65,1.22c1.63,1.74,2.09,4.1,1.39,7.09c-0.71,2.99-1.98,5.73-3.83,8.23c-1.74,2.28-3.67,4.02-5.79,5.22
			c-2.12,1.2-4.16,2.04-6.11,2.53c-1.96,0.49-3.61,0.76-4.97,0.81c-1.36,0.06-2.09,0.08-2.2,0.08c-0.11,0-0.22-0.03-0.33-0.08
			c-0.11-0.05-0.22-0.08-0.33-0.08c-1.2,3.04-1.98,6.03-2.36,8.96c-0.38,2.93-0.3,5.54,0.25,7.82c0.76,3.37,2.66,5.38,5.7,6.03
			c2.72,0.54,5.65-0.33,8.8-2.61c3.15-2.28,6.22-5.19,9.21-8.72c2.99-3.53,5.68-7.17,8.07-10.92c2.39-3.75,4.24-6.82,5.54-9.21
			c0.76-1.3,1.74-1.63,2.93-0.98c1.3,0.76,1.63,1.74,0.98,2.93c-0.33,0.65-1.03,1.93-2.12,3.83c-1.09,1.9-2.47,4.1-4.16,6.6
			c-1.69,2.5-3.59,5.13-5.71,7.9s-4.4,5.3-6.85,7.58s-4.97,4.18-7.58,5.71C341.42,283.42,338.86,284.18,336.36,284.18z
			 M349.73,236.1c-0.54,0-1.38,0.27-2.53,0.81c-1.14,0.54-2.69,1.58-4.65,3.1c-1.85,1.52-3.59,3.4-5.22,5.62
			c-1.63,2.23-3.1,4.64-4.4,7.25c0.65,0,1.55-0.08,2.69-0.24c1.14-0.16,2.42-0.49,3.83-0.98c1.41-0.49,2.82-1.2,4.24-2.12
			c1.41-0.92,2.71-2.14,3.91-3.67c1.63-2.17,2.63-4.18,3.01-6.03c0.38-1.85,0.3-3.04-0.24-3.59h-0.16c-0.11,0-0.19-0.03-0.24-0.08
			C349.92,236.12,349.83,236.1,349.73,236.1z"/>
	</g>
</g>
</svg>
