<?xml version="1.0" encoding="utf-8"?>
<!-- Generator: Adobe Illustrator 23.0.1, SVG Export Plug-In . SVG Version: 6.00 Build 0)  -->
<svg version="1.1" id="Capa_1" xmlns="http://www.w3.org/2000/svg" xmlns:xlink="http://www.w3.org/1999/xlink" x="0px" y="0px"
	 viewBox="0 0 380 200" style="enable-background:new 0 0 380 200;" xml:space="preserve">
<style type="text/css">
	.st0{fill:#8FCBBE;}
</style>
<g>
	<g>
		<path class="st0" d="M34.14,51.21L6.26,2.71h14.82l19.52,34.12L60.19,2.71h14.82L47.03,51.21V88.1H34.14V51.21z"/>
		<path class="st0" d="M76.29,45.02c0-12.02,4.41-22.34,13.22-30.97C98.28,5.42,108.82,1.1,121.14,1.1c12.17,0,22.6,4.35,31.3,13.05
			c8.74,8.7,13.11,19.16,13.11,31.36c0,12.28-4.39,22.7-13.16,31.25c-8.81,8.59-19.45,12.89-31.91,12.89
			c-11.03,0-20.93-3.82-29.7-11.45C81.12,69.76,76.29,58.7,76.29,45.02z M89.28,45.18c0,9.44,3.17,17.2,9.51,23.29
			c6.3,6.08,13.59,9.13,21.85,9.13c8.96,0,16.52-3.1,22.68-9.29c6.16-6.27,9.24-13.9,9.24-22.9c0-9.11-3.04-16.74-9.13-22.9
			c-6.05-6.2-13.53-9.29-22.46-9.29c-8.89,0-16.39,3.1-22.51,9.29C92.34,28.63,89.28,36.19,89.28,45.18z"/>
		<path class="st0" d="M225.67,43.63h35.29v2.82c0,6.42-0.76,12.09-2.27,17.04c-1.47,4.57-3.96,8.85-7.47,12.83
			c-7.93,8.92-18.01,13.38-30.25,13.38c-11.95,0-22.18-4.31-30.7-12.94c-8.52-8.67-12.78-19.06-12.78-31.19
			c0-12.39,4.33-22.9,13-31.53c8.67-8.66,19.21-13,31.64-13c6.67,0,12.91,1.36,18.69,4.09c5.53,2.73,10.97,7.15,16.32,13.27
			l-9.18,8.79c-7.01-9.33-15.54-13.99-25.61-13.99c-9.04,0-16.61,3.12-22.73,9.35c-6.12,6.12-9.18,13.79-9.18,23.01
			c0,9.51,3.41,17.35,10.23,23.51c6.38,5.72,13.29,8.57,20.74,8.57c6.34,0,12.04-2.14,17.09-6.42c5.05-4.31,7.87-9.48,8.46-15.49
			h-21.29V43.63z"/>
		<path class="st0" d="M290.05,2.71v51.44c0,7.34,1.2,12.7,3.59,16.1c3.58,4.9,8.61,7.36,15.1,7.36c6.53,0,11.58-2.45,15.15-7.36
			c2.4-3.28,3.6-8.65,3.6-16.1V2.71h12.89v54.98c0,9-2.8,16.41-8.41,22.23c-6.3,6.49-14.05,9.73-23.23,9.73
			c-9.18,0-16.91-3.24-23.17-9.73c-5.6-5.83-8.41-13.24-8.41-22.23V2.71H290.05z"/>
		<path class="st0" d="M373.74,2.71v85.4h-12.89V2.71H373.74z"/>
	</g>
	<g>
		<path class="st0" d="M172.51,198.95h-0.16c-0.55-0.11-1.04-0.38-1.48-0.82c-0.44-0.44-0.6-0.93-0.49-1.48
			c0.22-2.52,1.07-6.42,2.54-11.73c1.48-5.3,3.36-11.42,5.66-18.37c2.3-6.94,4.89-14.43,7.79-22.47c2.9-8.04,5.82-16.1,8.77-24.19
			c2.95-8.09,5.88-15.93,8.77-23.53c2.9-7.6,5.49-14.38,7.79-20.34c2.3-5.96,4.21-10.85,5.74-14.68c1.53-3.83,2.4-6.07,2.62-6.72
			c0.22-0.54,0.6-0.96,1.15-1.23c0.55-0.27,1.09-0.3,1.64-0.08c0.55,0.22,0.96,0.6,1.23,1.15c0.27,0.55,0.3,1.09,0.08,1.64
			c-0.11,0.22-0.85,2.11-2.21,5.66c-1.37,3.55-3.2,8.28-5.49,14.19c-2.3,5.9-4.87,12.63-7.71,20.17c-2.84,7.54-5.8,15.39-8.86,23.53
			c-3.06,8.15-6.04,16.32-8.94,24.52c-2.9,8.2-5.52,15.8-7.87,22.8c-2.35,7-4.29,13.15-5.82,18.45c-1.53,5.3-2.4,9.16-2.62,11.56
			C174.64,198.3,173.93,198.95,172.51,198.95z"/>
		<path class="st0" d="M231.22,141.39c0.54,0.33,0.87,0.79,0.98,1.39c0.11,0.6,0.05,1.18-0.16,1.72c-0.55,0.88-1.45,2.24-2.71,4.1
			c-1.26,1.86-2.71,3.94-4.35,6.23s-3.47,4.65-5.49,7.05c-2.02,2.41-4.05,4.62-6.07,6.64c-2.02,2.02-4.07,3.66-6.15,4.92
			c-2.08,1.26-3.99,1.89-5.74,1.89h-1.15c-1.64-0.33-2.79-1.25-3.44-2.79c-0.66-1.42-0.85-3.39-0.57-5.9
			c0.27-2.51,0.88-5.3,1.8-8.36c0.93-3.06,2.05-6.23,3.36-9.51c1.31-3.28,2.62-6.4,3.94-9.35c1.31-2.95,2.54-5.55,3.69-7.79
			c1.15-2.24,1.99-3.91,2.54-5c0.22-0.55,0.63-0.9,1.23-1.07c0.6-0.16,1.17-0.08,1.72,0.25c0.55,0.22,0.9,0.63,1.07,1.23
			c0.16,0.6,0.14,1.18-0.08,1.72c-1.86,3.61-3.77,7.63-5.74,12.05s-3.72,8.64-5.25,12.63c-1.53,3.99-2.65,7.57-3.36,10.74
			c-0.71,3.17-0.79,5.3-0.25,6.4v0.33h0.16c1.42,0.22,3.25-0.57,5.49-2.38c2.24-1.8,4.62-4.13,7.13-6.97
			c2.51-2.84,5.03-6.01,7.54-9.51c2.51-3.5,4.76-6.83,6.72-10c0.33-0.55,0.79-0.87,1.39-0.98
			C230.1,140.95,230.68,141.06,231.22,141.39z M219.74,118.92c-0.88,0-1.64-0.33-2.3-0.98c-0.66-0.66-0.98-1.42-0.98-2.3
			c0-0.87,0.33-1.64,0.98-2.3c0.66-0.66,1.42-0.98,2.3-0.98c0.87,0,1.64,0.33,2.3,0.98c0.66,0.66,0.98,1.42,0.98,2.3
			c0,0.88-0.33,1.64-0.98,2.3C221.38,118.59,220.62,118.92,219.74,118.92z"/>
		<path class="st0" d="M213.84,188.29c-0.33,0-0.6-0.06-0.82-0.16c-1.2-0.44-1.58-1.26-1.15-2.46c1.09-4.15,2.57-8.77,4.43-13.86
			c1.86-5.08,3.94-10.39,6.23-15.91c2.3-5.52,4.73-11.1,7.3-16.73c2.57-5.63,5.11-11.15,7.63-16.56c2.51-5.41,4.97-10.52,7.38-15.33
			c2.4-4.81,4.59-9.18,6.56-13.12c4.92-9.62,9.27-17.98,13.04-25.09c3.77-7.11,6.64-12.41,8.61-15.91c2.4-4.37,4.35-7.79,5.82-10.25
			c1.48-2.46,2.57-4.29,3.28-5.49c0.71-1.2,1.2-1.94,1.48-2.21c0.27-0.27,0.52-0.46,0.74-0.57c0.76-0.22,1.37-0.22,1.8,0
			c0.66,0.22,1.09,0.71,1.31,1.48c0.11,0.22,0.16,0.52,0.16,0.9c0,0.38-0.14,0.98-0.41,1.8c-0.27,0.82-0.82,1.97-1.64,3.44
			c-0.82,1.48-2,3.42-3.53,5.82c-0.33,0.77-0.98,1.04-1.97,0.82c-2.19,3.94-4.81,8.72-7.87,14.35c-3.06,5.63-6.31,11.78-9.76,18.45
			c-3.44,6.67-7.03,13.72-10.74,21.16c-3.72,7.44-7.35,14.9-10.91,22.39c-3.55,7.49-6.94,14.9-10.17,22.22
			c-3.23,7.33-6.04,14.21-8.45,20.66c2.95-4.59,6.26-9.48,9.92-14.68c3.66-5.19,7.46-9.87,11.4-14.02
			c3.94-4.15,7.84-7.43,11.73-9.84c3.88-2.4,7.46-3.17,10.74-2.3c2.62,0.66,4.15,2.3,4.59,4.92c0.44,2.3,0.03,5.08-1.23,8.36
			c-1.26,3.28-3.09,6.67-5.49,10.17c-2.41,3.5-5.17,6.92-8.28,10.25c-3.12,3.34-6.21,6.21-9.27,8.61
			c-9.51,7.22-17.49,9.24-23.94,6.07c-1.97,3.39-3.55,6.15-4.76,8.28c-1.2,2.13-1.86,3.25-1.97,3.36
			C215.32,187.96,214.72,188.29,213.84,188.29z M224.66,172.06c1.64,0.66,3.33,0.88,5.08,0.66c1.75-0.22,3.47-0.66,5.17-1.31
			c1.69-0.66,3.31-1.45,4.84-2.38c1.53-0.93,2.9-1.83,4.1-2.71c3.28-2.51,6.37-5.38,9.27-8.61c2.9-3.22,5.38-6.4,7.46-9.51
			c2.08-3.12,3.66-6.04,4.76-8.77c1.09-2.73,1.48-4.86,1.15-6.4c-0.11-0.87-0.6-1.48-1.48-1.8c-0.98-0.22-2.27-0.14-3.85,0.25
			c-1.59,0.38-3.61,1.42-6.07,3.12c-2.46,1.7-5.39,4.32-8.77,7.87c-3.39,3.55-7.27,8.45-11.64,14.68c-1.86,2.52-3.61,5.06-5.25,7.63
			C227.78,167.33,226.19,169.76,224.66,172.06z"/>
		<path class="st0" d="M269.92,182.06c-1.2,0-2.02-0.49-2.46-1.48c-0.22-0.33-0.41-0.85-0.57-1.56c-0.16-0.71-0.14-2.02,0.08-3.94
			c0.22-1.91,0.77-4.65,1.64-8.2c0.88-3.55,2.24-8.34,4.1-14.35c0.87-2.84,1.78-5.63,2.71-8.36c0.93-2.73,1.75-5.14,2.46-7.22
			c0.71-2.08,1.56-4.43,2.54-7.05c0.22-0.55,0.6-0.96,1.15-1.23c0.54-0.27,1.09-0.3,1.64-0.08c0.55,0.22,0.96,0.63,1.23,1.23
			c0.27,0.6,0.3,1.18,0.08,1.72c-1.53,4.05-3.01,8.17-4.43,12.38c-1.42,4.21-2.71,8.23-3.85,12.05c-1.15,3.83-2.13,7.35-2.95,10.58
			c-0.82,3.23-1.39,5.88-1.72,7.95c0.77-1.42,1.64-3.09,2.62-5c0.98-1.91,1.91-3.8,2.79-5.66c2.4-4.81,4.78-9.4,7.13-13.78
			c2.35-4.37,4.65-8.23,6.89-11.56c2.24-3.33,4.48-6.09,6.72-8.28c2.24-2.19,4.51-3.55,6.81-4.1l0.16-0.16
			c0.76-0.11,1.37-0.05,1.8,0.16c0.44,0.22,0.76,0.44,0.98,0.66c0.76,0.77,1.12,1.75,1.07,2.95c-0.06,1.2-0.19,2.57-0.41,4.1
			c-0.22,1.42-0.41,2.98-0.57,4.67c-0.16,1.7,0.14,2.82,0.9,3.36c0.22,0.22,0.79,0.38,1.72,0.49c0.93,0.11,2.6-0.27,5-1.15
			c1.42-0.44,2.35,0.06,2.79,1.48c0.22,0.55,0.19,1.09-0.08,1.64c-0.27,0.55-0.68,0.93-1.23,1.15c-5.14,1.86-8.86,1.8-11.15-0.16
			c-1.64-1.42-2.43-3.25-2.38-5.49c0.05-2.24,0.25-4.45,0.57-6.64c0-0.55,0.11-1.26,0.33-2.13c-1.86,0.98-3.83,2.76-5.9,5.33
			c-2.08,2.57-4.1,5.52-6.07,8.86c-1.97,3.34-3.91,6.83-5.82,10.5c-1.91,3.66-3.64,7.03-5.17,10.09c-1.64,3.17-3.01,5.8-4.1,7.87
			c-1.09,2.08-2.05,3.75-2.87,5c-0.82,1.26-1.53,2.13-2.13,2.62c-0.6,0.49-1.23,0.74-1.89,0.74H269.92z"/>
		<path class="st0" d="M327.82,178.12c-1.09,0-1.86-0.05-2.3-0.16c-4.81-0.98-7.87-4.1-9.18-9.35c-0.66-2.84-0.71-6.04-0.16-9.59
			c0.55-3.55,1.5-7.13,2.87-10.74c1.37-3.61,3.12-7,5.25-10.17c2.13-3.17,4.51-5.79,7.13-7.87c3.83-3.06,6.81-4.62,8.94-4.67
			c2.13-0.05,3.69,0.36,4.67,1.23c1.64,1.75,2.1,4.13,1.39,7.13c-0.71,3.01-2,5.77-3.85,8.28c-1.75,2.3-3.69,4.05-5.82,5.25
			c-2.13,1.2-4.18,2.05-6.15,2.54s-3.64,0.77-5,0.82c-1.37,0.06-2.11,0.08-2.21,0.08c-0.11,0-0.22-0.03-0.33-0.08
			c-0.11-0.05-0.22-0.08-0.33-0.08c-1.2,3.06-2,6.07-2.38,9.02c-0.38,2.95-0.3,5.58,0.25,7.87c0.76,3.39,2.68,5.41,5.74,6.07
			c2.73,0.55,5.68-0.33,8.86-2.62c3.17-2.3,6.26-5.22,9.27-8.77c3.01-3.55,5.71-7.22,8.12-10.99c2.4-3.77,4.26-6.86,5.58-9.27
			c0.76-1.31,1.75-1.64,2.95-0.98c1.31,0.77,1.64,1.75,0.98,2.95c-0.33,0.66-1.04,1.94-2.13,3.85c-1.09,1.91-2.49,4.13-4.18,6.64
			c-1.7,2.52-3.61,5.17-5.74,7.95c-2.13,2.79-4.43,5.33-6.89,7.63s-5,4.21-7.63,5.74C332.9,177.36,330.33,178.12,327.82,178.12z
			 M341.26,129.75c-0.55,0-1.39,0.27-2.54,0.82c-1.15,0.55-2.71,1.59-4.67,3.12c-1.86,1.53-3.61,3.42-5.25,5.66
			c-1.64,2.24-3.12,4.67-4.43,7.3c0.66,0,1.56-0.08,2.71-0.25c1.15-0.16,2.43-0.49,3.85-0.98c1.42-0.49,2.84-1.2,4.26-2.13
			c1.42-0.93,2.73-2.16,3.94-3.69c1.64-2.19,2.65-4.21,3.03-6.07c0.38-1.86,0.3-3.06-0.25-3.61h-0.16c-0.11,0-0.19-0.03-0.25-0.08
			C341.45,129.77,341.37,129.75,341.26,129.75z"/>
	</g>
</g>
</svg>
