<?xml version="1.0" encoding="utf-8"?>
<!-- Generator: Adobe Illustrator 23.0.1, SVG Export Plug-In . SVG Version: 6.00 Build 0)  -->
<svg version="1.1" id="Capa_1" xmlns="http://www.w3.org/2000/svg" xmlns:xlink="http://www.w3.org/1999/xlink" x="0px" y="0px"
	 viewBox="0 0 245 50" style="enable-background:new 0 0 245 50;" xml:space="preserve">
<style type="text/css">
	.st0{fill:#9AD0C4;}
</style>
<g>
	<g>
		<path class="st0" d="M80.16,49.83c-0.11-0.21,0.03-0.37,0.11-0.53c0.49-1.03,0.97-2.08,1.49-3.1c0.21-0.41,0.2-0.74,0-1.15
			c-0.75-1.51-1.47-3.04-2.2-4.57c-0.12-0.24-0.23-0.49-0.33-0.73c0.13-0.25,0.34-0.15,0.52-0.17c0.18-0.01,0.31,0.08,0.39,0.24
			c0.12,0.25,0.23,0.49,0.35,0.74c0.62,1.33,1.23,2.67,1.85,3.99c0.25,0,0.26-0.19,0.32-0.32c0.59-1.26,1.17-2.52,1.76-3.78
			c0.09-0.2,0.18-0.4,0.28-0.59c0.13-0.26,0.59-0.39,0.84-0.23c0.04,0.02,0.07,0.1,0.06,0.14c-0.07,0.18-0.15,0.35-0.23,0.52
			c-1.41,2.95-2.82,5.9-4.22,8.86c-0.11,0.22-0.2,0.45-0.3,0.67C80.6,49.83,80.38,49.83,80.16,49.83z"/>
		<path class="st0" d="M0.08,13.73c0.12,0,0.21-0.04,0.27-0.14c0.11-0.19,0.2-0.39,0.34-0.55c0.52-0.64,1.41-0.83,2.14-0.49
			c0.77,0.36,1.18,1.2,1,2.03c-0.17,0.77-0.9,1.39-1.7,1.4c-0.6,0.01-1.11-0.22-1.49-0.71c-0.13-0.17-0.22-0.38-0.34-0.55
			c-0.05-0.07-0.14-0.04-0.22,0C0.08,14.38,0.08,14.05,0.08,13.73z"/>
		<path class="st0" d="M244.92,14.87c-0.21,0.07-0.19,0.31-0.32,0.45c-0.48,0.55-1.23,0.79-1.92,0.55
			c-0.71-0.24-1.14-0.73-1.23-1.48c-0.1-0.81,0.27-1.48,0.95-1.83c0.7-0.35,1.56-0.2,2.11,0.35c0.15,0.15,0.17,0.4,0.4,0.48
			C244.92,13.89,244.92,14.38,244.92,14.87z"/>
		<path class="st0" d="M172.32,25.9c-6.97,0.09-12.78-5.74-12.78-12.76c0-6.79,5.45-12.83,12.83-12.82
			c7.27,0.01,12.83,5.93,12.79,12.87C185.12,20.48,179.1,26.01,172.32,25.9z M183.27,13.18c0.11-5.97-4.96-10.94-10.83-10.99
			c-5.38-0.05-10.95,4.21-11.02,10.88c-0.06,6.14,4.91,10.94,10.83,10.97C178.91,24.09,183.36,18.52,183.27,13.18z"/>
		<path class="st0" d="M47.73,25.9c-7.02,0.07-12.76-5.82-12.75-12.79c0.01-6.77,5.47-12.82,12.86-12.79
			c7.22,0.03,12.82,5.91,12.76,12.9C60.53,20.55,54.48,26.03,47.73,25.9z M47.78,2.21c-5.43-0.09-10.91,4.34-10.92,10.97
			c-0.01,6.14,5.03,10.89,10.93,10.87c6.58-0.02,10.97-5.55,10.94-10.97C58.7,7.22,53.74,2.13,47.78,2.21z"/>
		<path class="st0" d="M115.92,25.59c-0.45,0.02-0.67-0.19-0.81-0.53c-0.28-0.71-0.58-1.42-0.87-2.12c-0.09-0.23-0.2-0.45-0.28-0.68
			c-0.09-0.27-0.28-0.39-0.56-0.37c-0.14,0.01-0.27,0-0.41,0c-4.43,0-8.86,0-13.29,0c-0.96,0-0.81-0.07-1.17,0.79
			c-0.3,0.73-0.61,1.46-0.92,2.19c-0.12,0.28-0.22,0.59-0.54,0.67c-0.41,0.1-0.82,0.05-1.19-0.16c-0.22-0.12-0.29-0.31-0.21-0.56
			c0.06-0.18,0.14-0.35,0.22-0.53c1.9-4.54,3.79-9.08,5.69-13.61c1.19-2.85,2.38-5.7,3.57-8.55c0.2-0.48,0.42-0.95,0.65-1.42
			c0.12-0.24,0.25-0.54,0.55-0.55c0.36-0.01,0.48,0.31,0.59,0.59c0.45,1.08,0.91,2.17,1.36,3.25c2.83,6.78,5.65,13.57,8.48,20.35
			c0.05,0.13,0.1,0.25,0.16,0.38c0.16,0.33,0.07,0.56-0.3,0.71C116.39,25.56,116.12,25.57,115.92,25.59z M99.64,20
			c0.38,0,0.62,0,0.87,0c3.88,0,7.75,0,11.63,0c0.16,0,0.33,0,0.49,0c0.29-0.01,0.35-0.08,0.24-0.34c-0.67-1.64-1.36-3.27-2.02-4.92
			c-0.14-0.35-0.37-0.41-0.7-0.41c-2.54,0.01-5.08,0.01-7.62,0c-0.38,0-0.59,0.11-0.74,0.48c-0.52,1.32-1.08,2.62-1.62,3.93
			C100,19.1,99.85,19.48,99.64,20z M106.35,4.08c-0.29,0.4-1.74,3.78-3.34,7.78c-0.06,0.14-0.17,0.29-0.06,0.48
			c0.09,0.01,0.2,0.03,0.3,0.03c1.99,0,3.98,0,5.98,0c0.11,0,0.22,0,0.33-0.02c0.12-0.02,0.2-0.1,0.17-0.22
			c-0.04-0.16-0.09-0.31-0.15-0.46c-0.99-2.39-1.98-4.79-2.97-7.18C106.54,4.34,106.49,4.18,106.35,4.08z"/>
		<path class="st0" d="M84.63,14.9c1.04,0,2.08,0,3.12,0c0.19,0,0.38-0.01,0.57,0.01c0.36,0.04,0.52,0.22,0.56,0.59
			c0.01,0.16,0.01,0.33,0.01,0.49c0,2.05,0,4.1,0,6.15c0,0.05-0.01,0.11,0,0.16c0.07,0.5-0.18,0.81-0.56,1.09
			c-1.47,1.09-3.09,1.87-4.88,2.23c-3.78,0.77-7.29,0.14-10.43-2.16c-2.89-2.12-4.65-5.01-5.11-8.56C67,7.91,71.5,2.2,77.57,0.67
			c2.71-0.68,5.37-0.43,7.95,0.64c0.81,0.34,1.6,0.71,2.31,1.24c0.22,0.16,0.44,0.33,0.63,0.53c0.42,0.45,0.22,1.35-0.35,1.6
			c-0.19,0.08-0.38,0.07-0.55-0.03c-0.14-0.08-0.27-0.19-0.4-0.28c-2.09-1.52-4.42-2.26-7-2.12c-5.56,0.29-9.61,4.54-10.37,9.23
			c-0.86,5.36,2.52,10.62,7.65,12.14c2.19,0.65,4.36,0.62,6.52-0.15c0.96-0.34,1.86-0.78,2.73-1.3c0.22-0.14,0.37-0.29,0.37-0.58
			c-0.01-1.48,0-2.95-0.01-4.43c0-0.27-0.09-0.35-0.33-0.36c-0.22-0.01-0.44-0.01-0.66-0.01c-1.53,0-3.06,0-4.59,0
			c-0.22,0-0.44-0.01-0.65-0.04c-0.24-0.04-0.38-0.21-0.44-0.44c-0.02-0.08-0.02-0.16-0.03-0.24c-0.07-0.96,0.11-1.15,1.09-1.16
			C82.5,14.9,83.57,14.9,84.63,14.9z"/>
		<path class="st0" d="M193.52,13.07c0-3.72,0-7.44,0-11.16c0-0.22-0.01-0.44,0.01-0.66c0.03-0.47,0.18-0.61,0.67-0.64
			c0.22-0.01,0.44,0,0.66,0c4.54,0,9.08,0,13.62,0c0.49,0,0.98,0,1.48,0c0.16,0,0.33,0.01,0.49,0.05c0.19,0.05,0.34,0.18,0.37,0.4
			c0.02,0.11,0.02,0.22,0.02,0.33c0.02,0.8-0.03,1.06-1.01,1.06c-4.46-0.01-8.92-0.01-13.37,0c-1.24,0-1.08-0.14-1.08,1.1
			c-0.01,3.53,0,7.06,0,10.58c0,0.97-0.06,0.9,0.87,0.9c3.5,0,7,0,10.5,0c0.25,0,0.49-0.01,0.74,0.02c0.27,0.02,0.45,0.2,0.5,0.47
			c0.02,0.13,0.02,0.27,0.02,0.41c0.01,0.81-0.12,0.95-0.95,0.95c-3.56,0-7.11,0-10.67,0c-1.13,0-1.01-0.12-1.02,1
			c0,2.22-0.02,4.43,0,6.65c0.01,1.06-0.19,1.08-1.16,1.06c-0.11,0-0.22-0.01-0.32-0.04c-0.17-0.04-0.3-0.16-0.32-0.33
			c-0.03-0.27-0.04-0.54-0.04-0.82C193.52,20.62,193.52,16.84,193.52,13.07z"/>
		<path class="st0" d="M224.99,0.61c2.49,0,4.98,0,7.46,0c0.25,0,0.49-0.01,0.74,0.02c0.31,0.04,0.48,0.23,0.53,0.54
			c0.02,0.11,0.01,0.22,0.01,0.33c0,0.75-0.16,0.93-0.9,0.93c-1.86,0.01-3.72,0-5.58,0.01c-1.45,0.01-1.26-0.19-1.27,1.25
			c-0.01,1.07,0,2.13,0,3.2c0,0.37,0.07,0.43,0.43,0.43c0.93,0.01,1.86,0,2.79,0c0.11,0,0.22,0,0.33,0c0.8,0.01,0.93,0.16,0.93,0.98
			c0,0.08,0,0.16,0,0.25c-0.03,0.5-0.22,0.7-0.7,0.72c-0.6,0.02-1.2,0-1.8,0.01c-0.55,0-1.09,0-1.64,0.01
			c-0.19,0-0.31,0.1-0.32,0.29c-0.01,0.25-0.01,0.49-0.01,0.74c0,4.67,0,9.35,0,14.02c0,0.27-0.01,0.55-0.05,0.82
			c-0.04,0.25-0.19,0.38-0.45,0.4c-0.3,0.02-0.6,0.02-0.9,0c-0.24-0.02-0.4-0.18-0.44-0.42c-0.03-0.24-0.03-0.49-0.03-0.74
			c0-4.67,0-9.35,0-14.02c0-1.26,0.16-1.09-1.07-1.1c-0.82-0.01-1.64,0-2.46,0c-0.19,0-0.38,0.01-0.57-0.02
			c-0.24-0.03-0.4-0.18-0.45-0.42c-0.07-0.35-0.07-0.71,0-1.06c0.05-0.27,0.23-0.42,0.52-0.44c0.3-0.02,0.6-0.01,0.9-0.01
			c0.9,0,1.8,0,2.71,0c0.38,0,0.43-0.05,0.43-0.42c0.01-1.01,0.02-2.02,0-3.03c-0.01-0.45,0.13-0.92-0.11-1.36
			c-0.42-0.15-0.86-0.06-1.3-0.07c-1.83-0.01-3.66,0-5.5-0.01c-0.95,0-1.04-0.1-1.02-1.03c0-0.11,0-0.22,0.02-0.33
			c0.03-0.24,0.18-0.4,0.42-0.44c0.24-0.04,0.49-0.03,0.74-0.03C219.9,0.61,222.44,0.61,224.99,0.61z"/>
		<path class="st0" d="M20.83,13.08c0.5-0.84,0.95-1.59,1.4-2.34c1.86-3.13,3.72-6.25,5.56-9.38c0.31-0.54,0.71-0.81,1.32-0.76
			c0.22,0.02,0.44,0.01,0.65,0.04c0.24,0.04,0.37,0.28,0.29,0.5c-0.07,0.18-0.17,0.34-0.26,0.51c-2.53,4.22-5.05,8.45-7.59,12.66
			c-0.31,0.51-0.46,1.01-0.45,1.61c0.02,2.73,0.01,5.47,0.01,8.2c0,0.14,0.01,0.27,0,0.41c-0.02,0.32,0.12,0.72-0.2,0.92
			c-0.41,0.25-0.9,0.17-1.35,0.06c-0.17-0.04-0.25-0.21-0.26-0.38c-0.02-0.25-0.02-0.49-0.02-0.74c0-2.84-0.01-5.69,0.01-8.53
			c0-0.51-0.12-0.95-0.39-1.38c-2.53-4.19-5.04-8.39-7.55-12.59c-0.11-0.19-0.23-0.37-0.33-0.57c-0.16-0.32-0.03-0.64,0.32-0.69
			c0.35-0.04,0.71-0.04,1.06-0.02c0.29,0.02,0.5,0.21,0.65,0.45c0.23,0.37,0.46,0.74,0.68,1.12c1.99,3.37,3.97,6.73,5.96,10.1
			C20.47,12.51,20.62,12.74,20.83,13.08z"/>
		<path class="st0" d="M139.21,13.1c0-3.75,0-7.49,0-11.24c0-0.22-0.01-0.44,0.01-0.66c0.03-0.36,0.2-0.53,0.57-0.58
			c0.13-0.02,0.27-0.01,0.41-0.01c0.71,0.01,0.84,0.15,0.86,0.88c0,0.22,0,0.44,0,0.66c0,6.89,0,13.78,0,20.67
			c0,1.01-0.1,0.93,0.92,0.93c3.64,0,7.27,0,10.91,0c0.25,0,0.49-0.01,0.74,0.02c0.31,0.03,0.5,0.23,0.53,0.53
			c0.02,0.27,0.02,0.55-0.01,0.82c-0.03,0.24-0.18,0.4-0.43,0.43c-0.19,0.03-0.38,0.03-0.57,0.03c-4.29,0-8.59,0-12.88,0
			c-1,0-1.05-0.06-1.05-1.08C139.21,20.7,139.21,16.9,139.21,13.1z"/>
		<path class="st0" d="M160.57,40.27c0.02-0.1,0.04-0.2,0.06-0.31c0.07-0.35,0.1-0.37,0.41-0.37c0.31,0.01,0.38,0.07,0.38,0.39
			c0,1.86,0.03,3.71-0.01,5.57c-0.05,2.25-2.09,3.82-3.84,3.87c-1.41,0.04-2.56-0.41-3.47-1.48c-0.17-0.2-0.13-0.32,0.11-0.43
			c0.27-0.13,0.49-0.14,0.72,0.11c0.56,0.6,1.28,0.92,2.1,0.98c1.7,0.13,2.86-0.93,3.34-2.03c0.02-0.05,0.04-0.1,0.04-0.16
			c0-0.08,0-0.17-0.04-0.23c-0.05-0.07-0.14-0.04-0.21,0.01c-0.11,0.08-0.22,0.16-0.33,0.24c-1.63,1.26-4.4,1.19-5.92-1
			c-1.67-2.42-0.39-5.73,2.5-6.4c1.33-0.31,2.61-0.04,3.67,0.91C160.23,40.05,160.33,40.24,160.57,40.27z M160.62,42.99
			c0.01-0.31,0.02-0.7-0.12-1.06c-0.44-1.14-1.53-2.24-3.23-2.2c-2.11,0.06-3.27,1.88-3.27,3.41c0.01,1.74,1.74,3.93,4.43,3.1
			C159.84,45.8,160.62,44.62,160.62,42.99z M160.47,46.02c0.02-0.02,0.05-0.03,0.05-0.05c0-0.02-0.02-0.04-0.04-0.05
			c-0.02,0.02-0.04,0.05-0.05,0.07C160.44,46,160.46,46.01,160.47,46.02z"/>
		<path class="st0" d="M70.48,45.74c0,0.42,0.01,0.69,0,0.96c-0.01,0.25-0.11,0.33-0.36,0.34c-0.29,0.01-0.41-0.08-0.43-0.36
			c-0.01-0.16-0.01-0.33-0.01-0.49c0-3.47,0-6.94,0-10.41c0-0.14,0-0.27,0-0.41c-0.01-0.38,0.17-0.46,0.53-0.42
			c0.14,0.02,0.26,0.1,0.27,0.26c0.01,0.22,0.01,0.44,0.01,0.65c0,1.45,0,2.89,0,4.33c0.24,0.15,0.31-0.06,0.41-0.16
			c0.94-0.88,2.04-1.21,3.31-1.1c1.8,0.16,3.41,1.65,3.66,3.44c0.23,1.65-0.3,3.02-1.64,4.04c-1.47,1.12-3.57,1.1-5.02-0.05
			C71,46.21,70.81,46.02,70.48,45.74z M70.51,43.2c0,0.12-0.01,0.42,0.01,0.72c0.01,0.13,0.07,0.26,0.12,0.39
			c0.62,1.5,2.15,2.5,4.08,1.97c1.55-0.43,2.87-2.08,2.17-4.3c-0.45-1.42-1.98-2.42-3.6-2.21C71.66,39.97,70.27,41.59,70.51,43.2z"
			/>
		<path class="st0" d="M124.1,40.3c0.15-0.25,0.1-0.47,0.1-0.67c0.01-1.23,0-2.46,0-3.69c0-0.22,0-0.44,0.01-0.66
			c0.02-0.26,0.15-0.36,0.45-0.33c0.18,0.01,0.31,0.09,0.32,0.29c0.01,0.16,0,0.33,0,0.49c0,3.5,0,6.99,0,10.49
			c0,0.14,0,0.27,0,0.41c-0.02,0.34-0.2,0.48-0.54,0.4c-0.12-0.03-0.2-0.1-0.21-0.22c-0.03-0.29-0.05-0.59-0.07-0.88
			c-0.33-0.03-0.44,0.25-0.62,0.39c-1.11,0.86-2.35,1.12-3.7,0.77c-1.83-0.48-3.11-2.16-3.09-4.05c0.01-1.87,1.34-3.6,3.15-4.01
			c1.31-0.29,2.55-0.1,3.63,0.79C123.71,39.97,123.89,40.12,124.1,40.3z M120.93,46.4c1.93,0.08,3.47-1.75,3.29-3.31
			c0.16-1.49-1.16-3.34-3.27-3.35c-2.17-0.01-3.38,1.84-3.38,3.38C117.58,44.75,119.03,46.48,120.93,46.4z"/>
		<path class="st0" d="M98.38,46.37c1.27,0.03,2.32-0.3,3.26-0.97c0.07-0.05,0.13-0.1,0.2-0.15c0.32-0.22,0.34-0.22,0.62,0.04
			c0.2,0.18,0.2,0.29,0,0.46c-0.72,0.62-1.54,1.05-2.46,1.26c-3.17,0.72-5.92-0.84-7.09-3.4c-1.75-3.82,0.57-7.9,4.33-8.67
			c1.87-0.38,3.64-0.01,5.16,1.24c0.1,0.08,0.24,0.16,0.2,0.32c-0.06,0.28-0.48,0.44-0.71,0.29c-0.14-0.09-0.26-0.2-0.4-0.29
			c-1.76-1.11-3.61-1.25-5.45-0.29c-1.86,0.98-2.85,2.57-2.91,4.7c-0.08,2.77,2.04,4.95,4.29,5.37
			C97.79,46.35,98.14,46.36,98.38,46.37z"/>
		<path class="st0" d="M111.21,38.92c2.11-0.02,4.12,1.83,4.06,4.26c-0.06,2.43-2.16,4.15-4.36,4.06c-1.9-0.08-4.04-1.7-3.98-4.28
			C106.99,40.63,108.99,38.81,111.21,38.92z M111.11,46.39c1.85,0.08,3.34-1.59,3.34-3.31c0-1.5-1.17-3.33-3.32-3.36
			c-2.1-0.02-3.39,1.74-3.38,3.37C107.76,44.81,109.24,46.48,111.11,46.39z"/>
		<path class="st0" d="M147.53,47.24c-1.97,0.08-4.17-1.6-4.17-4.16c0-2.38,2-4.17,4.17-4.17c2.18,0,4.18,1.79,4.17,4.17
			C151.69,45.63,149.52,47.31,147.53,47.24z M147.54,46.39c1.85,0.08,3.34-1.59,3.34-3.31c0-1.51-1.19-3.33-3.33-3.35
			c-2.13-0.02-3.39,1.79-3.38,3.38C144.19,44.8,145.66,46.48,147.54,46.39z"/>
		<path class="st0" d="M139.01,41.16c0.14-0.23,0.28-0.46,0.41-0.7c0.89-1.53,1.77-3.07,2.66-4.6c0.12-0.21,0.26-0.42,0.37-0.64
			c0.08-0.16,0.21-0.25,0.38-0.27c0.16-0.02,0.35-0.06,0.47,0.07c0.14,0.16-0.03,0.3-0.1,0.44c-1.09,1.89-2.18,3.78-3.27,5.67
			c-0.05,0.09-0.1,0.19-0.16,0.28c-0.33,0.46-0.45,0.97-0.43,1.54c0.03,1.06,0.01,2.13,0.01,3.19c0,0.19,0,0.38-0.01,0.57
			c-0.02,0.24-0.12,0.32-0.38,0.32c-0.27,0-0.38-0.08-0.39-0.3c-0.01-0.19-0.01-0.38-0.01-0.57c0-1.12-0.01-2.24,0.01-3.36
			c0.01-0.45-0.1-0.84-0.33-1.23c-1.12-1.91-2.21-3.82-3.32-5.74c-0.12-0.21-0.24-0.43-0.35-0.65c-0.07-0.13,0.03-0.21,0.14-0.23
			c0.35-0.06,0.62,0.01,0.82,0.36c0.98,1.73,1.98,3.45,2.98,5.18C138.64,40.73,138.71,41.01,139.01,41.16z"/>
		<path class="st0" d="M166.79,43.28c0-1.07,0-2.13,0-3.2c0-0.45,0.23-0.67,0.59-0.46c0.33,0.19,0.51,0.09,0.77-0.07
			c0.85-0.52,1.77-0.56,2.68-0.22c0.93,0.35,1.52,1.04,1.75,2.01c0.07,0.29,0.1,0.59,0.11,0.89c0.01,1.39,0.01,2.79,0.01,4.18
			c0,0.08,0,0.16,0,0.25c-0.03,0.33-0.37,0.5-0.65,0.33c-0.06-0.04-0.12-0.13-0.12-0.19c-0.02-0.22-0.02-0.44-0.02-0.65
			c0-1.34,0-2.68,0-4.02c0-0.81-0.36-1.42-1.02-1.85c-1.03-0.69-2.53-0.32-3.14,0.75c-0.15,0.25-0.13,0.52-0.13,0.8
			c0,1.42,0,2.84,0,4.26c0,0.22,0,0.44-0.01,0.65c-0.02,0.22-0.14,0.31-0.39,0.31c-0.27,0-0.37-0.08-0.38-0.32
			c-0.01-0.19-0.01-0.38-0.01-0.57C166.79,45.2,166.79,44.24,166.79,43.28z"/>
		<path class="st0" d="M105.27,40.97c0,1.7,0,3.39,0,5.09c0,0.19,0.01,0.38,0,0.57c-0.02,0.35-0.19,0.47-0.54,0.41
			c-0.15-0.03-0.25-0.12-0.26-0.27c-0.01-0.16-0.01-0.33-0.02-0.49c0-3.53,0-7.05,0-10.58c0-0.11,0-0.22,0-0.33
			c-0.01-0.34,0.16-0.45,0.54-0.41c0.14,0.02,0.25,0.11,0.26,0.27c0.01,0.22,0.01,0.44,0.01,0.66
			C105.27,37.58,105.27,39.27,105.27,40.97z"/>
		<path class="st0" d="M128.07,43.35c0,0.95,0,1.91,0,2.86c0,0.16,0.01,0.33-0.01,0.49c-0.02,0.26-0.15,0.36-0.44,0.34
			c-0.24-0.01-0.34-0.1-0.36-0.34c-0.01-0.14-0.01-0.27-0.01-0.41c0-2.02,0-4.03,0-6.05c0-0.14,0-0.27,0.01-0.41
			c0.01-0.16,0.13-0.23,0.27-0.24c0.39-0.05,0.51,0.05,0.53,0.41c0.01,0.14,0,0.27,0,0.41C128.07,41.39,128.07,42.37,128.07,43.35z"
			/>
		<path class="st0" d="M164.52,43.32c0,1.09,0,2.19,0,3.28c0,0.37-0.16,0.49-0.51,0.44c-0.15-0.02-0.25-0.1-0.27-0.26
			c-0.02-0.14-0.02-0.27-0.02-0.41c0-2.05,0-4.1,0-6.15c0-0.08,0-0.16,0-0.25c0.02-0.3,0.1-0.38,0.4-0.39c0.34,0,0.41,0.1,0.41,0.37
			C164.52,41.08,164.52,42.2,164.52,43.32z"/>
		<path class="st0" d="M175.73,43.33c0,0.98,0,1.96,0,2.94c0,0.19,0,0.38-0.03,0.57c-0.02,0.16-0.16,0.2-0.3,0.2
			c-0.16,0-0.34,0.01-0.39-0.19c-0.03-0.1-0.03-0.21-0.03-0.32c0-2.15,0-4.3,0-6.45c0-0.08,0.01-0.16,0.01-0.24
			c0.01-0.17,0.13-0.22,0.28-0.23c0.35-0.03,0.46,0.05,0.46,0.38C175.73,41.1,175.73,42.21,175.73,43.33
			C175.73,43.33,175.73,43.33,175.73,43.33z"/>
		<path class="st0" d="M164.85,37.71c-0.01,0.39-0.35,0.7-0.76,0.69c-0.4-0.01-0.73-0.37-0.69-0.75c0.03-0.36,0.35-0.65,0.72-0.65
			C164.52,36.99,164.86,37.32,164.85,37.71z"/>
		<path class="st0" d="M128.4,37.67c0.02,0.39-0.32,0.73-0.72,0.73c-0.4,0-0.74-0.33-0.73-0.72c0.01-0.35,0.32-0.67,0.68-0.69
			C128.02,36.97,128.38,37.28,128.4,37.67z"/>
		<path class="st0" d="M175.37,38.39c-0.42,0.01-0.73-0.28-0.73-0.7c0-0.41,0.31-0.71,0.73-0.7c0.38,0.01,0.67,0.28,0.68,0.66
			C176.07,38.08,175.79,38.38,175.37,38.39z"/>
	</g>
</g>
</svg>
