<?xml version="1.0" encoding="utf-8"?>
<!-- Generator: Adobe Illustrator 23.0.1, SVG Export Plug-In . SVG Version: 6.00 Build 0)  -->
<svg version="1.1" id="Capa_1" xmlns="http://www.w3.org/2000/svg" xmlns:xlink="http://www.w3.org/1999/xlink" x="0px" y="0px"
	 viewBox="0 0 39 39" style="enable-background:new 0 0 39 39;" xml:space="preserve">
<style type="text/css">
	.st0{fill-rule:evenodd;clip-rule:evenodd;}
</style>
<g id="XMLID_1_">
	<g>
		<g id="XMLID_43_">
			<path id="XMLID_45_" class="st0" d="M31.31,18.9c-0.16-6.22-5.28-11.22-11.6-11.22c-6.23,0-11.32,4.88-11.59,11.01
				c-0.01,0.17-0.01,0.34-0.01,0.5c0,2.18,0.61,4.21,1.66,5.95l-2.09,6.18l6.43-2.04c1.66,0.91,3.57,1.43,5.6,1.43
				c6.41,0,11.6-5.15,11.6-11.51C31.32,19.1,31.32,19,31.31,18.9z M19.71,28.87c-1.98,0-3.82-0.59-5.37-1.6l-3.75,1.19l1.22-3.6
				c-1.17-1.6-1.86-3.56-1.86-5.68c0-0.32,0.02-0.63,0.05-0.94c0.48-4.9,4.65-8.74,9.71-8.74c5.12,0,9.33,3.94,9.72,8.92
				c0.02,0.25,0.03,0.5,0.03,0.75C29.47,24.53,25.09,28.87,19.71,28.87z"/>
			<path id="XMLID_44_" class="st0" d="M25.03,21.52c-0.29-0.14-1.68-0.83-1.94-0.92c-0.26-0.1-0.45-0.14-0.64,0.14
				c-0.19,0.28-0.74,0.92-0.9,1.1c-0.17,0.19-0.33,0.21-0.62,0.07c-0.28-0.14-1.2-0.43-2.29-1.4c-0.84-0.74-1.42-1.67-1.58-1.95
				c-0.16-0.28-0.02-0.43,0.13-0.58c0.13-0.13,0.28-0.33,0.43-0.49c0.04-0.05,0.07-0.09,0.1-0.14c0.07-0.1,0.11-0.2,0.18-0.34
				c0.1-0.19,0.05-0.35-0.02-0.49c-0.07-0.14-0.64-1.53-0.88-2.1c-0.23-0.56-0.47-0.47-0.64-0.47c-0.16,0-0.35-0.03-0.54-0.03
				c-0.19,0-0.5,0.07-0.76,0.35c-0.26,0.28-0.99,0.97-0.99,2.36c0,0.33,0.06,0.65,0.15,0.96c0.29,0.99,0.91,1.81,1.02,1.96
				c0.14,0.18,1.97,3.13,4.86,4.26c2.89,1.12,2.89,0.75,3.42,0.7c0.52-0.04,1.68-0.68,1.92-1.34c0.24-0.66,0.24-1.22,0.17-1.34
				C25.5,21.73,25.31,21.66,25.03,21.52z"/>
		</g>
	</g>
</g>
</svg>
