<?xml version="1.0" encoding="utf-8"?>
<!-- Generator: Adobe Illustrator 23.0.1, SVG Export Plug-In . SVG Version: 6.00 Build 0)  -->
<svg version="1.1" id="Capa_1" xmlns="http://www.w3.org/2000/svg" xmlns:xlink="http://www.w3.org/1999/xlink" x="0px" y="0px"
	 viewBox="0 0 39 39" style="enable-background:new 0 0 39 39;" xml:space="preserve">
<g id="XMLID_15_">
	<g>
		<g id="XMLID_67_">
			<path id="XMLID_72_" d="M19.5,9.82c3.15,0,3.53,0.01,4.77,0.07c1.15,0.05,1.78,0.24,2.19,0.41c0.55,0.21,0.94,0.47,1.36,0.88
				c0.41,0.41,0.67,0.81,0.88,1.36c0.16,0.42,0.35,1.04,0.41,2.19c0.06,1.25,0.07,1.62,0.07,4.77c0,3.15-0.01,3.53-0.07,4.77
				c-0.05,1.15-0.24,1.78-0.41,2.19c-0.21,0.55-0.47,0.94-0.88,1.36c-0.41,0.41-0.81,0.67-1.36,0.88c-0.42,0.16-1.04,0.35-2.19,0.41
				c-1.25,0.06-1.62,0.07-4.77,0.07c-3.15,0-3.53-0.01-4.77-0.07c-1.15-0.05-1.78-0.24-2.19-0.41c-0.55-0.21-0.94-0.47-1.36-0.88
				c-0.41-0.41-0.67-0.81-0.88-1.36c-0.16-0.42-0.35-1.04-0.41-2.19c-0.06-1.25-0.07-1.62-0.07-4.77c0-3.15,0.01-3.53,0.07-4.77
				c0.05-1.15,0.25-1.78,0.41-2.19c0.21-0.55,0.47-0.94,0.88-1.36c0.41-0.41,0.81-0.67,1.36-0.88c0.42-0.16,1.04-0.35,2.19-0.41
				C15.97,9.83,16.35,9.82,19.5,9.82 M19.5,7.69c-3.21,0-3.61,0.01-4.87,0.07c-1.26,0.06-2.12,0.26-2.87,0.55
				c-0.78,0.3-1.44,0.71-2.09,1.36c-0.66,0.66-1.06,1.32-1.36,2.09c-0.29,0.75-0.49,1.61-0.55,2.87c-0.06,1.26-0.07,1.66-0.07,4.87
				c0,3.21,0.01,3.61,0.07,4.87c0.06,1.26,0.26,2.12,0.55,2.87c0.3,0.78,0.71,1.44,1.36,2.09c0.66,0.66,1.32,1.06,2.09,1.36
				c0.75,0.29,1.61,0.49,2.87,0.55c1.26,0.06,1.66,0.07,4.87,0.07c3.21,0,3.61-0.01,4.87-0.07c1.26-0.06,2.12-0.26,2.87-0.55
				c0.78-0.3,1.44-0.71,2.09-1.36c0.66-0.66,1.06-1.32,1.36-2.09c0.29-0.75,0.49-1.61,0.55-2.87c0.06-1.26,0.07-1.66,0.07-4.87
				c0-3.21-0.01-3.61-0.07-4.87c-0.06-1.26-0.26-2.12-0.55-2.87c-0.3-0.78-0.71-1.44-1.36-2.09c-0.66-0.66-1.32-1.06-2.09-1.36
				c-0.75-0.29-1.61-0.49-2.87-0.55C23.11,7.7,22.71,7.69,19.5,7.69"/>
			<path id="XMLID_69_" d="M19.5,13.43c-3.35,0-6.07,2.72-6.07,6.07s2.72,6.07,6.07,6.07c3.35,0,6.07-2.72,6.07-6.07
				S22.85,13.43,19.5,13.43 M19.5,23.44c-2.17,0-3.94-1.76-3.94-3.94c0-2.17,1.76-3.94,3.94-3.94c2.17,0,3.94,1.76,3.94,3.94
				C23.44,21.67,21.67,23.44,19.5,23.44"/>
			<path id="XMLID_68_" d="M27.22,13.2c0,0.78-0.63,1.42-1.42,1.42c-0.78,0-1.42-0.63-1.42-1.42s0.63-1.42,1.42-1.42
				C26.59,11.78,27.22,12.41,27.22,13.2"/>
		</g>
	</g>
</g>
</svg>
