<?xml version="1.0" encoding="utf-8"?>
<!-- Generator: Adobe Illustrator 23.0.1, SVG Export Plug-In . SVG Version: 6.00 Build 0)  -->
<svg version="1.1" id="Capa_1" xmlns="http://www.w3.org/2000/svg" xmlns:xlink="http://www.w3.org/1999/xlink" x="0px" y="0px"
	 viewBox="0 0 674 365" style="enable-background:new 0 0 674 365;" xml:space="preserve">
<style type="text/css">
	.st0{fill:#FFFFFF;}
</style>
<g>
	<g>
		<g>
			<path class="st0" d="M20.08,122.82V20.77l69.68,72.9v-66.4h14.42v101.37L34.5,55.92v66.9H20.08z"/>
			<path class="st0" d="M141.5,27.27v57.55c0,8.21,1.34,14.21,4.02,18.01c4,5.49,9.63,8.23,16.89,8.23c7.3,0,12.95-2.74,16.96-8.23
				c2.68-3.67,4.02-9.67,4.02-18.01V27.27h14.42v61.51c0,10.07-3.14,18.36-9.41,24.88c-7.05,7.26-15.72,10.89-25.99,10.89
				c-10.27,0-18.92-3.63-25.93-10.89c-6.27-6.52-9.41-14.81-9.41-24.88V27.27H141.5z"/>
			<path class="st0" d="M273.43,40.82h-38.31v22.96h37.19v13.55h-37.19v31.93h38.31v13.55h-52.73V27.27h52.73V40.82z"/>
			<path class="st0" d="M346.4,41.5l-11.7,6.93c-2.19-3.8-4.27-6.27-6.25-7.43c-2.06-1.32-4.72-1.98-7.98-1.98
				c-4,0-7.32,1.14-9.96,3.4c-2.64,2.23-3.96,5.03-3.96,8.42c0,4.66,3.47,8.42,10.4,11.26l9.53,3.9
				c7.76,3.14,13.43,6.96,17.02,11.48c3.59,4.52,5.38,10.06,5.38,16.62c0,8.79-2.93,16.05-8.79,21.78
				c-5.9,5.78-13.22,8.66-21.97,8.66c-8.29,0-15.14-2.45-20.55-7.36c-5.32-4.91-8.64-11.82-9.96-20.73l14.6-3.22
				c0.66,5.61,1.82,9.49,3.47,11.63c2.97,4.13,7.3,6.19,13,6.19c4.5,0,8.23-1.51,11.2-4.52c2.97-3.01,4.46-6.83,4.46-11.45
				c0-1.86-0.26-3.56-0.77-5.11c-0.52-1.55-1.32-2.97-2.41-4.27c-1.09-1.3-2.51-2.52-4.24-3.65c-1.73-1.13-3.8-2.22-6.19-3.25
				l-9.22-3.84c-13.08-5.53-19.62-13.61-19.62-24.26c0-7.18,2.74-13.18,8.23-18.01c5.49-4.87,12.31-7.3,20.48-7.3
				C331.61,25.41,340.21,30.77,346.4,41.5z"/>
			<path class="st0" d="M394.42,40.82v82H380v-82h-21.97V27.27h58.29v13.55H394.42z"/>
			<path class="st0" d="M461.56,82.1l29.58,40.72h-17.64l-27.29-39.11h-2.6v39.11H429.2V27.27h16.89c12.62,0,21.74,2.37,27.35,7.12
				c6.19,5.28,9.28,12.25,9.28,20.92c0,6.77-1.94,12.58-5.82,17.45S467.92,80.74,461.56,82.1z M443.62,71.14h4.58
				c13.66,0,20.48-5.22,20.48-15.66c0-9.78-6.64-14.67-19.93-14.67h-5.14V71.14z"/>
			<path class="st0" d="M498.57,74.61c0-13.45,4.93-25,14.79-34.66c9.82-9.65,21.62-14.48,35.4-14.48
				c13.61,0,25.29,4.87,35.03,14.61c9.78,9.74,14.67,21.43,14.67,35.09c0,13.74-4.91,25.39-14.73,34.96
				c-9.86,9.61-21.76,14.42-35.71,14.42c-12.34,0-23.41-4.27-33.23-12.81C503.97,102.29,498.57,89.92,498.57,74.61z M513.11,74.79
				c0,10.56,3.55,19.25,10.64,26.05c7.06,6.81,15.2,10.21,24.44,10.21c10.03,0,18.48-3.47,25.37-10.4
				c6.89-7.01,10.33-15.55,10.33-25.62c0-10.19-3.4-18.73-10.21-25.62c-6.77-6.93-15.14-10.4-25.12-10.4
				c-9.94,0-18.34,3.47-25.19,10.4C516.54,56.27,513.11,64.73,513.11,74.79z"/>
		</g>
	</g>
	<g>
		<g>
			<path class="st0" d="M276.65,344.23h-0.7c-2.95-0.31-5.05-1.87-6.3-4.67c-2.49-5.75,0.58-16.37,9.21-31.84
				c8.63-15.47,22.2-35.03,40.7-58.66c-0.78-6.84-2.06-13.14-3.85-18.89c-1.79-5.75-3.62-11.27-5.48-16.56
				c-0.31-0.78-0.54-1.52-0.7-2.22c-0.15-0.7-0.31-1.44-0.47-2.22c0-0.15-0.08-0.58-0.23-1.28c-0.15-0.7-0.31-1.48-0.47-2.33
				c-0.15-0.85-0.27-1.71-0.35-2.57c-0.08-0.85-0.12-1.52-0.12-1.98c0-3.58,0.43-7,1.28-10.26c0.85-3.26,2.02-6.26,3.5-8.98
				c1.48-2.72,3.11-5.09,4.9-7.11c1.79-2.02,3.62-3.58,5.48-4.67c2.95-1.87,5.21-2.57,6.76-2.1c1.55,0.47,2.64,1.01,3.27,1.63
				c1.71,1.71,1.79,4.4,0.23,8.05c-1.56,3.66-5.05,8.9-10.5,15.74c-1.4,1.71-2.84,3.42-4.32,5.13c-1.48,1.71-2.84,3.27-4.08,4.67
				c0.15,2.33,0.78,5.05,1.87,8.16c1.71,4.67,3.34,9.53,4.9,14.58c1.55,5.05,2.88,10.46,3.96,16.21
				c4.51-5.91,9.37-11.93,14.58-18.08c5.21-6.14,10.69-12.55,16.44-19.24c1.24-1.55,2.72-1.63,4.43-0.23
				c1.71,1.4,1.87,2.88,0.46,4.43c-7,7.93-13.33,15.36-19.01,22.27c-5.68,6.92-11,13.49-15.98,19.71c0.78,9.02,0,18.81-2.33,29.39
				c-2.33,10.57-7.23,22.23-14.69,34.99c-2.33,4.04-4.93,7.85-7.81,11.43c-2.88,3.58-5.75,6.65-8.63,9.21
				c-2.88,2.57-5.71,4.58-8.51,6.06C281.31,343.49,278.82,344.23,276.65,344.23z M320.03,258.87
				c-8.24,10.73-15.08,20.06-20.53,27.99c-5.44,7.93-9.8,14.77-13.06,20.53c-3.27,5.75-5.67,10.53-7.23,14.34
				c-1.55,3.81-2.64,6.84-3.27,9.1c-0.62,2.25-0.85,3.85-0.7,4.78c0.16,0.93,0.23,1.48,0.23,1.63c0.31,0.31,0.62,0.47,0.93,0.47
				c1.25,0.15,2.92-0.31,5.01-1.4c2.1-1.09,4.4-2.76,6.88-5.01c2.49-2.26,5.09-4.98,7.81-8.16c2.72-3.19,5.25-6.88,7.58-11.08
				c5.91-10.26,10.07-19.79,12.48-28.57C318.59,274.69,319.87,266.48,320.03,258.87z M327.73,174.67c-0.78,0.31-1.71,0.9-2.8,1.75
				c-1.09,0.86-2.33,2.14-3.73,3.85c-0.78,0.93-1.75,2.41-2.92,4.43c-1.17,2.02-2.14,4.59-2.92,7.7c3.11-3.73,5.79-7.19,8.05-10.38
				C325.66,178.83,327.1,176.38,327.73,174.67z"/>
			<path class="st0" d="M424.28,149.01c1.87,0.31,2.8,1.4,2.8,3.27c-0.31,1.87-1.4,2.8-3.27,2.8c-9.18-0.47-17.57-0.58-25.19-0.35
				c-7.62,0.23-14.54,0.74-20.76,1.52c-6.53,18.35-12.68,37.67-18.43,57.96c-5.75,20.29-11.12,41.01-16.09,62.16
				c-0.47,1.55-1.48,2.33-3.03,2.33c-0.31,0-0.54-0.08-0.7-0.23c-1.87-0.31-2.64-1.48-2.33-3.5c4.98-20.68,10.3-40.97,15.98-60.88
				c5.67-19.9,11.62-38.95,17.84-57.14c-9.8,1.25-17.18,2.61-22.16,4.08c-4.98,1.48-7.54,2.22-7.7,2.22c-0.15,0-0.31,0.04-0.47,0.12
				c-0.15,0.08-0.31,0.12-0.47,0.12c-1.24,0-2.18-0.7-2.8-2.1c-0.31-0.78-0.31-1.52,0-2.22c0.31-0.7,0.86-1.2,1.63-1.52
				c0.31-0.15,3.35-1.05,9.1-2.68c5.75-1.63,14.15-3.07,25.19-4.32c0.31-1.24,0.7-2.41,1.17-3.5c0.47-1.09,0.85-2.25,1.17-3.5
				c-0.78,0-1.32-0.15-1.63-0.47c-1.71-1.09-2.02-2.49-0.93-4.2c1.71-2.33,3.34-4.7,4.9-7.11c1.55-2.41,3.19-4.86,4.9-7.35
				l0.23-0.23c3.42-8.71,6.72-16.68,9.91-23.91c3.19-7.23,6.18-13.56,8.98-19.01c2.18-4.04,4-7.23,5.48-9.56
				c1.47-2.33,2.72-4.04,3.73-5.13c1.01-1.09,1.83-1.79,2.45-2.1c0.62-0.31,1.09-0.47,1.4-0.47c1.55-0.47,2.95-0.08,4.2,1.17
				c0.93,1.25,1.24,3.07,0.93,5.48c-0.31,2.41-1.95,6.49-4.9,12.25c-1.71,3.11-3.77,6.76-6.18,10.96c-2.41,4.2-5.17,8.86-8.28,13.99
				c-2.18,3.42-4.31,6.76-6.41,10.03s-4.08,6.3-5.95,9.1c-0.16,0.47-0.39,1.01-0.7,1.63c-1.25,3.42-2.53,6.92-3.85,10.5
				c-1.32,3.58-2.61,7.15-3.85,10.73c5.91-0.62,12.52-1.01,19.83-1.17C407.34,148.62,415.42,148.7,424.28,149.01z M411.69,76.94
				c-1.09,1.71-2.22,3.62-3.38,5.71c-1.17,2.1-2.37,4.63-3.62,7.58C407.49,85.1,409.82,80.67,411.69,76.94z"/>
			<path class="st0" d="M388.6,236.24c-1.56,0-2.88-0.39-3.96-1.17c-4.51-2.8-5.05-10.57-1.63-23.32c1.24-4.04,2.76-8.4,4.55-13.06
				c1.79-4.67,3.69-9.1,5.71-13.29c1.87-3.58,3.46-6.33,4.78-8.28c1.32-1.94,2.45-3.38,3.38-4.31s1.71-1.48,2.33-1.63
				c0.62-0.15,1.17-0.23,1.63-0.23c2.02,0,3.5,0.78,4.43,2.33c1.24,2.02,1.44,4.47,0.58,7.35c-0.86,2.88-1.67,5.01-2.45,6.41
				c-0.31,0.78-0.86,1.28-1.63,1.52c-0.78,0.23-1.56,0.2-2.33-0.12c-0.78-0.31-1.28-0.89-1.52-1.75c-0.23-0.85-0.2-1.67,0.12-2.45
				c0.47-0.93,0.85-1.98,1.17-3.15c0.31-1.17,0.62-2.14,0.93-2.92c-1.4,1.71-3.11,4.51-5.13,8.4c-2.02,3.89-3.96,8.16-5.83,12.83
				c-1.87,4.67-3.5,9.37-4.9,14.11c-1.4,4.75-2.1,8.83-2.1,12.25c0,2.49,0.38,3.89,1.17,4.2c0.47,0.31,1.17,0.31,2.1,0
				c2.64-0.93,5.79-3.22,9.45-6.88c3.65-3.65,7.19-7.66,10.61-12.01c3.42-4.35,6.41-8.47,8.98-12.36c2.57-3.88,4.08-6.45,4.55-7.7
				c0.62-1.4,1.32-2.18,2.1-2.33c0.78-0.15,1.4-0.15,1.87,0c1.24,0.31,1.94,1.01,2.1,2.1c0.15,1.09,0.15,2.57,0,4.43
				c-0.16,1.4-0.35,3.42-0.58,6.06c-0.23,2.65-0.27,5.33-0.12,8.05c0.15,2.72,0.62,5.09,1.4,7.11c0.78,2.02,2.02,3.19,3.73,3.5
				c2.02,0.31,4.47-0.35,7.35-1.98c2.88-1.63,5.83-3.73,8.86-6.3c3.03-2.57,5.95-5.36,8.75-8.4s5.21-5.87,7.23-8.51
				c1.4-1.71,2.88-1.87,4.43-0.47c1.4,1.09,1.55,2.49,0.46,4.2c-0.46,0.47-1.32,1.48-2.56,3.03c-1.25,1.56-2.8,3.35-4.67,5.36
				c-1.87,2.02-3.96,4.16-6.3,6.41c-2.33,2.26-4.78,4.32-7.35,6.18c-2.56,1.87-5.17,3.42-7.81,4.66c-2.65,1.25-5.13,1.87-7.46,1.87
				c-0.93,0-1.55-0.08-1.87-0.23c-2.33-0.31-4.2-1.2-5.6-2.68c-1.4-1.48-2.45-3.27-3.15-5.37c-0.7-2.1-1.13-4.43-1.28-7
				c-0.16-2.57-0.23-5.01-0.23-7.35c-2.02,2.96-4.32,6.14-6.88,9.56c-2.57,3.42-5.25,6.69-8.05,9.8c-2.8,3.11-5.6,5.83-8.4,8.16
				c-2.8,2.33-5.37,3.89-7.7,4.66C390.62,236.01,389.53,236.24,388.6,236.24z"/>
			<path class="st0" d="M461.6,256.53c-1.09,0-2.02-0.16-2.8-0.47c-0.78-0.31-1.48-0.62-2.1-0.93c-2.33-1.4-4.04-3.69-5.13-6.88
				c-1.09-3.19-1.55-6.84-1.4-10.96c0.16-4.12,0.86-8.55,2.1-13.29c1.25-4.74,3.03-9.37,5.37-13.88
				c6.84-12.59,13.68-21.84,20.53-27.76c6.84-5.91,12.59-9.33,17.26-10.26c2.48-0.62,4.51-0.66,6.06-0.12
				c1.55,0.55,2.72,1.13,3.5,1.75c1.71,1.56,2.88,3.23,3.5,5.01c0.62,1.79,0.78,3.54,0.47,5.25c2.18-3.88,4.28-7.81,6.3-11.78
				c2.02-3.96,4.12-7.97,6.3-12.01c4.82-14.15,9.25-26.2,13.29-36.15c2.95-7.15,5.95-14,8.98-20.53c3.03-6.53,5.87-12.44,8.51-17.73
				c2.18-3.88,3.96-6.92,5.36-9.1c1.4-2.18,2.57-3.73,3.5-4.67c0.93-0.93,1.67-1.48,2.21-1.63c0.54-0.15,1.05-0.23,1.52-0.23
				c0.78,0.16,1.55,0.55,2.33,1.17c0.78,0.62,1.17,1.56,1.17,2.8c0,1.71-1.13,5.37-3.38,10.96c-2.26,5.6-5.25,12.44-8.98,20.52
				c-3.73,8.09-8.09,17.07-13.06,26.94c-4.98,9.88-10.11,19.94-15.39,30.21c-4.04,12.59-7.81,26.09-11.31,40.47
				c-3.5,14.38-6.34,29.35-8.51,44.9c-0.16,0.78-0.58,1.48-1.28,2.1c-0.7,0.62-1.52,0.86-2.45,0.7c-0.78-0.15-1.48-0.58-2.1-1.28
				c-0.62-0.7-0.86-1.52-0.7-2.45c1.4-10.26,3.11-20.13,5.13-29.62c2.02-9.48,4.2-18.66,6.53-27.52
				c-5.45,9.8-10.61,18.82-15.51,27.06c-4.9,8.24-9.37,15.16-13.41,20.76c-4.98,7.31-9.29,12.25-12.95,14.81
				C467.39,255.25,464.24,256.53,461.6,256.53z M498.45,178.16c-0.78,0-1.4,0.08-1.87,0.23c-3.73,0.78-8.63,3.85-14.7,9.21
				s-12.21,13.88-18.43,25.54c-2.18,4.2-3.81,8.32-4.9,12.36c-1.09,4.05-1.71,7.74-1.87,11.08c-0.15,3.35,0.04,6.18,0.58,8.51
				c0.54,2.33,1.44,3.81,2.68,4.43c1.24,0.78,3.46,0.2,6.65-1.75c3.19-1.94,7.19-6.41,12.01-13.41c3.73-5.28,7.73-11.46,12.01-18.54
				c4.28-7.07,8.67-14.58,13.18-22.51c-1.09,0.31-2.02,0.08-2.8-0.7c-0.78-0.47-1.25-1.13-1.4-1.98c-0.16-0.85,0.08-1.67,0.7-2.45
				c0.93-1.4,1.55-2.57,1.87-3.5c0.31-0.93,0.39-1.94,0.23-3.03c-0.16-1.09-0.7-2.02-1.63-2.8
				C500.32,178.4,499.54,178.16,498.45,178.16z"/>
			<path class="st0" d="M580.55,194.49c0.78,0.47,1.24,1.13,1.4,1.98c0.15,0.86,0.08,1.67-0.23,2.45c-0.78,1.25-2.06,3.19-3.85,5.83
				c-1.79,2.65-3.85,5.6-6.18,8.86c-2.33,3.26-4.94,6.61-7.81,10.03c-2.88,3.42-5.75,6.57-8.63,9.45c-2.88,2.88-5.79,5.21-8.75,7
				c-2.96,1.79-5.68,2.68-8.16,2.68h-1.63c-2.33-0.47-3.96-1.79-4.9-3.96c-0.93-2.02-1.2-4.82-0.82-8.4
				c0.39-3.58,1.25-7.54,2.57-11.9c1.32-4.35,2.91-8.86,4.78-13.53c1.87-4.67,3.73-9.1,5.6-13.29c1.87-4.2,3.62-7.89,5.25-11.08
				c1.63-3.19,2.83-5.56,3.62-7.11c0.31-0.78,0.89-1.28,1.75-1.52c0.85-0.23,1.67-0.12,2.45,0.35c0.78,0.31,1.28,0.9,1.52,1.75
				c0.23,0.86,0.19,1.67-0.12,2.45c-2.65,5.13-5.37,10.85-8.16,17.14s-5.29,12.29-7.46,17.96c-2.18,5.68-3.77,10.77-4.78,15.28
				c-1.01,4.51-1.13,7.54-0.35,9.1v0.47h0.23c2.02,0.31,4.62-0.82,7.81-3.38c3.19-2.57,6.57-5.87,10.15-9.91
				c3.58-4.04,7.15-8.55,10.73-13.53c3.58-4.97,6.76-9.72,9.56-14.23c0.46-0.78,1.12-1.24,1.98-1.4
				C578.95,193.87,579.77,194.02,580.55,194.49z M564.22,162.54c-1.25,0-2.33-0.47-3.27-1.4c-0.93-0.93-1.4-2.02-1.4-3.27
				c0-1.24,0.47-2.33,1.4-3.26c0.93-0.93,2.02-1.4,3.27-1.4c1.24,0,2.33,0.47,3.27,1.4c0.93,0.93,1.4,2.02,1.4,3.26
				c0,1.25-0.47,2.33-1.4,3.27S565.47,162.54,564.22,162.54z"/>
			<path class="st0" d="M573.79,250c-1.71,0-3.23-0.23-4.55-0.7c-1.32-0.47-2.37-1.01-3.15-1.63c-4.04-3.11-6.22-7.97-6.53-14.58
				c-0.31-6.61,1.32-13.33,4.9-20.18c2.49-4.67,5.29-9.06,8.4-13.18c3.11-4.12,6.3-7.85,9.56-11.2c3.27-3.34,6.49-6.1,9.68-8.28
				c3.18-2.18,6.18-3.58,8.98-4.2c1.71-0.31,3.15-0.39,4.32-0.23c1.17,0.16,2.13,0.39,2.91,0.7c2.02-0.47,3.81-0.31,5.37,0.47
				c4.51,2.8,7.07,6.61,7.7,11.43c0.93,4.98,0,10.73-2.8,17.26c3.11-0.62,7.11-1.9,12.01-3.85c4.9-1.94,10.92-5.09,18.08-9.45
				c2.02-1.09,3.57-0.7,4.66,1.17c1.09,1.87,0.7,3.34-1.17,4.43c-15.71,9.64-28.07,14.54-37.09,14.69
				c-4.2,7.46-10.26,15.39-18.19,23.79c-4.98,5.44-9.41,9.06-13.29,10.85C579.69,249.11,576.43,250,573.79,250z M601.54,183.06
				c-2.02,0.62-4.36,1.87-7,3.73c-2.65,1.87-5.37,4.28-8.16,7.23c-2.8,2.96-5.6,6.3-8.4,10.03c-2.8,3.73-5.37,7.78-7.7,12.13
				c-3.11,5.6-4.55,10.93-4.31,15.98c0.23,5.05,1.59,8.44,4.08,10.15c2.33,1.71,5.44,1.63,9.33-0.23
				c3.88-1.87,8.16-5.28,12.83-10.26c3.58-3.88,6.65-7.5,9.21-10.85c2.57-3.34,4.7-6.41,6.41-9.21c-2.33-0.78-4.35-2.1-6.06-3.96
				c-1.4-1.55-2.41-3.42-3.03-5.6c-0.62-2.18-0.9-4.39-0.82-6.65c0.08-2.25,0.47-4.47,1.17-6.65
				C599.79,186.72,600.61,184.78,601.54,183.06z M610.41,183.06c-0.31,0-0.97,0.55-1.98,1.63c-1.01,1.09-1.91,2.88-2.68,5.36
				c-0.78,2.33-1.13,4.86-1.05,7.58c0.08,2.72,1.05,4.86,2.92,6.41c0.62,0.62,1.87,1.17,3.73,1.63c2.02-4.2,3.19-7.62,3.5-10.26
				c0.31-2.64,0.31-4.58,0-5.83C614.37,186.33,612.89,184.15,610.41,183.06z"/>
		</g>
	</g>
</g>
</svg>
