<?xml version="1.0" encoding="utf-8"?>
<!-- Generator: Adobe Illustrator 23.0.1, SVG Export Plug-In . SVG Version: 6.00 Build 0)  -->
<svg version="1.1" id="Capa_1" xmlns="http://www.w3.org/2000/svg" xmlns:xlink="http://www.w3.org/1999/xlink" x="0px" y="0px"
	 viewBox="0 0 653 455" style="enable-background:new 0 0 653 455;" xml:space="preserve">
<style type="text/css">
	.st0{fill:#FFFFFF;}
</style>
<g>
	<g>
		<path class="st0" d="M237.92,137.86c0.44,1.11,0.35,2.1-0.27,2.99c-0.62,0.88-1.39,1.44-2.32,1.68
			c-35.57,8.69-65.2,17.06-88.92,25.12c-4.76,13.27-9.58,27.3-14.45,42.08c-4.87,14.79-9.09,29.44-12.65,43.96
			c7.79-2.49,16.14-5.06,25.05-7.7c8.91-2.64,18.67-5.38,29.27-8.21c2.42-0.51,3.88,0.36,4.38,2.6c0.44,1.11,0.35,2.1-0.27,2.98
			c-0.62,0.88-1.39,1.44-2.31,1.68c-12.27,3.3-23.19,6.38-32.75,9.25c-9.56,2.87-18.05,5.54-25.46,8.01
			c-2.12,9.73-3.84,19.02-5.16,27.86c-1.32,8.84-1.93,16.94-1.81,24.29c0.11,7.35,0.92,13.77,2.44,19.25
			c1.52,5.48,4.06,9.73,7.61,12.75c11.44,9.38,32.93,3.9,64.48-16.46c2.21-1.06,4.02-0.68,5.44,1.12c1.06,2.21,0.68,4.02-1.12,5.44
			c-21.71,13.79-39.33,21.06-52.88,21.78c-8.28,0.44-15.18-1.64-20.71-6.25c-14.22-11.88-16.43-40.9-6.63-87.07
			c-8.7,3.11-15.77,5.79-21.21,8.06c-5.44,2.27-9.72,4.25-12.84,5.92c-3.12,1.68-5.26,3.02-6.43,4.02c-1.18,1.01-1.94,1.71-2.29,2.1
			c0.08,1.51-0.33,2.66-1.23,3.46c-1.11,0.44-1.85,0.66-2.23,0.68c-1.13,0.06-2.19-0.35-3.18-1.25c-1.03-1.64-1.21-3.23-0.54-4.78
			c1.91-6.7,19.25-15.64,52.04-26.83c1.21-5.53,2.6-11.27,4.17-17.2c1.57-5.93,3.41-12.07,5.52-18.4
			c2.72-9.01,5.47-17.69,8.23-26.05c2.76-8.35,5.54-16.37,8.33-24.07c-5.37,1.98-10.36,3.9-14.97,5.75
			c-4.62,1.85-8.96,3.64-13.01,5.36c-5.89,2.77-10.57,5.23-14.03,7.4c-3.47,2.17-6.11,4.05-7.9,5.66c-1.8,1.61-3,2.95-3.61,4.01
			c-0.61,1.07-0.89,1.79-0.87,2.17c-0.15,0.76,0.08,1.41,0.67,1.94c0.21,0.37,0.5,0.54,0.88,0.52c2.14,1.21,2.6,2.88,1.4,5.02
			c-0.68,1.36-1.68,2.07-3,2.14c-0.56,0.03-1.24-0.12-2.01-0.46c-1.17-0.69-2.41-1.85-3.72-3.48c-1.32-1.63-1.85-3.77-1.62-6.42
			c1.29-11.2,23.05-24.05,65.28-38.57c4.8-12.52,8.83-22.68,12.09-30.5c3.26-7.81,4.89-11.81,4.88-12c1.02-2.13,2.68-2.78,4.99-1.96
			c2.33,1.2,2.98,2.86,1.96,4.99c-2.2,4.83-4.5,10.28-6.91,16.35c-2.41,6.07-5.03,12.77-7.84,20.08
			c11.49-3.82,24.16-7.66,38.01-11.51c13.84-3.85,29.05-7.82,45.62-11.92c0.92-0.42,1.82-0.33,2.7,0.28
			C237.12,136.16,237.68,136.93,237.92,137.86z"/>
		<path class="st0" d="M218.96,333.81c-0.75,0.04-1.32-0.02-1.71-0.19c-0.95-0.13-2.05-0.46-3.31-0.96
			c-1.26-0.5-2.39-1.47-3.41-2.93c-1.83-2.54-3.06-6.2-3.7-10.98c-0.63-4.78-0.91-10.09-0.85-15.94c0.07-5.85,0.45-11.91,1.15-18.17
			c0.7-6.26,1.43-12.05,2.18-17.38c0.75-5.32,1.49-9.93,2.23-13.84c0.73-3.9,1.26-6.43,1.58-7.58c0.24-2.46,1.61-3.38,4.1-2.77
			c2.46,0.25,3.38,1.61,2.77,4.1c-1.18,6.29-2.35,13.47-3.52,21.55c-1.17,8.08-2.08,15.91-2.71,23.49
			c-0.63,7.58-0.79,14.43-0.46,20.54c0.33,6.11,1.4,10.35,3.23,12.7c0.41,0.73,0.91,1.08,1.47,1.05c0.95,0.14,1.79-0.09,2.51-0.7
			c0.72-0.6,1.44-1.21,2.17-1.81c2.16-2,4.22-4.84,6.19-8.54c1.97-3.69,3.92-7.8,5.85-12.34c1.92-4.53,3.7-9.25,5.33-14.15
			c1.62-4.9,3.07-9.64,4.33-14.24c-0.54-2.99-0.62-6.28-0.25-9.89c0.51-4.55,1.12-8.17,1.83-10.85c0.71-2.68,1.66-5.08,2.87-7.23
			c1.2-2.14,2.66-3.25,4.35-3.34c0.19-0.01,0.86,0.19,2.01,0.6c1.15,0.41,1.88,1.65,2.18,3.7c0.27,1.5-0.13,4.72-1.18,9.68
			c-1.06,4.96-2.44,10.79-4.16,17.48l0.02,0.28c0.46,1.49,1.07,2.45,1.85,2.87c0.77,0.43,1.55,0.72,2.31,0.87
			c3.43,0.57,6.69-0.03,9.81-1.8c3.11-1.77,5.88-3.8,8.3-6.1c2.42-2.3,5.03-5.6,7.82-9.9c1.2-2.14,2.88-2.6,5.02-1.4
			c2.14,1.21,2.6,2.88,1.4,5.02c-0.17,0.39-1.13,1.85-2.88,4.4c-1.75,2.55-4.11,5.22-7.07,8.02c-2.96,2.8-6.47,5.2-10.51,7.21
			c-4.04,2.01-8.45,2.57-13.21,1.7c-0.96-0.32-1.87-0.65-2.74-0.99c-0.87-0.33-1.79-0.85-2.77-1.55c-1.46,4.42-3.02,8.93-4.65,13.55
			c-1.64,4.61-3.34,8.95-5.11,13c-1.76,4.05-3.65,7.74-5.63,11.05c-1.99,3.32-4.07,5.97-6.22,7.97
			C224.71,332.09,221.78,333.66,218.96,333.81z"/>
		<path class="st0" d="M294.85,324.38c-1.88,0.1-3.21,0.08-3.96-0.07c-8.37-1.25-13.92-6.33-16.66-15.24
			c-1.39-4.83-1.78-10.33-1.16-16.49c0.62-6.16,1.93-12.41,3.95-18.74c2.02-6.33,4.72-12.32,8.09-17.97
			c3.38-5.65,7.23-10.38,11.55-14.2c6.3-5.62,11.28-8.57,14.95-8.86c3.66-0.29,6.38,0.27,8.15,1.69c2.98,2.86,4,6.91,3.05,12.14
			c-0.95,5.24-2.9,10.11-5.87,14.6c-2.8,4.11-5.98,7.3-9.53,9.56c-3.56,2.27-7.01,3.91-10.35,4.94s-6.19,1.65-8.53,1.87
			c-2.35,0.22-3.62,0.33-3.8,0.34c-0.19,0.01-0.38-0.02-0.57-0.11c-0.19-0.08-0.39-0.12-0.57-0.11c-1.79,5.38-2.88,10.62-3.26,15.74
			c-0.39,5.11-0.01,9.62,1.15,13.52c1.62,5.76,5.1,9.06,10.43,9.91c4.75,0.69,9.75-1.09,14.99-5.33
			c5.24-4.24,10.29-9.55,15.13-15.95c4.84-6.39,9.16-12.94,12.96-19.65c3.79-6.71,6.71-12.19,8.74-16.45
			c1.19-2.33,2.86-2.98,4.99-1.96c2.33,1.2,2.98,2.86,1.96,4.99c-0.5,1.16-1.61,3.44-3.31,6.83c-1.71,3.39-3.9,7.33-6.58,11.81
			c-2.69,4.48-5.73,9.22-9.14,14.21c-3.41,4.99-7.13,9.58-11.15,13.75s-8.22,7.7-12.59,10.58
			C303.52,322.6,299.17,324.15,294.85,324.38z M313.54,239.92c-0.94,0.05-2.37,0.6-4.3,1.64c-1.92,1.05-4.51,2.98-7.75,5.79
			c-3.06,2.81-5.89,6.21-8.51,10.22c-2.62,4.01-4.93,8.33-6.95,12.96c1.13-0.06,2.67-0.28,4.63-0.67c1.96-0.39,4.14-1.07,6.54-2.05
			c2.4-0.98,4.78-2.33,7.14-4.06c2.36-1.73,4.5-3.96,6.43-6.71c2.62-3.91,4.17-7.48,4.66-10.72c0.49-3.23,0.23-5.29-0.75-6.18
			l-0.28,0.02c-0.19,0.01-0.33-0.03-0.43-0.12C313.87,239.95,313.72,239.91,313.54,239.92z"/>
		<path class="st0" d="M345.99,312.6c-0.19,0.01-0.38-0.02-0.57-0.11c-0.19-0.08-0.48-0.12-0.85-0.1c-2.87-0.79-5.13-2.56-6.79-5.3
			c-1.46-2.75-2-6.54-1.6-11.37c0.41-4.83,1.3-10.07,2.7-15.71c1.4-5.64,3.11-11.48,5.15-17.53c2.03-6.05,4.05-11.63,6.04-16.73
			c1.99-5.1,3.78-9.49,5.38-13.16c1.59-3.67,2.65-6.08,3.15-7.24c1.19-2.33,2.86-2.98,4.99-1.96c2.51,1.19,3.17,2.85,1.96,4.99
			c-2.7,5.99-5.54,12.79-8.53,20.4c-2.99,7.61-5.61,15.06-7.86,22.35c-2.25,7.29-3.88,13.93-4.88,19.92c-1,6-0.87,10.19,0.39,12.57
			c0.21,0.37,0.41,0.64,0.61,0.82c0.19,0.18,0.4,0.36,0.59,0.53c1.12-0.25,2.7-1.6,4.73-4.07c2.03-2.46,4.28-5.37,6.75-8.71
			c2.46-3.34,4.96-6.87,7.5-10.59c2.53-3.72,4.76-7.04,6.68-9.98c3.48-5.46,6.49-10.06,9.03-13.78c2.53-3.72,4.78-6.71,6.73-8.99
			c1.95-2.27,3.61-3.92,4.97-4.93c1.36-1.01,2.7-1.56,4.02-1.63c1.5-0.08,2.95,0.51,4.34,1.75c1.58,1.43,2.41,3.69,2.49,6.8
			c0.07,3.11-0.04,7.22-0.33,12.33c-0.18,3.78-0.29,7.89-0.33,12.33c-0.04,4.44,0.62,7.28,2.01,8.52c0.02,0.38,0.31,0.55,0.88,0.52
			c2.07-0.11,4.83-1.29,8.3-3.56c3.46-2.26,7.13-5.05,11.01-8.37c3.88-3.32,7.74-6.92,11.59-10.8c3.85-3.88,7.1-7.4,9.76-10.57
			c1.78-1.98,3.56-2.17,5.35-0.57c0.98,0.7,1.5,1.57,1.55,2.6c0.05,1.04-0.28,1.95-0.99,2.74c-1.43,1.59-3.92,4.31-7.48,8.18
			c-3.57,3.87-7.64,7.86-12.24,11.97c-4.59,4.11-9.3,7.76-14.13,10.94c-4.83,3.18-9.03,4.87-12.6,5.06
			c-2.84-0.22-5.06-1.14-6.66-2.76c-2.4-2.51-3.68-6.21-3.85-11.11c-0.17-4.89-0.02-10.09,0.44-15.58c0.08-1.89,0.17-3.92,0.24-6.1
			c0.07-2.17,0.07-4.01-0.01-5.52c-1.97,1.99-4.71,5.49-8.21,10.48c-3.51,5-6.74,9.75-9.71,14.24
			c-8.21,12.32-14.65,21.49-19.33,27.49C353.69,309.31,349.56,312.41,345.99,312.6z"/>
		<path class="st0" d="M522.42,193.68c2.28,0.26,3.48,1.51,3.6,3.77c-0.26,2.28-1.51,3.48-3.77,3.6
			c-11.13,0.03-21.29,0.43-30.49,1.2c-9.2,0.77-17.54,1.83-25.01,3.17c-6.71,22.62-12.9,46.38-18.54,71.3
			c-5.64,24.92-10.8,50.33-15.45,76.23c-0.46,1.91-1.63,2.92-3.52,3.02c-0.38,0.02-0.66-0.06-0.86-0.24
			c-2.28-0.26-3.29-1.62-3.05-4.08c4.69-25.33,9.82-50.22,15.39-74.67c5.58-24.44,11.54-47.87,17.89-70.28
			c-11.77,2.14-20.61,4.26-26.54,6.37c-5.92,2.11-8.98,3.17-9.17,3.18c-0.19,0.01-0.37,0.07-0.56,0.17
			c-0.18,0.11-0.37,0.16-0.56,0.17c-1.5,0.08-2.68-0.71-3.52-2.36c-0.43-0.92-0.47-1.81-0.14-2.68c0.33-0.87,0.96-1.51,1.88-1.94
			c0.37-0.21,3.98-1.49,10.83-3.83c6.86-2.35,16.92-4.63,30.19-6.85c0.29-1.52,0.69-2.96,1.18-4.31c0.49-1.34,0.89-2.78,1.18-4.31
			c-0.94,0.05-1.61-0.1-2-0.46c-2.14-1.2-2.61-2.88-1.4-5.02c1.92-2.93,3.74-5.9,5.47-8.92c1.72-3.01,3.54-6.08,5.45-9.2l0.27-0.3
			c3.57-10.75,7.06-20.61,10.45-29.56c3.38-8.95,6.6-16.81,9.63-23.57c2.37-5.03,4.37-9,6.01-11.92c1.63-2.92,3.03-5.06,4.18-6.45
			c1.15-1.38,2.09-2.28,2.83-2.7c0.73-0.42,1.28-0.63,1.66-0.65c1.85-0.66,3.57-0.28,5.15,1.14c1.21,1.45,1.7,3.64,1.48,6.57
			c-0.22,2.94-1.93,7.98-5.13,15.13c-1.87,3.88-4.13,8.43-6.77,13.66c-2.65,5.23-5.68,11.06-9.11,17.46
			c-2.42,4.28-4.78,8.46-7.11,12.55s-4.53,7.88-6.61,11.39c-0.16,0.57-0.41,1.25-0.74,2.02c-1.29,4.22-2.61,8.54-3.98,12.94
			c-1.37,4.41-2.69,8.82-3.96,13.23c7.11-1.13,15.07-2.03,23.91-2.69C501.89,194.31,511.68,193.88,522.42,193.68z M502.52,107.31
			c-1.21,2.14-2.45,4.52-3.72,7.13c-1.28,2.61-2.57,5.75-3.88,9.4C497.97,117.46,500.51,111.95,502.52,107.31z"/>
		<path class="st0" d="M490.29,317.91c-2.07,0.11-3.92-0.07-5.55-0.55c-1.63-0.48-2.94-1.07-3.91-1.77
			c-5.09-3.5-8.04-9.24-8.84-17.21c-0.8-7.97,0.74-16.21,4.62-24.72c2.71-5.8,5.81-11.3,9.31-16.48c3.49-5.18,7.11-9.9,10.84-14.16
			c3.73-4.25,7.46-7.8,11.17-10.64c3.71-2.84,7.25-4.72,10.59-5.66c2.05-0.48,3.78-0.67,5.21-0.56c1.42,0.11,2.61,0.33,3.57,0.66
			c2.41-0.69,4.59-0.62,6.52,0.22c5.63,3.09,8.98,7.54,10.05,13.33c1.45,5.96,0.69,12.98-2.27,21.06c3.72-0.95,8.48-2.76,14.28-5.43
			c5.8-2.67,12.88-6.86,21.25-12.59c2.37-1.44,4.28-1.08,5.72,1.11c1.43,2.19,1.06,4-1.12,5.44c-18.38,12.68-33.01,19.4-43.91,20.17
			c-4.6,9.3-11.42,19.28-20.47,29.95c-5.67,6.91-10.8,11.57-15.38,13.98C497.38,316.44,493.48,317.74,490.29,317.91z M519.54,235.14
			c-2.41,0.88-5.15,2.54-8.22,4.97c-3.08,2.43-6.21,5.52-9.41,9.27c-3.2,3.76-6.37,7.98-9.51,12.67c-3.14,4.69-5.99,9.75-8.53,15.17
			c-3.4,6.97-4.8,13.51-4.19,19.61c0.61,6.1,2.47,10.1,5.59,12.01c2.93,1.92,6.69,1.62,11.27-0.88c4.58-2.51,9.53-6.92,14.85-13.24
			c4.07-4.93,7.56-9.5,10.44-13.71c2.89-4.21,5.27-8.06,7.16-11.56c-2.87-0.79-5.4-2.26-7.59-4.4c-1.79-1.79-3.14-3.98-4.03-6.57
			c-0.89-2.59-1.37-5.25-1.42-7.99c-0.05-2.73,0.28-5.44,0.98-8.12C517.66,239.67,518.52,237.27,519.54,235.14z M530.26,234.57
			c-0.38,0.02-1.14,0.72-2.29,2.1c-1.16,1.38-2.12,3.61-2.9,6.66c-0.79,2.87-1.05,5.95-0.78,9.24c0.27,3.29,1.58,5.81,3.94,7.57
			c0.79,0.71,2.33,1.29,4.62,1.73c2.17-5.21,3.36-9.42,3.57-12.64c0.2-3.22,0.08-5.57-0.38-7.05
			C535.26,238.26,533.33,235.73,530.26,234.57z"/>
		<path class="st0" d="M540.1,429.55l-0.85,0.04c-3.59-0.19-6.23-1.93-7.92-5.24c-3.38-6.8-0.35-19.84,9.09-39.11
			c9.44-19.28,24.59-43.8,45.44-73.59c-1.38-8.22-3.34-15.76-5.88-22.6c-2.54-6.84-5.1-13.4-7.7-19.68
			c-0.43-0.92-0.75-1.8-0.99-2.63c-0.23-0.84-0.47-1.72-0.71-2.65c-0.01-0.19-0.13-0.7-0.37-1.54c-0.23-0.84-0.47-1.76-0.71-2.79
			c-0.24-1.02-0.44-2.05-0.59-3.08c-0.15-1.03-0.24-1.83-0.27-2.39c-0.23-4.33,0.07-8.49,0.89-12.5c0.82-4.01,2.04-7.7,3.65-11.09
			c1.61-3.38,3.43-6.36,5.46-8.92c2.03-2.56,4.14-4.56,6.33-6c3.45-2.45,6.13-3.44,8.05-2.98c1.91,0.46,3.26,1.06,4.05,1.76
			c2.18,1.96,2.44,5.2,0.8,9.72c-1.65,4.52-5.54,11.1-11.68,19.72c-1.58,2.16-3.21,4.32-4.89,6.49c-1.68,2.17-3.22,4.13-4.64,5.91
			c0.33,2.81,1.26,6.06,2.78,9.75c2.37,5.53,4.66,11.31,6.87,17.32c2.2,6.01,4.15,12.47,5.84,19.35
			c5.07-7.44,10.56-15.04,16.46-22.81c5.9-7.77,12.12-15.88,18.65-24.34c1.4-1.96,3.18-2.15,5.35-0.57
			c2.16,1.58,2.44,3.36,0.85,5.33c-7.95,10.04-15.14,19.44-21.55,28.17c-6.42,8.74-12.44,17.03-18.05,24.87
			c1.52,10.86,1.22,22.76-0.92,35.7c-2.14,12.94-7.31,27.36-15.51,43.27c-2.56,5.04-5.46,9.81-8.71,14.33
			c-3.25,4.51-6.53,8.41-9.84,11.7c-3.31,3.29-6.62,5.91-9.91,7.88C545.7,428.36,542.74,429.41,540.1,429.55z M587.06,323.49
			c-9.28,13.51-16.95,25.24-23.02,35.18c-6.07,9.94-10.89,18.5-14.47,25.67c-3.58,7.17-6.18,13.11-7.82,17.82
			c-1.63,4.71-2.75,8.45-3.36,11.21c-0.6,2.76-0.78,4.71-0.54,5.83c0.25,1.12,0.38,1.77,0.39,1.96c0.4,0.35,0.79,0.52,1.16,0.5
			c1.52,0.1,3.51-0.57,5.98-2.02c2.47-1.45,5.14-3.62,8-6.51c2.87-2.89,5.84-6.35,8.92-10.38c3.09-4.03,5.9-8.66,8.45-13.89
			c6.49-12.79,10.9-24.59,13.25-35.37C586.34,342.72,587.37,332.71,587.06,323.49z M590.93,221.14c-0.92,0.43-2.01,1.19-3.27,2.3
			c-1.26,1.11-2.68,2.74-4.27,4.9c-0.88,1.18-1.96,3.03-3.24,5.55c-1.28,2.52-2.29,5.69-3.03,9.5c3.52-4.71,6.54-9.07,9.06-13.07
			C588.71,226.31,590.29,223.25,590.93,221.14z"/>
	</g>
</g>
<g>
	<g>
		<path class="st0" d="M23.08,107.3V37.71L70.6,87.43V42.15h9.83v69.12L32.91,61.69v45.62H23.08z"/>
		<path class="st0" d="M105.88,42.15v39.25c0,5.6,0.91,9.69,2.74,12.28c2.73,3.74,6.57,5.61,11.52,5.61c4.98,0,8.83-1.87,11.56-5.61
			c1.83-2.5,2.74-6.6,2.74-12.28V42.15h9.83v41.95c0,6.87-2.14,12.52-6.41,16.96c-4.81,4.95-10.72,7.43-17.72,7.43
			c-7.01,0-12.9-2.48-17.68-7.43c-4.28-4.44-6.41-10.1-6.41-16.96V42.15H105.88z"/>
		<path class="st0" d="M195.85,51.39h-26.12v15.66h25.36v9.24h-25.36v21.78h26.12v9.24H159.9V42.15h35.96V51.39z"/>
		<path class="st0" d="M245.61,51.85l-7.98,4.73c-1.49-2.59-2.91-4.28-4.26-5.06c-1.41-0.9-3.22-1.35-5.44-1.35
			c-2.73,0-4.99,0.77-6.79,2.32c-1.8,1.52-2.7,3.43-2.7,5.74c0,3.18,2.36,5.74,7.09,7.68l6.5,2.66c5.29,2.14,9.16,4.75,11.61,7.83
			c2.45,3.08,3.67,6.86,3.67,11.33c0,5.99-2,10.94-5.99,14.85c-4.02,3.94-9.02,5.91-14.98,5.91c-5.66,0-10.33-1.67-14.01-5.02
			c-3.63-3.35-5.89-8.06-6.79-14.14l9.96-2.19c0.45,3.83,1.24,6.47,2.36,7.93c2.03,2.81,4.98,4.22,8.86,4.22
			c3.07,0,5.61-1.03,7.64-3.08s3.04-4.66,3.04-7.81c0-1.27-0.18-2.43-0.53-3.48s-0.9-2.03-1.65-2.91c-0.75-0.89-1.71-1.72-2.89-2.49
			s-2.59-1.51-4.22-2.22l-6.29-2.62c-8.92-3.77-13.38-9.28-13.38-16.54c0-4.9,1.87-8.99,5.61-12.28c3.74-3.32,8.4-4.98,13.97-4.98
			C235.52,40.88,241.39,44.54,245.61,51.85z"/>
		<path class="st0" d="M278.36,51.39v55.92h-9.83V51.39h-14.98v-9.24h39.75v9.24H278.36z"/>
		<path class="st0" d="M324.14,79.54l20.17,27.77h-12.03l-18.61-26.67h-1.77v26.67h-9.83V42.15h11.52c8.61,0,14.83,1.62,18.65,4.85
			c4.22,3.6,6.33,8.36,6.33,14.26c0,4.61-1.32,8.58-3.97,11.9C331.96,76.48,328.48,78.61,324.14,79.54z M311.9,72.07h3.12
			c9.31,0,13.97-3.56,13.97-10.68c0-6.67-4.53-10-13.59-10h-3.5V72.07z"/>
		<path class="st0" d="M349.38,74.43c0-9.17,3.36-17.05,10.09-23.63c6.7-6.58,14.74-9.88,24.14-9.88c9.28,0,17.25,3.32,23.89,9.96
			c6.67,6.64,10,14.62,10,23.93c0,9.37-3.35,17.32-10.04,23.84c-6.72,6.56-14.84,9.83-24.35,9.83c-8.41,0-15.97-2.91-22.66-8.74
			C353.06,93.31,349.38,84.87,349.38,74.43z M359.3,74.56c0,7.2,2.42,13.12,7.26,17.77c4.81,4.64,10.37,6.96,16.67,6.96
			c6.84,0,12.6-2.36,17.3-7.09c4.7-4.78,7.05-10.61,7.05-17.47c0-6.95-2.32-12.77-6.96-17.47c-4.61-4.73-10.33-7.09-17.13-7.09
			c-6.78,0-12.51,2.36-17.18,7.09C361.63,61.92,359.3,67.69,359.3,74.56z"/>
		<path class="st0" d="M466.7,51.85l-7.98,4.73c-1.49-2.59-2.91-4.28-4.26-5.06c-1.41-0.9-3.22-1.35-5.44-1.35
			c-2.73,0-4.99,0.77-6.79,2.32c-1.8,1.52-2.7,3.43-2.7,5.74c0,3.18,2.36,5.74,7.09,7.68l6.5,2.66c5.29,2.14,9.16,4.75,11.61,7.83
			c2.45,3.08,3.67,6.86,3.67,11.33c0,5.99-2,10.94-5.99,14.85c-4.02,3.94-9.02,5.91-14.98,5.91c-5.66,0-10.33-1.67-14.01-5.02
			c-3.63-3.35-5.89-8.06-6.79-14.14l9.96-2.19c0.45,3.83,1.24,6.47,2.36,7.93c2.03,2.81,4.98,4.22,8.86,4.22
			c3.07,0,5.61-1.03,7.64-3.08s3.04-4.66,3.04-7.81c0-1.27-0.18-2.43-0.53-3.48s-0.9-2.03-1.65-2.91c-0.75-0.89-1.71-1.72-2.89-2.49
			s-2.59-1.51-4.22-2.22l-6.29-2.62c-8.92-3.77-13.38-9.28-13.38-16.54c0-4.9,1.87-8.99,5.61-12.28c3.74-3.32,8.4-4.98,13.97-4.98
			C456.61,40.88,462.48,44.54,466.7,51.85z"/>
	</g>
</g>
</svg>
