<?xml version="1.0" encoding="utf-8"?>
<!-- Generator: Adobe Illustrator 23.0.1, SVG Export Plug-In . SVG Version: 6.00 Build 0)  -->
<svg version="1.1" id="Capa_1" xmlns="http://www.w3.org/2000/svg" xmlns:xlink="http://www.w3.org/1999/xlink" x="0px" y="0px"
	 viewBox="0 0 564 233" style="enable-background:new 0 0 564 233;" xml:space="preserve">
<style type="text/css">
	.st0{fill:#6FC8B7;}
</style>
<g>
	<g>
		<g>
			<path class="st0" d="M9.26,74.73V5.14l47.52,49.71V9.57h9.83V78.7L19.09,29.11v45.62H9.26z"/>
			<path class="st0" d="M92.06,9.57v39.25c0,5.6,0.91,9.69,2.74,12.28c2.73,3.74,6.57,5.61,11.52,5.61c4.98,0,8.83-1.87,11.56-5.61
				c1.83-2.5,2.74-6.6,2.74-12.28V9.57h9.83v41.95c0,6.87-2.14,12.52-6.41,16.96c-4.81,4.95-10.72,7.43-17.72,7.43
				c-7.01,0-12.9-2.48-17.68-7.43c-4.28-4.44-6.41-10.1-6.41-16.96V9.57H92.06z"/>
			<path class="st0" d="M182.03,18.81h-26.12v15.66h25.36v9.24h-25.36v21.78h26.12v9.24h-35.96V9.57h35.96V18.81z"/>
			<path class="st0" d="M231.79,19.28L223.81,24c-1.49-2.59-2.91-4.28-4.26-5.06c-1.41-0.9-3.22-1.35-5.44-1.35
				c-2.73,0-4.99,0.77-6.79,2.32c-1.8,1.52-2.7,3.43-2.7,5.74c0,3.18,2.36,5.74,7.09,7.68l6.5,2.66c5.29,2.14,9.16,4.75,11.61,7.83
				c2.45,3.08,3.67,6.86,3.67,11.33c0,5.99-2,10.94-5.99,14.85c-4.02,3.94-9.02,5.91-14.98,5.91c-5.66,0-10.33-1.67-14.01-5.02
				c-3.63-3.35-5.89-8.06-6.79-14.14l9.96-2.19c0.45,3.83,1.24,6.47,2.36,7.93c2.03,2.81,4.98,4.22,8.86,4.22
				c3.07,0,5.61-1.03,7.64-3.08s3.04-4.66,3.04-7.81c0-1.27-0.18-2.43-0.53-3.48s-0.9-2.03-1.65-2.91
				c-0.75-0.89-1.71-1.72-2.89-2.49s-2.59-1.51-4.22-2.22l-6.29-2.62c-8.92-3.77-13.38-9.28-13.38-16.54c0-4.9,1.87-8.99,5.61-12.28
				c3.74-3.32,8.4-4.98,13.97-4.98C221.7,8.3,227.57,11.96,231.79,19.28z"/>
			<path class="st0" d="M264.54,18.81v55.92h-9.83V18.81h-14.98V9.57h39.75v9.24H264.54z"/>
			<path class="st0" d="M310.32,46.96l20.17,27.77h-12.03l-18.61-26.67h-1.77v26.67h-9.83V9.57h11.52c8.61,0,14.83,1.62,18.65,4.85
				c4.22,3.6,6.33,8.36,6.33,14.26c0,4.61-1.32,8.58-3.97,11.9C318.14,43.91,314.66,46.03,310.32,46.96z M298.08,39.49h3.12
				c9.31,0,13.97-3.56,13.97-10.68c0-6.67-4.53-10-13.59-10h-3.5V39.49z"/>
			<path class="st0" d="M335.56,41.85c0-9.17,3.36-17.05,10.09-23.63c6.7-6.58,14.74-9.88,24.14-9.88c9.28,0,17.25,3.32,23.89,9.96
				c6.67,6.64,10,14.62,10,23.93c0,9.37-3.35,17.32-10.04,23.84c-6.72,6.56-14.84,9.83-24.35,9.83c-8.41,0-15.97-2.91-22.66-8.74
				C339.24,60.73,335.56,52.29,335.56,41.85z M345.48,41.98c0,7.2,2.42,13.12,7.26,17.77c4.81,4.64,10.37,6.96,16.67,6.96
				c6.84,0,12.6-2.36,17.3-7.09c4.7-4.78,7.05-10.61,7.05-17.47c0-6.95-2.32-12.77-6.96-17.47c-4.61-4.73-10.33-7.09-17.13-7.09
				c-6.78,0-12.51,2.36-17.18,7.09C347.81,29.35,345.48,35.12,345.48,41.98z"/>
			<path class="st0" d="M452.88,19.28L444.9,24c-1.49-2.59-2.91-4.28-4.26-5.06c-1.41-0.9-3.22-1.35-5.44-1.35
				c-2.73,0-4.99,0.77-6.79,2.32c-1.8,1.52-2.7,3.43-2.7,5.74c0,3.18,2.36,5.74,7.09,7.68l6.5,2.66c5.29,2.14,9.16,4.75,11.61,7.83
				c2.45,3.08,3.67,6.86,3.67,11.33c0,5.99-2,10.94-5.99,14.85c-4.02,3.94-9.02,5.91-14.98,5.91c-5.66,0-10.33-1.67-14.01-5.02
				c-3.63-3.35-5.89-8.06-6.79-14.14l9.96-2.19c0.45,3.83,1.24,6.47,2.36,7.93c2.03,2.81,4.98,4.22,8.86,4.22
				c3.07,0,5.61-1.03,7.64-3.08s3.04-4.66,3.04-7.81c0-1.27-0.18-2.43-0.53-3.48s-0.9-2.03-1.65-2.91
				c-0.75-0.89-1.71-1.72-2.89-2.49s-2.59-1.51-4.22-2.22l-6.29-2.62c-8.92-3.77-13.38-9.28-13.38-16.54c0-4.9,1.87-8.99,5.61-12.28
				c3.74-3.32,8.4-4.98,13.97-4.98C442.79,8.3,448.66,11.96,452.88,19.28z"/>
		</g>
	</g>
	<g>
		<g>
			<path class="st0" d="M120.84,227.86c-0.32,0-0.74-0.11-1.27-0.32c-0.53-0.21-0.95-0.74-1.27-1.59c-0.21-0.43-0.32-0.9-0.32-1.43
				c-0.1-1.59,0.4-4.32,1.51-8.19c1.11-3.87,2.6-8.48,4.45-13.84c1.86-5.36,4-11.19,6.44-17.5c2.44-6.31,4.96-12.72,7.56-19.25
				c2.6-6.52,5.2-12.91,7.79-19.17c2.6-6.26,5.01-11.98,7.24-17.18c2.23-5.19,4.14-9.62,5.73-13.28c1.59-3.66,2.65-6.12,3.18-7.4
				c0.21-0.53,0.58-0.9,1.11-1.11c0.53-0.21,1.06-0.21,1.59,0c1.27,0.53,1.64,1.43,1.11,2.7c-1.59,3.71-3.47,8.09-5.65,13.12
				c-2.17,5.04-4.45,10.47-6.84,16.3c-2.39,5.83-4.88,11.88-7.48,18.13c-2.6,6.26-5.09,12.41-7.48,18.45
				c-2.39,6.04-4.61,11.85-6.68,17.42c-2.07,5.57-3.84,10.52-5.33,14.87c2.33-6.04,5.3-13.28,8.91-21.71
				c3.61-8.43,7.95-17.26,13.04-26.48c5.09-9.22,11.03-18.4,17.81-27.52c6.78-9.12,14.53-17.44,23.22-24.97
				c0.74-0.74,1.59-0.85,2.54-0.32c0.85,0.53,1.22,1.25,1.11,2.15c-0.11,0.9-0.64,2.94-1.59,6.12c-0.64,2.33-1.38,5.09-2.23,8.27
				c-0.85,3.18-1.49,6.31-1.91,9.38c-0.32,2.23-0.5,4.03-0.56,5.41c-0.05,1.38,0,2.44,0.16,3.18c0.16,0.74,0.34,1.25,0.56,1.51
				c0.21,0.27,0.37,0.4,0.48,0.4c0.64,0.32,1.48,0.32,2.54,0c1.91-0.64,4.11-2.01,6.6-4.14c2.49-2.12,4.88-4.43,7.16-6.92
				c2.28-2.49,4.32-4.9,6.12-7.24c1.8-2.33,3.02-4.08,3.66-5.25c0.21-0.53,0.58-0.88,1.11-1.03c0.53-0.16,1.06-0.13,1.59,0.08
				c0.53,0.21,0.88,0.61,1.03,1.19c0.16,0.58,0.13,1.14-0.08,1.67c-0.64,1.17-1.88,3-3.74,5.49c-1.86,2.49-4.03,5.12-6.52,7.87
				c-2.49,2.76-5.14,5.3-7.95,7.63c-2.81,2.33-5.38,3.87-7.71,4.61c-2.33,0.64-4.24,0.53-5.73-0.32c-1.59-0.74-2.62-2.17-3.1-4.29
				c-0.48-2.12-0.56-4.64-0.24-7.55c0.32-2.92,0.9-6.12,1.75-9.62c0.85-3.5,1.8-7.1,2.86-10.82c-8.06,7.63-15.22,15.98-21.47,25.05
				c-6.26,9.07-11.75,18.05-16.46,26.96c-4.72,8.91-8.72,17.34-12.01,25.29c-3.29,7.95-5.99,14.69-8.11,20.2
				c-1.27,3.18-2.31,5.73-3.1,7.63c-0.79,1.91-1.46,3.42-1.99,4.53c-0.53,1.11-1.03,1.85-1.51,2.23
				C122.04,227.67,121.48,227.86,120.84,227.86z"/>
			<path class="st0" d="M207.85,160.42c-1.17,0-1.96-0.48-2.39-1.43c-0.21-0.32-0.4-0.82-0.56-1.51c-0.16-0.69-0.13-1.96,0.08-3.82
				c0.21-1.85,0.74-4.5,1.59-7.95c0.85-3.44,2.17-8.08,3.98-13.92c0.85-2.76,1.72-5.46,2.62-8.11c0.9-2.65,1.7-4.98,2.39-7
				c0.69-2.01,1.51-4.29,2.47-6.84c0.21-0.53,0.58-0.93,1.11-1.19c0.53-0.26,1.06-0.29,1.59-0.08c0.53,0.21,0.93,0.61,1.19,1.19
				c0.26,0.58,0.29,1.14,0.08,1.67c-1.49,3.92-2.92,7.93-4.29,12.01c-1.38,4.08-2.62,7.98-3.74,11.69
				c-1.11,3.71-2.07,7.13-2.86,10.26c-0.79,3.13-1.35,5.7-1.67,7.71c0.74-1.38,1.59-2.99,2.54-4.85c0.95-1.85,1.85-3.68,2.7-5.49
				c2.33-4.67,4.64-9.12,6.92-13.36c2.28-4.24,4.5-7.98,6.68-11.21c2.17-3.23,4.35-5.91,6.52-8.03c2.17-2.12,4.37-3.44,6.6-3.98
				l0.16-0.16c0.74-0.1,1.32-0.05,1.75,0.16c0.42,0.21,0.74,0.42,0.95,0.64c0.74,0.74,1.09,1.7,1.03,2.86
				c-0.05,1.17-0.19,2.49-0.4,3.98c-0.21,1.38-0.4,2.89-0.56,4.53c-0.16,1.65,0.13,2.73,0.88,3.26c0.21,0.21,0.77,0.37,1.67,0.48
				c0.9,0.11,2.52-0.26,4.85-1.11c1.38-0.42,2.28,0.05,2.7,1.43c0.21,0.53,0.18,1.06-0.08,1.59c-0.27,0.53-0.66,0.9-1.19,1.11
				c-4.99,1.8-8.59,1.75-10.82-0.16c-1.59-1.38-2.36-3.15-2.31-5.33c0.05-2.17,0.24-4.32,0.56-6.44c0-0.53,0.1-1.22,0.32-2.07
				c-1.8,0.96-3.71,2.68-5.73,5.17c-2.02,2.49-3.98,5.36-5.88,8.59c-1.91,3.24-3.79,6.63-5.65,10.18c-1.86,3.55-3.53,6.82-5.01,9.78
				c-1.59,3.08-2.92,5.62-3.98,7.63c-1.06,2.02-1.99,3.63-2.78,4.85c-0.79,1.22-1.48,2.07-2.07,2.54c-0.58,0.48-1.19,0.72-1.83,0.72
				H207.85z"/>
			<path class="st0" d="M260.17,158.83c-1.17,0-2.2-0.16-3.1-0.48c-0.9-0.32-1.62-0.69-2.15-1.11c-2.76-2.12-4.24-5.43-4.45-9.94
				c-0.21-4.5,0.9-9.09,3.34-13.76c1.7-3.18,3.6-6.18,5.73-8.99c2.12-2.81,4.29-5.35,6.52-7.63c2.23-2.28,4.43-4.16,6.6-5.65
				c2.17-1.48,4.21-2.44,6.12-2.86c1.17-0.21,2.15-0.26,2.94-0.16c0.8,0.11,1.46,0.27,1.99,0.48c1.38-0.32,2.6-0.21,3.66,0.32
				c3.07,1.91,4.82,4.51,5.25,7.79c0.64,3.39,0,7.32-1.91,11.77c2.12-0.42,4.85-1.3,8.19-2.62c3.34-1.33,7.45-3.47,12.33-6.44
				c1.38-0.74,2.44-0.48,3.18,0.8c0.74,1.27,0.48,2.28-0.8,3.02c-10.71,6.58-19.14,9.92-25.29,10.02c-2.86,5.09-7,10.5-12.41,16.22
				c-3.4,3.71-6.42,6.18-9.07,7.4C264.2,158.22,261.97,158.83,260.17,158.83z M279.1,113.18c-1.38,0.42-2.97,1.27-4.77,2.54
				c-1.8,1.27-3.66,2.92-5.57,4.93c-1.91,2.02-3.82,4.29-5.73,6.84c-1.91,2.54-3.66,5.3-5.25,8.27c-2.12,3.82-3.1,7.45-2.94,10.9
				c0.16,3.45,1.09,5.75,2.78,6.92c1.59,1.17,3.71,1.11,6.36-0.16c2.65-1.27,5.57-3.6,8.75-7c2.44-2.65,4.53-5.12,6.28-7.4
				c1.75-2.28,3.21-4.37,4.37-6.28c-1.59-0.53-2.97-1.43-4.14-2.7c-0.95-1.06-1.65-2.33-2.07-3.82c-0.43-1.48-0.61-3-0.56-4.53
				c0.05-1.54,0.32-3.05,0.8-4.53C277.91,115.67,278.46,114.35,279.1,113.18z M285.14,113.18c-0.21,0-0.66,0.37-1.35,1.11
				c-0.69,0.74-1.3,1.96-1.83,3.66c-0.53,1.59-0.77,3.32-0.72,5.17c0.05,1.86,0.72,3.32,1.99,4.37c0.42,0.42,1.27,0.79,2.54,1.11
				c1.38-2.86,2.17-5.19,2.39-7c0.21-1.8,0.21-3.13,0-3.98C287.85,115.41,286.84,113.92,285.14,113.18z"/>
			<path class="st0" d="M306.62,163.28c-0.74,0-1.38-0.11-1.91-0.32c-0.53-0.21-1.01-0.42-1.43-0.64c-1.59-0.95-2.76-2.52-3.5-4.69
				c-0.74-2.17-1.06-4.67-0.95-7.48c0.11-2.81,0.58-5.83,1.43-9.07c0.85-3.23,2.07-6.39,3.66-9.46c4.67-8.59,9.33-14.9,14-18.93
				c4.66-4.03,8.59-6.36,11.77-7c1.7-0.42,3.07-0.45,4.14-0.08c1.06,0.37,1.85,0.77,2.39,1.19c1.17,1.06,1.96,2.2,2.39,3.42
				c0.42,1.22,0.53,2.41,0.32,3.58c1.48-2.65,2.92-5.33,4.29-8.03c1.38-2.7,2.81-5.43,4.29-8.19c3.29-9.65,6.31-17.87,9.07-24.65
				c2.01-4.88,4.06-9.54,6.12-14c2.07-4.45,4-8.48,5.81-12.09c1.48-2.65,2.7-4.72,3.66-6.2c0.95-1.48,1.75-2.54,2.39-3.18
				c0.64-0.64,1.14-1.01,1.51-1.11c0.37-0.1,0.72-0.16,1.03-0.16c0.53,0.11,1.06,0.37,1.59,0.79c0.53,0.42,0.79,1.06,0.79,1.91
				c0,1.17-0.77,3.66-2.31,7.48c-1.54,3.82-3.58,8.49-6.12,14c-2.54,5.51-5.51,11.64-8.91,18.37c-3.39,6.73-6.89,13.6-10.5,20.6
				c-2.76,8.59-5.33,17.79-7.71,27.6c-2.39,9.81-4.32,20.02-5.81,30.62c-0.11,0.53-0.4,1.01-0.88,1.43
				c-0.48,0.42-1.03,0.58-1.67,0.48c-0.53-0.1-1.01-0.4-1.43-0.88c-0.43-0.48-0.58-1.03-0.48-1.67c0.95-7,2.12-13.73,3.5-20.2
				c1.38-6.47,2.86-12.72,4.45-18.77c-3.71,6.68-7.24,12.83-10.58,18.45c-3.34,5.62-6.39,10.34-9.15,14.16
				c-3.39,4.99-6.34,8.35-8.83,10.1C310.56,162.41,308.42,163.28,306.62,163.28z M331.75,109.84c-0.53,0-0.95,0.05-1.27,0.16
				c-2.54,0.53-5.88,2.62-10.02,6.28c-4.14,3.66-8.33,9.46-12.57,17.42c-1.49,2.86-2.6,5.67-3.34,8.43
				c-0.74,2.76-1.17,5.28-1.27,7.56c-0.1,2.28,0.03,4.21,0.4,5.8c0.37,1.59,0.98,2.6,1.83,3.02c0.85,0.53,2.36,0.13,4.53-1.19
				c2.17-1.32,4.9-4.37,8.19-9.15c2.54-3.6,5.27-7.82,8.19-12.64c2.92-4.82,5.91-9.94,8.99-15.35c-0.74,0.21-1.38,0.05-1.91-0.48
				c-0.53-0.32-0.85-0.77-0.95-1.35c-0.11-0.58,0.05-1.14,0.48-1.67c0.64-0.96,1.06-1.75,1.27-2.39c0.21-0.64,0.26-1.33,0.16-2.07
				c-0.11-0.74-0.48-1.38-1.11-1.91C333.02,110,332.49,109.84,331.75,109.84z"/>
			<path class="st0" d="M360.06,149.45c-1.06,0-1.96-0.26-2.7-0.79c-3.07-1.91-3.44-7.21-1.11-15.91c0.85-2.76,1.88-5.73,3.1-8.91
				c1.22-3.18,2.52-6.2,3.9-9.07c1.27-2.44,2.36-4.32,3.26-5.65c0.9-1.32,1.67-2.31,2.31-2.94c0.64-0.64,1.17-1.01,1.59-1.11
				c0.42-0.1,0.79-0.16,1.11-0.16c1.38,0,2.39,0.53,3.02,1.59c0.85,1.38,0.98,3.05,0.4,5.01c-0.58,1.96-1.14,3.42-1.67,4.37
				c-0.21,0.53-0.58,0.88-1.11,1.03c-0.53,0.16-1.06,0.13-1.59-0.08c-0.53-0.21-0.88-0.61-1.03-1.19c-0.16-0.58-0.13-1.14,0.08-1.67
				c0.32-0.64,0.58-1.35,0.79-2.15c0.21-0.79,0.42-1.46,0.64-1.99c-0.95,1.17-2.12,3.08-3.5,5.73c-1.38,2.65-2.7,5.57-3.98,8.75
				c-1.27,3.18-2.39,6.39-3.34,9.62c-0.95,3.24-1.43,6.02-1.43,8.35c0,1.7,0.26,2.65,0.8,2.86c0.32,0.21,0.79,0.21,1.43,0
				c1.8-0.64,3.95-2.2,6.44-4.69c2.49-2.49,4.9-5.22,7.24-8.19c2.33-2.97,4.37-5.78,6.12-8.43c1.75-2.65,2.78-4.4,3.1-5.25
				c0.42-0.95,0.9-1.48,1.43-1.59c0.53-0.1,0.95-0.1,1.27,0c0.85,0.21,1.32,0.69,1.43,1.43c0.1,0.74,0.1,1.75,0,3.02
				c-0.11,0.95-0.24,2.33-0.4,4.14c-0.16,1.8-0.19,3.63-0.08,5.49c0.1,1.86,0.42,3.47,0.95,4.85c0.53,1.38,1.38,2.17,2.54,2.39
				c1.38,0.21,3.05-0.24,5.01-1.35c1.96-1.11,3.98-2.54,6.04-4.29c2.07-1.75,4.06-3.66,5.96-5.73c1.91-2.07,3.55-4,4.93-5.81
				c0.95-1.17,1.96-1.27,3.02-0.32c0.95,0.74,1.06,1.7,0.32,2.86c-0.32,0.32-0.9,1.01-1.75,2.07c-0.85,1.06-1.91,2.28-3.18,3.66
				c-1.27,1.38-2.7,2.84-4.29,4.37c-1.59,1.54-3.26,2.94-5.01,4.21c-1.75,1.27-3.53,2.33-5.33,3.18c-1.8,0.85-3.5,1.27-5.09,1.27
				c-0.64,0-1.06-0.05-1.27-0.16c-1.59-0.21-2.86-0.82-3.82-1.83c-0.95-1.01-1.67-2.23-2.15-3.66c-0.48-1.43-0.77-3.02-0.88-4.77
				c-0.11-1.75-0.16-3.42-0.16-5.01c-1.38,2.02-2.94,4.19-4.69,6.52c-1.75,2.33-3.58,4.56-5.49,6.68c-1.91,2.12-3.82,3.98-5.73,5.57
				c-1.91,1.59-3.66,2.65-5.25,3.18C361.43,149.29,360.69,149.45,360.06,149.45z"/>
			<path class="st0" d="M410.32,161.38c-0.42,0-1.06-0.1-1.91-0.32c-3.39-1.17-4.93-4.88-4.61-11.13c0.32-5.09,1.25-9.97,2.78-14.63
				c1.54-4.67,3.42-8.88,5.65-12.65c2.23-3.76,4.61-7,7.16-9.7c2.54-2.7,4.93-4.64,7.16-5.81c1.8-0.95,3.29-1.4,4.45-1.35
				c1.17,0.05,2.07,0.29,2.7,0.72c1.8,1.06,2.89,2.65,3.26,4.77c0.37,2.12,0.4,4.29,0.08,6.52c-0.32,2.23-0.77,4.24-1.35,6.04
				c-0.58,1.8-0.98,2.92-1.19,3.34c-0.21,0.53-0.56,0.93-1.03,1.19c-0.48,0.27-0.98,0.29-1.51,0.08c-0.53-0.21-0.9-0.58-1.11-1.11
				c-0.21-0.53-0.21-1.06,0-1.59c0.42-1.06,0.85-2.39,1.27-3.98c0.42-1.59,0.74-3.18,0.96-4.77c0.21-1.59,0.24-3.02,0.08-4.29
				s-0.66-2.17-1.51-2.7c-0.43-0.32-1.49-0.1-3.18,0.64c-2.02,1.17-4.16,2.97-6.44,5.41c-2.28,2.44-4.43,5.41-6.44,8.91
				c-2.02,3.5-3.74,7.37-5.17,11.61c-1.43,4.24-2.25,8.75-2.46,13.52c-0.32,4.24,0.27,6.58,1.75,7c1.59,0.53,4.06-0.34,7.4-2.62
				c3.34-2.28,6.97-5.27,10.9-8.99c3.92-3.71,7.79-7.82,11.61-12.33c3.82-4.51,7-8.67,9.54-12.49c0.21-0.53,0.58-0.82,1.11-0.87
				c0.53-0.05,1.06,0.08,1.59,0.4c0.53,0.32,0.85,0.74,0.96,1.27c0.1,0.53,0,1.01-0.32,1.43c-0.95,1.49-2.39,3.45-4.29,5.88
				c-1.91,2.44-4.08,5.09-6.52,7.95c-2.44,2.86-5.07,5.75-7.87,8.67c-2.81,2.92-5.62,5.57-8.43,7.95c-2.81,2.39-5.51,4.32-8.11,5.8
				C414.64,160.63,412.33,161.38,410.32,161.38z"/>
			<path class="st0" d="M493.66,89.96c1.27,0.21,1.91,0.95,1.91,2.23c-0.21,1.27-0.95,1.91-2.23,1.91
				c-6.26-0.32-11.98-0.4-17.18-0.24c-5.2,0.16-9.92,0.5-14.16,1.03c-4.45,12.51-8.64,25.69-12.57,39.53
				c-3.92,13.84-7.58,27.97-10.97,42.39c-0.32,1.06-1.01,1.59-2.07,1.59c-0.21,0-0.37-0.05-0.48-0.16c-1.27-0.21-1.8-1.01-1.59-2.39
				c3.39-14.1,7.03-27.94,10.89-41.51c3.87-13.57,7.93-26.56,12.17-38.97c-6.68,0.85-11.71,1.78-15.11,2.78
				c-3.39,1.01-5.14,1.51-5.25,1.51c-0.1,0-0.21,0.03-0.32,0.08c-0.1,0.05-0.21,0.08-0.32,0.08c-0.85,0-1.48-0.48-1.91-1.43
				c-0.21-0.53-0.21-1.03,0-1.51c0.21-0.48,0.58-0.82,1.11-1.03c0.21-0.1,2.28-0.71,6.2-1.83c3.92-1.11,9.65-2.09,17.18-2.94
				c0.21-0.85,0.48-1.64,0.79-2.39c0.32-0.74,0.58-1.54,0.79-2.39c-0.53,0-0.9-0.1-1.11-0.32c-1.17-0.74-1.38-1.69-0.64-2.86
				c1.17-1.59,2.28-3.21,3.34-4.85c1.06-1.64,2.17-3.31,3.34-5.01l0.16-0.16c2.33-5.94,4.59-11.37,6.76-16.3
				c2.17-4.93,4.22-9.25,6.12-12.96c1.48-2.76,2.73-4.93,3.74-6.52c1.01-1.59,1.85-2.76,2.54-3.5c0.69-0.74,1.25-1.22,1.67-1.43
				c0.42-0.21,0.74-0.32,0.95-0.32c1.06-0.32,2.01-0.05,2.86,0.79c0.64,0.85,0.85,2.1,0.64,3.74c-0.21,1.64-1.33,4.43-3.34,8.35
				c-1.17,2.12-2.57,4.61-4.21,7.47c-1.65,2.86-3.53,6.04-5.65,9.54c-1.49,2.33-2.94,4.61-4.37,6.84c-1.43,2.23-2.78,4.29-4.06,6.2
				c-0.11,0.32-0.27,0.69-0.48,1.11c-0.85,2.33-1.72,4.72-2.62,7.16c-0.9,2.44-1.78,4.88-2.62,7.32c4.03-0.42,8.53-0.69,13.52-0.8
				C482.1,89.7,487.61,89.75,493.66,89.96z M485.07,40.81c-0.74,1.17-1.51,2.46-2.31,3.9s-1.62,3.16-2.46,5.17
				C482.21,46.38,483.8,43.36,485.07,40.81z"/>
			<path class="st0" d="M471.87,158.83c-1.17,0-2.2-0.16-3.1-0.48c-0.9-0.32-1.62-0.69-2.15-1.11c-2.76-2.12-4.24-5.43-4.45-9.94
				c-0.21-4.5,0.9-9.09,3.34-13.76c1.7-3.18,3.6-6.18,5.73-8.99c2.12-2.81,4.29-5.35,6.52-7.63c2.23-2.28,4.43-4.16,6.6-5.65
				c2.17-1.48,4.21-2.44,6.12-2.86c1.17-0.21,2.15-0.26,2.94-0.16c0.8,0.11,1.46,0.27,1.99,0.48c1.38-0.32,2.6-0.21,3.66,0.32
				c3.07,1.91,4.82,4.51,5.25,7.79c0.64,3.39,0,7.32-1.91,11.77c2.12-0.42,4.85-1.3,8.19-2.62c3.34-1.33,7.45-3.47,12.33-6.44
				c1.38-0.74,2.44-0.48,3.18,0.8c0.74,1.27,0.48,2.28-0.8,3.02c-10.71,6.58-19.14,9.92-25.29,10.02c-2.86,5.09-7,10.5-12.41,16.22
				c-3.4,3.71-6.42,6.18-9.07,7.4C475.89,158.22,473.67,158.83,471.87,158.83z M490.79,113.18c-1.38,0.42-2.97,1.27-4.77,2.54
				c-1.8,1.27-3.66,2.92-5.57,4.93c-1.91,2.02-3.82,4.29-5.73,6.84c-1.91,2.54-3.66,5.3-5.25,8.27c-2.12,3.82-3.1,7.45-2.94,10.9
				c0.16,3.45,1.09,5.75,2.78,6.92c1.59,1.17,3.71,1.11,6.36-0.16c2.65-1.27,5.57-3.6,8.75-7c2.44-2.65,4.53-5.12,6.28-7.4
				c1.75-2.28,3.21-4.37,4.37-6.28c-1.59-0.53-2.97-1.43-4.14-2.7c-0.95-1.06-1.65-2.33-2.07-3.82c-0.43-1.48-0.61-3-0.56-4.53
				c0.05-1.54,0.32-3.05,0.8-4.53C489.6,115.67,490.16,114.35,490.79,113.18z M496.84,113.18c-0.21,0-0.66,0.37-1.35,1.11
				c-0.69,0.74-1.3,1.96-1.83,3.66c-0.53,1.59-0.77,3.32-0.72,5.17c0.05,1.86,0.72,3.32,1.99,4.37c0.42,0.42,1.27,0.79,2.54,1.11
				c1.38-2.86,2.17-5.19,2.39-7c0.21-1.8,0.21-3.13,0-3.98C499.54,115.41,498.53,113.92,496.84,113.18z"/>
			<path class="st0" d="M496.52,223.09h-0.48c-2.01-0.21-3.45-1.27-4.29-3.18c-1.7-3.92,0.4-11.16,6.28-21.71
				c5.89-10.55,15.14-23.88,27.76-40c-0.53-4.67-1.41-8.96-2.62-12.88c-1.22-3.92-2.46-7.69-3.74-11.29
				c-0.21-0.53-0.37-1.03-0.48-1.51c-0.1-0.48-0.21-0.98-0.32-1.51c0-0.1-0.05-0.4-0.16-0.88c-0.1-0.48-0.21-1.01-0.32-1.59
				c-0.1-0.58-0.18-1.17-0.24-1.75c-0.05-0.58-0.08-1.03-0.08-1.35c0-2.44,0.29-4.77,0.88-7c0.58-2.23,1.38-4.27,2.39-6.12
				c1.01-1.85,2.12-3.47,3.34-4.85c1.22-1.38,2.47-2.44,3.74-3.18c2.01-1.27,3.55-1.75,4.61-1.43c1.06,0.32,1.8,0.69,2.23,1.11
				c1.17,1.17,1.22,3,0.16,5.49c-1.06,2.49-3.45,6.07-7.16,10.74c-0.95,1.17-1.94,2.33-2.94,3.5c-1.01,1.17-1.94,2.23-2.78,3.18
				c0.1,1.59,0.53,3.45,1.27,5.57c1.17,3.18,2.28,6.5,3.34,9.94c1.06,3.45,1.96,7.13,2.7,11.05c3.07-4.03,6.39-8.14,9.94-12.33
				c3.55-4.19,7.29-8.56,11.21-13.12c0.85-1.06,1.85-1.11,3.02-0.16c1.17,0.95,1.27,1.96,0.32,3.02
				c-4.77,5.41-9.09,10.47-12.96,15.19c-3.87,4.72-7.5,9.2-10.9,13.44c0.53,6.15,0,12.83-1.59,20.04
				c-1.59,7.21-4.93,15.16-10.02,23.86c-1.59,2.76-3.36,5.35-5.33,7.79c-1.96,2.44-3.92,4.53-5.88,6.28
				c-1.96,1.75-3.9,3.13-5.81,4.14C499.7,222.58,498,223.09,496.52,223.09z M526.1,164.88c-5.62,7.32-10.28,13.68-14,19.09
				c-3.71,5.41-6.68,10.07-8.91,14c-2.23,3.92-3.87,7.18-4.93,9.78c-1.06,2.6-1.8,4.66-2.23,6.2c-0.42,1.54-0.58,2.62-0.48,3.26
				c0.11,0.64,0.16,1.01,0.16,1.11c0.21,0.21,0.42,0.32,0.64,0.32c0.85,0.1,1.99-0.21,3.42-0.95c1.43-0.74,3-1.88,4.69-3.42
				c1.7-1.54,3.47-3.39,5.33-5.57c1.86-2.17,3.58-4.69,5.17-7.55c4.03-7,6.86-13.5,8.51-19.48
				C525.12,175.66,525.99,170.07,526.1,164.88z M531.35,107.46c-0.53,0.21-1.17,0.61-1.91,1.19c-0.74,0.58-1.59,1.46-2.54,2.62
				c-0.53,0.64-1.19,1.65-1.99,3.02c-0.8,1.38-1.46,3.13-1.99,5.25c2.12-2.54,3.95-4.9,5.49-7.08
				C529.94,110.29,530.93,108.62,531.35,107.46z"/>
		</g>
	</g>
</g>
</svg>
