<?xml version="1.0" encoding="utf-8"?>
<!-- Generator: Adobe Illustrator 23.0.1, SVG Export Plug-In . SVG Version: 6.00 Build 0)  -->
<svg version="1.1" id="Capa_1" xmlns="http://www.w3.org/2000/svg" xmlns:xlink="http://www.w3.org/1999/xlink" x="0px" y="0px"
	 viewBox="0 0 569 190" style="enable-background:new 0 0 569 190;" xml:space="preserve">
<style type="text/css">
	.st0{fill:#6FC8B7;}
</style>
<g>
	<g>
		<g>
			<path class="st0" d="M29.64,21.65v49.03h-8.62V21.65H7.89v-8.1h34.86v8.1H29.64z"/>
			<path class="st0" d="M59.06,13.54v57.13h-8.62V13.54H59.06z"/>
			<path class="st0" d="M81.41,47.47v23.2h-8.62V13.54h9.77c4.79,0,8.4,0.33,10.84,1c2.47,0.67,4.64,1.92,6.51,3.77
				c3.28,3.21,4.92,7.25,4.92,12.14c0,5.23-1.75,9.37-5.25,12.43c-3.5,3.06-8.23,4.59-14.17,4.59H81.41z M81.41,39.48h3.22
				c7.92,0,11.88-3.05,11.88-9.14c0-5.89-4.08-8.84-12.25-8.84h-2.85V39.48z"/>
			<path class="st0" d="M110.86,41.85c0-8.04,2.95-14.95,8.84-20.72c5.87-5.77,12.93-8.66,21.16-8.66c8.14,0,15.12,2.91,20.94,8.73
				c5.85,5.82,8.77,12.81,8.77,20.98c0,8.21-2.94,15.18-8.81,20.91c-5.9,5.75-13.01,8.62-21.35,8.62c-7.38,0-14-2.55-19.87-7.66
				C114.09,58.4,110.86,51,110.86,41.85z M119.56,41.96c0,6.31,2.12,11.51,6.36,15.58c4.22,4.07,9.09,6.11,14.62,6.11
				c6,0,11.05-2.07,15.17-6.22c4.12-4.19,6.18-9.3,6.18-15.32c0-6.09-2.04-11.2-6.11-15.32c-4.05-4.14-9.05-6.22-15.02-6.22
				c-5.95,0-10.97,2.07-15.06,6.22C121.6,30.88,119.56,35.94,119.56,41.96z"/>
			<path class="st0" d="M213.73,22.05l-6.99,4.14c-1.31-2.27-2.55-3.75-3.74-4.44c-1.23-0.79-2.82-1.18-4.77-1.18
				c-2.39,0-4.38,0.68-5.96,2.03c-1.58,1.33-2.37,3.01-2.37,5.03c0,2.79,2.07,5.03,6.22,6.73l5.7,2.33
				c4.64,1.88,8.03,4.16,10.17,6.86c2.15,2.7,3.22,6.01,3.22,9.93c0,5.25-1.75,9.6-5.25,13.02c-3.53,3.45-7.91,5.18-13.13,5.18
				c-4.96,0-9.05-1.47-12.29-4.4c-3.18-2.94-5.17-7.07-5.96-12.4l8.73-1.92c0.39,3.35,1.08,5.67,2.07,6.96
				c1.78,2.47,4.37,3.7,7.77,3.7c2.69,0,4.92-0.9,6.7-2.7c1.78-1.8,2.66-4.08,2.66-6.85c0-1.11-0.15-2.13-0.46-3.05
				c-0.31-0.93-0.79-1.78-1.44-2.55c-0.65-0.78-1.5-1.5-2.53-2.18s-2.27-1.33-3.7-1.94l-5.51-2.29c-7.82-3.3-11.73-8.14-11.73-14.5
				c0-4.29,1.64-7.88,4.92-10.77c3.28-2.91,7.36-4.37,12.25-4.37C204.88,12.43,210.03,15.64,213.73,22.05z"/>
			<path class="st0" d="M248.99,70.67V13.54h11.99c5.75,0,10.29,0.57,13.62,1.7c3.58,1.11,6.82,3,9.73,5.66
				c5.9,5.38,8.84,12.44,8.84,21.2c0,8.78-3.07,15.89-9.21,21.31c-3.08,2.71-6.31,4.6-9.69,5.66c-3.16,1.06-7.63,1.59-13.43,1.59
				H248.99z M257.61,62.57h3.88c3.87,0,7.09-0.41,9.66-1.22c2.57-0.86,4.88-2.23,6.96-4.11c4.24-3.87,6.36-8.92,6.36-15.13
				c0-6.26-2.1-11.35-6.29-15.24c-3.77-3.48-9.34-5.22-16.69-5.22h-3.88V62.57z"/>
			<path class="st0" d="M335.54,21.65h-22.9v13.73h22.24v8.1h-22.24v19.09h22.9v8.1h-31.52V13.54h31.52V21.65z"/>
		</g>
	</g>
	<g>
		<g>
			<path class="st0" d="M339.37,165.05c-1.48,0-2.6-0.64-3.34-1.91c-0.64-1.17-0.79-2.86-0.48-5.09c0.32-2.23,0.95-4.72,1.91-7.48
				c0.95-2.76,2.12-5.73,3.5-8.91c1.38-3.18,2.84-6.28,4.37-9.3c1.54-3.02,3.08-5.91,4.61-8.67c1.54-2.76,2.84-5.09,3.9-7
				c3.08-5.3,6.33-10.63,9.78-15.98c3.45-5.36,7.02-10.74,10.74-16.14c2.33-6.36,4.53-12.46,6.6-18.29
				c2.07-5.83,3.95-11.19,5.65-16.06c-1.49,2.23-3.05,4.4-4.69,6.52c-1.65,2.12-3.29,4.08-4.93,5.88c-1.65,1.8-3.24,3.42-4.77,4.85
				c-1.54,1.43-3,2.52-4.37,3.26c-2.97,1.59-5.36,1.8-7.16,0.64c-2.44-1.48-3.58-4.53-3.42-9.15c0.16-4.61,1.62-11.05,4.37-19.33
				c0.95-2.86,1.93-5.59,2.94-8.19c1.01-2.6,1.93-4.93,2.78-7c0.85-2.07,1.8-4.37,2.86-6.92c0.53-1.27,1.48-1.64,2.86-1.11
				c0.53,0.21,0.88,0.61,1.03,1.19c0.16,0.58,0.13,1.14-0.08,1.67c-2.23,4.99-4.24,10-6.04,15.03c-1.8,5.04-3.26,9.7-4.37,14
				c-1.11,4.29-1.78,7.9-1.99,10.82c-0.21,2.92,0.21,4.69,1.27,5.33c0.42,0.32,1.06,0.27,1.91-0.16c2.12-0.85,4.58-2.81,7.4-5.88
				c2.81-3.07,5.62-6.49,8.43-10.26c2.81-3.76,5.35-7.5,7.63-11.21c2.28-3.71,4-6.63,5.17-8.75c0.21-0.42,0.34-0.82,0.4-1.19
				c0.05-0.37,0.18-0.66,0.4-0.87c0.21-0.64,0.53-1.25,0.95-1.83c0.42-0.58,1.06-0.77,1.91-0.56c1.17,0.21,1.75,0.9,1.75,2.07
				c0,0.64-0.48,1.91-1.43,3.82c-0.53,1.49-1.22,3.39-2.07,5.73c-0.85,2.33-1.75,4.88-2.7,7.63c-1.27,3.5-2.65,7.4-4.14,11.69
				c-1.49,4.29-3.13,8.83-4.93,13.6c4.03-5.62,8.16-11.05,12.41-16.3c4.24-5.25,8.53-10.31,12.88-15.19
				c0.42-0.53,0.93-0.79,1.51-0.79c0.58,0,1.09,0.16,1.51,0.48c0.53,0.42,0.79,0.93,0.79,1.51c0,0.58-0.21,1.09-0.64,1.51
				c-5.83,6.68-11.61,13.71-17.34,21.07c-5.73,7.37-11.29,14.93-16.7,22.67c-1.91,5.19-3.87,10.42-5.88,15.67
				c-2.02,5.25-4.03,10.36-6.04,15.35c-4.03,10.07-7.45,18.18-10.26,24.33c-2.81,6.15-5.19,10.9-7.16,14.24
				c-1.96,3.34-3.58,5.59-4.85,6.76c-1.27,1.17-2.39,1.85-3.34,2.07C340.27,164.99,339.9,165.05,339.37,165.05z M367.68,102.22
				c-1.8,2.76-3.55,5.51-5.25,8.27c-1.7,2.76-3.34,5.51-4.93,8.27c-3.82,6.68-6.92,12.51-9.3,17.5c-2.39,4.98-4.24,9.17-5.57,12.57
				c-1.32,3.39-2.2,6.07-2.62,8.03c-0.42,1.96-0.53,3.26-0.32,3.9c0.32-0.11,0.93-0.61,1.83-1.51c0.9-0.9,2.23-2.92,3.98-6.04
				c1.75-3.13,3.98-7.63,6.68-13.52s6.07-13.87,10.1-23.94c0.85-2.23,1.72-4.45,2.62-6.68C365.8,106.83,366.73,104.55,367.68,102.22
				z"/>
			<path class="st0" d="M405.86,78.84c-1.17,0-2.2-0.16-3.1-0.48c-0.9-0.32-1.62-0.69-2.15-1.11c-2.76-2.12-4.24-5.43-4.45-9.94
				c-0.21-4.5,0.9-9.09,3.34-13.76c1.7-3.18,3.6-6.18,5.73-8.99c2.12-2.81,4.29-5.35,6.52-7.63c2.23-2.28,4.43-4.16,6.6-5.65
				c2.17-1.48,4.21-2.44,6.12-2.86c1.17-0.21,2.15-0.26,2.94-0.16c0.8,0.11,1.46,0.27,1.99,0.48c1.38-0.32,2.6-0.21,3.66,0.32
				c3.07,1.91,4.82,4.51,5.25,7.79c0.64,3.39,0,7.32-1.91,11.77c2.12-0.42,4.85-1.3,8.19-2.62c3.34-1.33,7.45-3.47,12.33-6.44
				c1.38-0.74,2.44-0.48,3.18,0.8c0.74,1.27,0.48,2.28-0.8,3.02c-10.71,6.58-19.14,9.92-25.29,10.02c-2.86,5.09-7,10.5-12.41,16.22
				c-3.4,3.71-6.42,6.18-9.07,7.4C409.88,78.23,407.66,78.84,405.86,78.84z M424.78,33.19c-1.38,0.42-2.97,1.27-4.77,2.54
				c-1.8,1.27-3.66,2.92-5.57,4.93c-1.91,2.02-3.82,4.29-5.73,6.84c-1.91,2.54-3.66,5.3-5.25,8.27c-2.12,3.82-3.1,7.45-2.94,10.9
				c0.16,3.45,1.09,5.75,2.78,6.92c1.59,1.17,3.71,1.11,6.36-0.16c2.65-1.27,5.57-3.6,8.75-7c2.44-2.65,4.53-5.12,6.28-7.4
				c1.75-2.28,3.21-4.37,4.37-6.28c-1.59-0.53-2.97-1.43-4.14-2.7c-0.95-1.06-1.65-2.33-2.07-3.82c-0.43-1.48-0.61-3-0.56-4.53
				c0.05-1.54,0.32-3.05,0.8-4.53C423.59,35.68,424.15,34.36,424.78,33.19z M430.83,33.19c-0.21,0-0.66,0.37-1.35,1.11
				c-0.69,0.74-1.3,1.96-1.83,3.66c-0.53,1.59-0.77,3.32-0.72,5.17c0.05,1.86,0.72,3.32,1.99,4.37c0.42,0.42,1.27,0.79,2.54,1.11
				c1.38-2.86,2.17-5.19,2.39-7c0.21-1.8,0.21-3.13,0-3.98C433.53,35.42,432.52,33.93,430.83,33.19z"/>
			<path class="st0" d="M424.62,178.57h-0.32c-2.01,0-3.44-0.9-4.29-2.7c-1.17-2.33-1.03-5.91,0.4-10.74
				c1.43-4.83,3.66-10.31,6.68-16.46c3.02-6.15,6.6-12.64,10.74-19.48c4.13-6.84,8.27-13.39,12.41-19.64
				c0.85-1.17,1.64-2.36,2.39-3.58c0.74-1.22,1.48-2.41,2.23-3.58c2.97-7.63,5.86-15.3,8.67-22.98c2.81-7.69,5.49-15.14,8.03-22.35
				c-3.08,3.71-6.2,6.74-9.38,9.07c-3.18,2.33-5.94,3.08-8.27,2.23c-2.97-1.06-4.14-4.61-3.5-10.66c0.43-3.6,1.57-7.48,3.42-11.61
				c1.85-4.14,4.06-8.08,6.6-11.85c2.54-3.76,5.27-7.18,8.19-10.26c2.92-3.07,5.7-5.35,8.35-6.84c3.5-2.12,6.57-2.6,9.23-1.43
				c1.91,0.95,3.18,2.44,3.82,4.45c0.32,1.38,0.13,3.42-0.56,6.12c-0.69,2.7-1.7,5.88-3.02,9.54c-1.33,3.66-2.92,7.66-4.77,12.01
				c-1.86,4.35-3.77,8.78-5.73,13.28c-1.96,4.51-3.9,8.99-5.8,13.44c-1.91,4.45-3.55,8.59-4.93,12.41
				c10.82-15.8,19.09-27.49,24.81-35.07c5.73-7.58,8.64-11.42,8.75-11.53c0.32-0.53,0.77-0.82,1.35-0.88
				c0.58-0.05,1.09,0.08,1.51,0.4c0.53,0.42,0.82,0.93,0.88,1.51c0.05,0.58-0.08,1.09-0.4,1.51c-0.11,0.21-3.9,5.28-11.37,15.19
				c-7.48,9.92-18.16,25.31-32.05,46.21c-0.42,1.17-0.85,2.33-1.27,3.5c-0.42,1.17-0.85,2.33-1.27,3.5
				c-4.14,10.82-7.71,19.99-10.74,27.52c-3.02,7.53-5.65,13.78-7.87,18.77c-2.23,4.98-4.06,8.88-5.49,11.69
				c-1.43,2.81-2.62,4.9-3.58,6.28c-0.95,1.38-1.72,2.23-2.31,2.54C425.55,178.41,425.05,178.57,424.62,178.57z M447.53,121.63
				c-6.79,10.71-11.85,19.43-15.19,26.17c-3.34,6.73-5.67,11.98-7,15.75c-1.32,3.76-1.93,6.39-1.83,7.87
				c0.11,1.48,0.21,2.33,0.32,2.54l0.32,0.32c0.85-0.74,2.04-2.65,3.58-5.73c1.54-3.08,3.34-6.95,5.41-11.61
				c2.07-4.67,4.32-10.02,6.76-16.06C442.33,134.83,444.88,128.41,447.53,121.63z M483.31,19.51c-1.17,0-2.6,0.48-4.29,1.43
				c-2.33,1.27-4.85,3.34-7.55,6.2c-2.7,2.86-5.25,6.04-7.63,9.54s-4.43,7.16-6.12,10.97c-1.7,3.82-2.7,7.32-3.02,10.5
				c-0.32,2.23-0.35,3.79-0.08,4.69c0.26,0.9,0.56,1.41,0.87,1.51c1.06,0.43,3.5-0.95,7.32-4.13c3.82-3.18,8.43-8.85,13.84-17.02
				c0-0.32,0.1-0.58,0.32-0.79c1.06-1.38,2.17-3.05,3.34-5.01c1.17-1.96,2.23-3.95,3.18-5.96c0.95-2.01,1.67-3.92,2.15-5.73
				c0.48-1.8,0.56-3.29,0.24-4.45c-0.32-0.85-0.8-1.38-1.43-1.59C484.21,19.57,483.84,19.51,483.31,19.51z"/>
			<path class="st0" d="M499.22,75.18c-1.27,0-2.33-0.26-3.18-0.8c-1.49-0.95-2.6-2.46-3.34-4.53c-0.74-2.07-1.06-4.48-0.95-7.24
				c0.11-2.76,0.58-5.7,1.43-8.83c0.85-3.13,2.07-6.18,3.66-9.15c4.35-8.38,8.8-14.53,13.36-18.45c4.56-3.92,8.37-6.2,11.45-6.84
				c1.59-0.32,2.92-0.32,3.98,0c1.06,0.32,1.85,0.69,2.39,1.11c1.06,0.95,1.77,1.99,2.15,3.1c0.37,1.11,0.48,2.23,0.32,3.34
				s-0.45,2.15-0.88,3.1c-0.42,0.95-0.85,1.75-1.27,2.39c-0.74,1.06-1.7,1.22-2.86,0.48c-1.06-0.74-1.22-1.7-0.48-2.86
				c0.64-0.95,1.06-1.75,1.27-2.39c0.21-0.64,0.26-1.32,0.16-2.07c-0.11-0.74-0.48-1.38-1.11-1.91c-0.53-0.53-1.49-0.64-2.86-0.32
				c-2.54,0.53-5.83,2.57-9.86,6.12c-4.03,3.55-8.11,9.25-12.25,17.1c-1.49,2.76-2.57,5.49-3.26,8.19c-0.69,2.7-1.09,5.17-1.19,7.4
				c-0.11,2.23,0.02,4.14,0.4,5.73c0.37,1.59,0.98,2.6,1.83,3.02c0.85,0.53,2.36,0.13,4.53-1.19c2.17-1.33,4.85-4.32,8.03-8.99
				c3.39-4.88,6.23-9.04,8.51-12.49c2.28-3.44,4.14-6.36,5.57-8.75s2.52-4.29,3.26-5.73c0.74-1.43,1.27-2.52,1.59-3.26
				c0.21-0.42,0.34-0.77,0.4-1.03c0.05-0.26,0.13-0.5,0.24-0.72c0.21-0.53,0.53-0.9,0.95-1.11c0.42-0.21,0.9-0.26,1.43-0.16
				c1.17,0.42,1.64,1.22,1.43,2.39c0,0.21-0.21,0.9-0.64,2.07c-0.53,1.59-1.11,3.47-1.75,5.65c-0.64,2.17-1.14,4.37-1.51,6.6
				c-0.37,2.23-0.53,4.37-0.48,6.44c0.05,2.07,0.45,3.74,1.19,5.01c0.64,1.06,1.7,1.7,3.18,1.91c2.33,0.32,4.8-0.21,7.4-1.59
				c2.6-1.38,5.06-3.1,7.4-5.17c2.33-2.07,4.43-4.21,6.28-6.44c1.85-2.23,3.26-4.03,4.21-5.41c0.32-0.53,0.74-0.82,1.27-0.88
				c0.53-0.05,1.01,0.08,1.43,0.4c1.17,0.74,1.38,1.7,0.64,2.86c-0.21,0.21-1.19,1.46-2.94,3.74c-1.75,2.28-3.98,4.72-6.68,7.32
				c-2.7,2.6-5.75,4.91-9.15,6.92c-3.39,2.02-6.84,2.81-10.34,2.39c-2.65-0.32-4.72-1.64-6.2-3.98c-0.95-1.59-1.51-3.47-1.67-5.65
				c-0.16-2.17-0.08-4.48,0.24-6.92c-1.49,2.23-3.18,4.83-5.09,7.79c-1.91,2.97-4.19,6.31-6.84,10.02c-3.29,4.77-6.15,8.01-8.59,9.7
				C502.98,74.33,500.91,75.18,499.22,75.18z"/>
		</g>
	</g>
</g>
</svg>
