<?xml version="1.0" encoding="utf-8"?>
<!-- Generator: Adobe Illustrator 23.0.1, SVG Export Plug-In . SVG Version: 6.00 Build 0)  -->
<svg version="1.1" id="Capa_1" xmlns="http://www.w3.org/2000/svg" xmlns:xlink="http://www.w3.org/1999/xlink" x="0px" y="0px"
	 viewBox="0 0 393 194" style="enable-background:new 0 0 393 194;" xml:space="preserve">
<style type="text/css">
	.st0{fill:#7A557C;}
</style>
<g>
	<g>
		<path class="st0" d="M32.16,57.66L4.28,9.16h14.82l19.52,34.12L58.21,9.16h14.82L45.04,57.66v36.89H32.16V57.66z"/>
		<path class="st0" d="M74.3,51.47c0-12.02,4.41-22.34,13.22-30.97c8.77-8.63,19.32-12.94,31.64-12.94c12.17,0,22.6,4.35,31.3,13.05
			c8.74,8.7,13.11,19.16,13.11,31.36c0,12.28-4.39,22.7-13.16,31.25c-8.81,8.59-19.45,12.89-31.91,12.89
			c-11.03,0-20.93-3.82-29.7-11.45C79.13,76.21,74.3,65.15,74.3,51.47z M87.3,51.64c0,9.44,3.17,17.2,9.51,23.29
			c6.3,6.08,13.59,9.13,21.85,9.13c8.96,0,16.52-3.1,22.68-9.29c6.16-6.27,9.24-13.9,9.24-22.9c0-9.11-3.04-16.74-9.13-22.9
			c-6.05-6.2-13.53-9.29-22.46-9.29c-8.89,0-16.39,3.1-22.51,9.29C90.36,35.08,87.3,42.64,87.3,51.64z"/>
		<path class="st0" d="M223.69,50.09h35.29v2.82c0,6.42-0.76,12.09-2.27,17.04c-1.47,4.57-3.96,8.85-7.47,12.83
			c-7.93,8.92-18.01,13.38-30.25,13.38c-11.95,0-22.18-4.31-30.7-12.94c-8.52-8.67-12.78-19.06-12.78-31.19
			c0-12.39,4.33-22.9,13-31.53c8.67-8.66,19.21-13,31.64-13c6.67,0,12.91,1.36,18.69,4.09c5.53,2.73,10.97,7.15,16.32,13.27
			l-9.18,8.79c-7.01-9.33-15.54-13.99-25.61-13.99c-9.04,0-16.61,3.12-22.73,9.35c-6.12,6.12-9.18,13.79-9.18,23.01
			c0,9.51,3.41,17.35,10.23,23.51c6.38,5.72,13.29,8.57,20.74,8.57c6.34,0,12.04-2.14,17.09-6.42c5.05-4.31,7.87-9.48,8.46-15.49
			h-21.29V50.09z"/>
		<path class="st0" d="M288.07,9.16V60.6c0,7.34,1.2,12.7,3.59,16.1c3.58,4.9,8.61,7.36,15.1,7.36c6.53,0,11.58-2.45,15.15-7.36
			c2.4-3.28,3.6-8.65,3.6-16.1V9.16h12.89v54.98c0,9-2.8,16.41-8.41,22.23c-6.3,6.49-14.05,9.73-23.23,9.73
			c-9.18,0-16.91-3.24-23.17-9.73c-5.6-5.83-8.41-13.24-8.41-22.23V9.16H288.07z"/>
		<path class="st0" d="M371.75,9.16v85.4h-12.89V9.16H371.75z"/>
	</g>
	<g>
		<path class="st0" d="M52.94,148.61c-0.24,0-0.6-0.06-1.09-0.18c-1.93-0.66-2.81-2.78-2.63-6.34c0.18-2.9,0.71-5.68,1.59-8.34
			c0.88-2.66,1.95-5.06,3.22-7.21c1.27-2.14,2.63-3.99,4.08-5.53s2.81-2.64,4.08-3.31c1.03-0.54,1.87-0.8,2.54-0.77
			c0.66,0.03,1.18,0.17,1.54,0.41c1.03,0.6,1.65,1.51,1.86,2.72c0.21,1.21,0.23,2.45,0.05,3.72c-0.18,1.27-0.44,2.42-0.77,3.44
			c-0.33,1.03-0.56,1.66-0.68,1.9c-0.12,0.3-0.32,0.53-0.59,0.68c-0.27,0.15-0.56,0.17-0.86,0.05c-0.3-0.12-0.51-0.33-0.63-0.63
			c-0.12-0.3-0.12-0.6,0-0.91c0.24-0.6,0.48-1.36,0.72-2.27c0.24-0.91,0.42-1.81,0.54-2.72s0.14-1.72,0.05-2.45
			c-0.09-0.73-0.38-1.24-0.86-1.54c-0.24-0.18-0.85-0.06-1.81,0.36c-1.15,0.67-2.37,1.69-3.67,3.08c-1.3,1.39-2.52,3.08-3.67,5.08
			c-1.15,1.99-2.13,4.2-2.95,6.62c-0.82,2.42-1.28,4.99-1.41,7.71c-0.18,2.42,0.15,3.75,1,3.99c0.91,0.3,2.31-0.2,4.21-1.5
			c1.9-1.3,3.97-3,6.21-5.12c2.24-2.11,4.44-4.46,6.62-7.02c2.17-2.57,3.99-4.94,5.44-7.12c0.12-0.3,0.33-0.47,0.63-0.5
			c0.3-0.03,0.6,0.04,0.91,0.23c0.3,0.18,0.48,0.42,0.54,0.73c0.06,0.3,0,0.57-0.18,0.82c-0.54,0.85-1.36,1.96-2.45,3.35
			c-1.09,1.39-2.33,2.9-3.72,4.53c-1.39,1.63-2.89,3.28-4.49,4.94c-1.6,1.66-3.2,3.17-4.8,4.53c-1.6,1.36-3.14,2.46-4.62,3.31
			C55.4,148.19,54.08,148.61,52.94,148.61z"/>
		<path class="st0" d="M73.78,147.16c-0.67,0-1.25-0.09-1.77-0.27c-0.51-0.18-0.92-0.39-1.22-0.63c-1.57-1.21-2.42-3.1-2.54-5.67
			c-0.12-2.57,0.51-5.18,1.9-7.84c0.97-1.81,2.05-3.52,3.26-5.12c1.21-1.6,2.45-3.05,3.72-4.35c1.27-1.3,2.52-2.37,3.76-3.22
			c1.24-0.85,2.4-1.39,3.49-1.63c0.66-0.12,1.22-0.15,1.68-0.09c0.45,0.06,0.83,0.15,1.13,0.27c0.79-0.18,1.48-0.12,2.08,0.18
			c1.75,1.09,2.75,2.57,2.99,4.44c0.36,1.93,0,4.17-1.09,6.71c1.21-0.24,2.76-0.74,4.67-1.5c1.9-0.75,4.25-1.98,7.03-3.67
			c0.78-0.42,1.39-0.27,1.81,0.45c0.42,0.72,0.27,1.3-0.45,1.72c-6.1,3.75-10.91,5.65-14.41,5.71c-1.63,2.9-3.99,5.98-7.07,9.25
			c-1.93,2.12-3.66,3.52-5.17,4.21C76.08,146.81,74.81,147.16,73.78,147.16z M84.57,121.15c-0.79,0.24-1.69,0.73-2.72,1.45
			c-1.03,0.73-2.08,1.66-3.17,2.81c-1.09,1.15-2.17,2.45-3.26,3.9s-2.08,3.02-2.99,4.71c-1.21,2.18-1.77,4.25-1.68,6.21
			c0.09,1.96,0.62,3.28,1.59,3.94c0.91,0.67,2.11,0.63,3.63-0.09c1.51-0.73,3.17-2.05,4.99-3.99c1.39-1.51,2.58-2.92,3.58-4.21
			c1-1.3,1.83-2.49,2.49-3.58c-0.91-0.3-1.69-0.82-2.36-1.54c-0.54-0.6-0.94-1.33-1.18-2.18c-0.24-0.85-0.35-1.71-0.32-2.58
			c0.03-0.88,0.18-1.74,0.45-2.58C83.89,122.57,84.21,121.81,84.57,121.15z M88.01,121.15c-0.12,0-0.38,0.21-0.77,0.63
			c-0.39,0.42-0.74,1.12-1.04,2.08c-0.3,0.91-0.44,1.89-0.41,2.95c0.03,1.06,0.41,1.89,1.13,2.49c0.24,0.24,0.72,0.45,1.45,0.63
			c0.78-1.63,1.24-2.96,1.36-3.99c0.12-1.03,0.12-1.78,0-2.27C89.56,122.42,88.98,121.57,88.01,121.15z"/>
		<path class="st0" d="M99.62,142.36c-0.78,0-1.36-0.33-1.72-1c-0.18-0.3-0.3-0.72-0.36-1.27c-0.06-0.54,0.03-1.36,0.27-2.45
			c0.24-1.09,0.68-2.52,1.31-4.31c0.63-1.78,1.56-4.03,2.76-6.75c0.66-1.45,1.31-2.86,1.95-4.21s1.22-2.55,1.77-3.58
			c0.54-1.03,1.15-2.21,1.81-3.54c0.12-0.3,0.33-0.5,0.63-0.59c0.3-0.09,0.6-0.05,0.91,0.14c0.3,0.12,0.5,0.33,0.59,0.63
			c0.09,0.3,0.04,0.6-0.14,0.91c-0.54,1.03-1.12,2.15-1.72,3.35c-0.48,1.03-1.04,2.22-1.68,3.58c-0.63,1.36-1.29,2.74-1.95,4.12
			c-0.91,2.12-1.65,3.9-2.22,5.35c-0.58,1.45-1,2.64-1.27,3.58c-0.27,0.94-0.45,1.68-0.54,2.22s-0.14,0.94-0.14,1.18
			c0.42-0.36,1.03-0.95,1.81-1.77c0.78-0.82,1.66-1.74,2.63-2.76c0.97-1.03,1.95-2.13,2.95-3.31s1.95-2.31,2.86-3.4
			c2.3-2.66,4.23-4.88,5.8-6.66c1.57-1.78,2.89-3.2,3.94-4.26c1.06-1.06,1.9-1.81,2.54-2.27s1.19-0.68,1.68-0.68
			c0.54,0,0.97,0.24,1.27,0.73c0.36,0.6,0.33,1.53-0.09,2.76c-0.42,1.24-1.27,3.28-2.54,6.12c-0.48,1.09-1.01,2.31-1.59,3.67
			s-1.1,2.69-1.59,3.99c-0.48,1.3-0.83,2.49-1.04,3.58c-0.21,1.09-0.2,1.87,0.04,2.36c0.12,0.12,0.21,0.18,0.27,0.18
			c0.36-0.06,0.97-0.41,1.81-1.04c0.85-0.63,1.78-1.41,2.81-2.31c1.03-0.91,2.05-1.86,3.08-2.86c1.03-1,1.93-1.86,2.72-2.58
			c1.33-1.33,2.43-2.4,3.31-3.22c0.88-0.82,1.59-1.43,2.13-1.86c0.54-0.42,0.98-0.69,1.31-0.82c0.33-0.12,0.65-0.15,0.95-0.09
			c0.42,0.24,0.73,0.51,0.91,0.82c0.24,0.42,0.3,0.95,0.18,1.59c-0.12,0.63-0.36,1.5-0.73,2.58c-0.12,0.3-0.24,0.68-0.36,1.13
			c-0.12,0.45-0.23,0.89-0.32,1.31c-0.09,0.42-0.15,0.8-0.18,1.13c-0.03,0.33,0.01,0.59,0.14,0.77c0.48,0.3,1.75,0.06,3.81-0.72
			c2.05-0.79,4.44-2.48,7.16-5.08c0.24-0.24,0.53-0.36,0.86-0.36c0.33,0,0.59,0.12,0.77,0.36c0.54,0.54,0.54,1.09,0,1.63
			c-2.84,2.72-5.58,4.64-8.2,5.75c-2.63,1.12-4.58,1.19-5.85,0.23c-0.85-0.66-1.16-1.62-0.95-2.85c0.21-1.24,0.53-2.55,0.95-3.94
			c0.06-0.18,0.15-0.51,0.27-1c-0.67,0.54-1.39,1.21-2.17,1.99c-0.79,0.79-1.57,1.54-2.36,2.27c-3.44,3.38-6.12,5.85-8.02,7.39
			s-3.37,2.25-4.4,2.13c-0.06,0-0.09-0.03-0.09-0.09c-0.85-0.18-1.48-0.67-1.9-1.45c-0.67-1.39-0.54-3.4,0.36-6.03
			c0.91-2.63,2.17-5.82,3.81-9.56c0.42-0.91,0.83-1.84,1.22-2.81c0.39-0.97,0.74-1.81,1.04-2.54c-0.67,0.54-1.44,1.28-2.31,2.22
			c-0.88,0.94-1.81,1.96-2.81,3.08c-1,1.12-2.01,2.27-3.04,3.45c-1.03,1.18-1.96,2.28-2.81,3.31c-2.12,2.48-3.87,4.5-5.26,6.07
			c-1.39,1.57-2.55,2.84-3.49,3.81c-0.94,0.97-1.68,1.63-2.22,1.99C100.43,142.18,99.98,142.36,99.62,142.36z"/>
		<path class="st0" d="M128.17,186.5c-0.18,0-0.42-0.06-0.73-0.18c-0.3-0.12-0.54-0.42-0.73-0.91c-0.12-0.24-0.18-0.51-0.18-0.82
			c-0.06-0.91,0.23-2.46,0.86-4.67c0.63-2.21,1.48-4.83,2.54-7.89c1.06-3.05,2.28-6.38,3.67-9.97c1.39-3.6,2.83-7.25,4.3-10.97
			c1.48-3.72,2.96-7.36,4.44-10.92c1.48-3.57,2.85-6.83,4.12-9.79c1.27-2.96,2.36-5.48,3.26-7.57s1.51-3.49,1.81-4.21
			c0.12-0.3,0.33-0.51,0.63-0.63c0.3-0.12,0.6-0.12,0.91,0c0.73,0.3,0.94,0.82,0.63,1.54c-0.91,2.12-1.98,4.61-3.22,7.48
			c-1.24,2.87-2.54,5.97-3.9,9.29s-2.78,6.77-4.26,10.33c-1.48,3.56-2.9,7.07-4.26,10.51s-2.63,6.75-3.81,9.92
			c-1.18,3.17-2.19,6-3.04,8.48c1.33-3.44,3.02-7.57,5.08-12.37c2.05-4.8,4.53-9.83,7.43-15.09s6.28-10.48,10.15-15.68
			c3.87-5.2,8.28-9.94,13.23-14.23c0.42-0.42,0.91-0.48,1.45-0.18c0.48,0.3,0.69,0.71,0.63,1.22c-0.06,0.51-0.36,1.68-0.91,3.49
			c-0.36,1.33-0.79,2.9-1.27,4.71c-0.48,1.81-0.85,3.6-1.09,5.35c-0.18,1.27-0.29,2.3-0.32,3.08c-0.03,0.79,0,1.39,0.09,1.81
			c0.09,0.42,0.2,0.71,0.32,0.86c0.12,0.15,0.21,0.23,0.27,0.23c0.36,0.18,0.85,0.18,1.45,0c1.09-0.36,2.34-1.15,3.76-2.36
			c1.42-1.21,2.78-2.52,4.08-3.94c1.3-1.42,2.46-2.79,3.49-4.12c1.03-1.33,1.72-2.33,2.08-2.99c0.12-0.3,0.33-0.5,0.63-0.59
			c0.3-0.09,0.6-0.07,0.91,0.05c0.3,0.12,0.5,0.35,0.59,0.68c0.09,0.33,0.08,0.65-0.04,0.95c-0.36,0.67-1.07,1.71-2.13,3.13
			c-1.06,1.42-2.3,2.92-3.72,4.49c-1.42,1.57-2.93,3.02-4.53,4.35c-1.6,1.33-3.07,2.21-4.4,2.63c-1.33,0.36-2.42,0.3-3.26-0.18
			c-0.91-0.42-1.5-1.24-1.77-2.45c-0.27-1.21-0.32-2.64-0.14-4.3c0.18-1.66,0.51-3.49,1-5.48c0.48-1.99,1.03-4.05,1.63-6.16
			c-4.59,4.35-8.67,9.11-12.24,14.28c-3.57,5.17-6.69,10.29-9.38,15.36c-2.69,5.08-4.97,9.88-6.84,14.41s-3.41,8.37-4.62,11.51
			c-0.73,1.81-1.31,3.26-1.77,4.35s-0.83,1.95-1.13,2.58c-0.3,0.63-0.59,1.06-0.86,1.27C128.85,186.39,128.53,186.5,128.17,186.5z"
			/>
		<path class="st0" d="M177.75,148.07c-0.66,0-1.12-0.27-1.36-0.82c-0.12-0.18-0.23-0.47-0.32-0.86c-0.09-0.39-0.08-1.12,0.04-2.18
			c0.12-1.06,0.42-2.57,0.91-4.53c0.48-1.96,1.24-4.61,2.27-7.93c0.48-1.57,0.98-3.11,1.5-4.62c0.51-1.51,0.97-2.84,1.36-3.99
			c0.39-1.15,0.86-2.45,1.4-3.9c0.12-0.3,0.33-0.53,0.63-0.68c0.3-0.15,0.6-0.17,0.91-0.05c0.3,0.12,0.53,0.35,0.68,0.68
			c0.15,0.33,0.17,0.65,0.05,0.95c-0.85,2.24-1.66,4.52-2.45,6.84c-0.79,2.33-1.5,4.55-2.13,6.66c-0.63,2.12-1.18,4.06-1.63,5.85
			c-0.45,1.78-0.77,3.25-0.95,4.4c0.42-0.78,0.91-1.71,1.45-2.76c0.54-1.06,1.06-2.1,1.54-3.13c1.33-2.66,2.64-5.2,3.94-7.61
			c1.3-2.42,2.57-4.55,3.81-6.39c1.24-1.84,2.48-3.37,3.72-4.58c1.24-1.21,2.49-1.96,3.76-2.27l0.09-0.09
			c0.42-0.06,0.75-0.03,1,0.09c0.24,0.12,0.42,0.24,0.54,0.36c0.42,0.42,0.62,0.97,0.59,1.63c-0.03,0.67-0.11,1.42-0.23,2.27
			c-0.12,0.79-0.23,1.65-0.32,2.58c-0.09,0.94,0.08,1.56,0.5,1.86c0.12,0.12,0.44,0.21,0.95,0.27c0.51,0.06,1.43-0.15,2.76-0.63
			c0.78-0.24,1.3,0.03,1.54,0.82c0.12,0.3,0.1,0.6-0.05,0.91c-0.15,0.3-0.38,0.51-0.68,0.63c-2.84,1.03-4.89,1-6.16-0.09
			c-0.91-0.79-1.35-1.8-1.31-3.04c0.03-1.24,0.14-2.46,0.32-3.67c0-0.3,0.06-0.69,0.18-1.18c-1.03,0.54-2.12,1.53-3.26,2.95
			c-1.15,1.42-2.27,3.05-3.35,4.89c-1.09,1.84-2.16,3.78-3.22,5.8c-1.06,2.03-2.01,3.88-2.85,5.57c-0.91,1.75-1.66,3.2-2.27,4.35
			c-0.6,1.15-1.13,2.07-1.59,2.76c-0.45,0.7-0.85,1.18-1.18,1.45c-0.33,0.27-0.68,0.41-1.04,0.41H177.75z"/>
		<path class="st0" d="M207.57,147.16c-0.67,0-1.25-0.09-1.77-0.27c-0.51-0.18-0.92-0.39-1.22-0.63c-1.57-1.21-2.42-3.1-2.54-5.67
			c-0.12-2.57,0.51-5.18,1.9-7.84c0.97-1.81,2.05-3.52,3.26-5.12c1.21-1.6,2.45-3.05,3.72-4.35c1.27-1.3,2.52-2.37,3.76-3.22
			c1.24-0.85,2.4-1.39,3.49-1.63c0.66-0.12,1.22-0.15,1.68-0.09c0.45,0.06,0.83,0.15,1.13,0.27c0.79-0.18,1.48-0.12,2.08,0.18
			c1.75,1.09,2.75,2.57,2.99,4.44c0.36,1.93,0,4.17-1.09,6.71c1.21-0.24,2.76-0.74,4.67-1.5c1.9-0.75,4.25-1.98,7.03-3.67
			c0.78-0.42,1.39-0.27,1.81,0.45c0.42,0.72,0.27,1.3-0.45,1.72c-6.1,3.75-10.91,5.65-14.41,5.71c-1.63,2.9-3.99,5.98-7.07,9.25
			c-1.93,2.12-3.66,3.52-5.17,4.21C209.86,146.81,208.59,147.16,207.57,147.16z M218.35,121.15c-0.79,0.24-1.69,0.73-2.72,1.45
			c-1.03,0.73-2.08,1.66-3.17,2.81c-1.09,1.15-2.17,2.45-3.26,3.9s-2.08,3.02-2.99,4.71c-1.21,2.18-1.77,4.25-1.68,6.21
			c0.09,1.96,0.62,3.28,1.59,3.94c0.91,0.67,2.11,0.63,3.63-0.09c1.51-0.73,3.17-2.05,4.99-3.99c1.39-1.51,2.58-2.92,3.58-4.21
			c1-1.3,1.83-2.49,2.49-3.58c-0.91-0.3-1.69-0.82-2.36-1.54c-0.54-0.6-0.94-1.33-1.18-2.18c-0.24-0.85-0.35-1.71-0.32-2.58
			c0.03-0.88,0.18-1.74,0.45-2.58C217.67,122.57,217.99,121.81,218.35,121.15z M221.8,121.15c-0.12,0-0.38,0.21-0.77,0.63
			c-0.39,0.42-0.74,1.12-1.04,2.08c-0.3,0.91-0.44,1.89-0.41,2.95c0.03,1.06,0.41,1.89,1.13,2.49c0.24,0.24,0.72,0.45,1.45,0.63
			c0.78-1.63,1.24-2.96,1.36-3.99c0.12-1.03,0.12-1.78,0-2.27C223.34,122.42,222.76,121.57,221.8,121.15z"/>
		<path class="st0" d="M233.4,142.36c-0.78,0-1.36-0.33-1.72-1c-0.18-0.3-0.3-0.72-0.36-1.27c-0.06-0.54,0.03-1.36,0.27-2.45
			c0.24-1.09,0.68-2.52,1.31-4.31c0.63-1.78,1.56-4.03,2.76-6.75c0.66-1.45,1.31-2.86,1.95-4.21s1.22-2.55,1.77-3.58
			c0.54-1.03,1.15-2.21,1.81-3.54c0.12-0.3,0.33-0.5,0.63-0.59c0.3-0.09,0.6-0.05,0.91,0.14c0.3,0.12,0.5,0.33,0.59,0.63
			c0.09,0.3,0.04,0.6-0.14,0.91c-0.54,1.03-1.12,2.15-1.72,3.35c-0.48,1.03-1.04,2.22-1.68,3.58c-0.63,1.36-1.29,2.74-1.95,4.12
			c-0.91,2.12-1.65,3.9-2.22,5.35c-0.58,1.45-1,2.64-1.27,3.58c-0.27,0.94-0.45,1.68-0.54,2.22s-0.14,0.94-0.14,1.18
			c0.42-0.36,1.03-0.95,1.81-1.77c0.78-0.82,1.66-1.74,2.63-2.76c0.97-1.03,1.95-2.13,2.95-3.31s1.95-2.31,2.86-3.4
			c2.3-2.66,4.23-4.88,5.8-6.66c1.57-1.78,2.89-3.2,3.94-4.26c1.06-1.06,1.9-1.81,2.54-2.27s1.19-0.68,1.68-0.68
			c0.54,0,0.97,0.24,1.27,0.73c0.36,0.6,0.33,1.53-0.09,2.76c-0.42,1.24-1.27,3.28-2.54,6.12c-0.48,1.09-1.01,2.31-1.59,3.67
			s-1.1,2.69-1.59,3.99c-0.48,1.3-0.83,2.49-1.04,3.58c-0.21,1.09-0.2,1.87,0.04,2.36c0.12,0.12,0.21,0.18,0.27,0.18
			c0.36-0.06,0.97-0.41,1.81-1.04c0.85-0.63,1.78-1.41,2.81-2.31c1.03-0.91,2.05-1.86,3.08-2.86c1.03-1,1.93-1.86,2.72-2.58
			c1.33-1.33,2.43-2.4,3.31-3.22c0.88-0.82,1.59-1.43,2.13-1.86c0.54-0.42,0.98-0.69,1.31-0.82c0.33-0.12,0.65-0.15,0.95-0.09
			c0.42,0.24,0.73,0.51,0.91,0.82c0.24,0.42,0.3,0.95,0.18,1.59c-0.12,0.63-0.36,1.5-0.73,2.58c-0.12,0.3-0.24,0.68-0.36,1.13
			c-0.12,0.45-0.23,0.89-0.32,1.31c-0.09,0.42-0.15,0.8-0.18,1.13c-0.03,0.33,0.01,0.59,0.14,0.77c0.48,0.3,1.75,0.06,3.81-0.72
			c2.05-0.79,4.44-2.48,7.16-5.08c0.24-0.24,0.53-0.36,0.86-0.36c0.33,0,0.59,0.12,0.77,0.36c0.54,0.54,0.54,1.09,0,1.63
			c-2.84,2.72-5.58,4.64-8.2,5.75c-2.63,1.12-4.58,1.19-5.85,0.23c-0.85-0.66-1.16-1.62-0.95-2.85c0.21-1.24,0.53-2.55,0.95-3.94
			c0.06-0.18,0.15-0.51,0.27-1c-0.67,0.54-1.39,1.21-2.17,1.99c-0.79,0.79-1.57,1.54-2.36,2.27c-3.44,3.38-6.12,5.85-8.02,7.39
			s-3.37,2.25-4.4,2.13c-0.06,0-0.09-0.03-0.09-0.09c-0.85-0.18-1.48-0.67-1.9-1.45c-0.67-1.39-0.54-3.4,0.36-6.03
			c0.91-2.63,2.17-5.82,3.81-9.56c0.42-0.91,0.83-1.84,1.22-2.81c0.39-0.97,0.74-1.81,1.04-2.54c-0.67,0.54-1.44,1.28-2.31,2.22
			c-0.88,0.94-1.81,1.96-2.81,3.08c-1,1.12-2.01,2.27-3.04,3.45c-1.03,1.18-1.96,2.28-2.81,3.31c-2.12,2.48-3.87,4.5-5.26,6.07
			c-1.39,1.57-2.55,2.84-3.49,3.81c-0.94,0.97-1.68,1.63-2.22,1.99C234.21,142.18,233.76,142.36,233.4,142.36z"/>
		<path class="st0" d="M285.15,145.89c-0.6,0-1.03-0.03-1.27-0.09c-2.66-0.54-4.35-2.27-5.08-5.17c-0.36-1.57-0.39-3.34-0.09-5.3
			c0.3-1.96,0.83-3.94,1.59-5.94s1.72-3.87,2.9-5.62c1.18-1.75,2.49-3.2,3.94-4.35c2.11-1.69,3.76-2.55,4.94-2.58
			c1.18-0.03,2.04,0.2,2.58,0.68c0.91,0.97,1.16,2.28,0.77,3.94c-0.39,1.66-1.1,3.19-2.13,4.58c-0.97,1.27-2.04,2.24-3.22,2.9
			c-1.18,0.67-2.31,1.13-3.4,1.41c-1.09,0.27-2.01,0.42-2.76,0.45c-0.76,0.03-1.16,0.05-1.22,0.05c-0.06,0-0.12-0.01-0.18-0.05
			c-0.06-0.03-0.12-0.04-0.18-0.04c-0.67,1.69-1.1,3.35-1.31,4.99c-0.21,1.63-0.17,3.08,0.14,4.35c0.42,1.87,1.48,2.99,3.17,3.35
			c1.51,0.3,3.14-0.18,4.89-1.45c1.75-1.27,3.46-2.88,5.12-4.85c1.66-1.96,3.16-3.99,4.49-6.07c1.33-2.08,2.36-3.79,3.08-5.12
			c0.42-0.72,0.97-0.91,1.63-0.54c0.72,0.42,0.91,0.97,0.54,1.63c-0.18,0.36-0.58,1.07-1.18,2.13c-0.6,1.06-1.38,2.28-2.31,3.67
			c-0.94,1.39-1.99,2.85-3.17,4.4c-1.18,1.54-2.45,2.95-3.81,4.21c-1.36,1.27-2.76,2.33-4.21,3.17
			C287.96,145.47,286.54,145.89,285.15,145.89z M292.59,119.15c-0.3,0-0.77,0.15-1.41,0.45c-0.63,0.3-1.5,0.88-2.58,1.72
			c-1.03,0.85-1.99,1.89-2.9,3.13c-0.91,1.24-1.72,2.58-2.45,4.03c0.36,0,0.86-0.04,1.5-0.14s1.34-0.27,2.13-0.54
			c0.79-0.27,1.57-0.66,2.36-1.18c0.78-0.51,1.51-1.19,2.17-2.04c0.91-1.21,1.46-2.33,1.68-3.35c0.21-1.03,0.17-1.69-0.14-1.99
			h-0.09c-0.06,0-0.11-0.01-0.14-0.05C292.69,119.17,292.65,119.15,292.59,119.15z"/>
		<path class="st0" d="M327.39,107.91c0.72,0.12,1.09,0.54,1.09,1.27c-0.12,0.73-0.54,1.09-1.27,1.09
			c-3.57-0.18-6.83-0.23-9.79-0.14c-2.96,0.09-5.65,0.29-8.07,0.59c-2.54,7.13-4.93,14.64-7.16,22.52
			c-2.23,7.89-4.32,15.94-6.25,24.16c-0.18,0.6-0.57,0.91-1.18,0.91c-0.12,0-0.21-0.03-0.27-0.09c-0.73-0.12-1.03-0.58-0.91-1.36
			c1.93-8.04,4-15.92,6.21-23.66c2.21-7.73,4.52-15.14,6.93-22.21c-3.81,0.48-6.68,1.01-8.61,1.59c-1.93,0.58-2.93,0.86-2.99,0.86
			c-0.06,0-0.12,0.02-0.18,0.04c-0.06,0.03-0.12,0.04-0.18,0.04c-0.48,0-0.85-0.27-1.09-0.82c-0.12-0.3-0.12-0.59,0-0.86
			c0.12-0.27,0.33-0.47,0.63-0.59c0.12-0.06,1.3-0.41,3.54-1.04c2.24-0.63,5.5-1.19,9.79-1.68c0.12-0.48,0.27-0.94,0.45-1.36
			c0.18-0.42,0.33-0.88,0.45-1.36c-0.3,0-0.51-0.06-0.63-0.18c-0.67-0.42-0.79-0.97-0.36-1.63c0.66-0.91,1.3-1.83,1.9-2.76
			c0.6-0.94,1.24-1.89,1.9-2.86l0.09-0.09c1.33-3.38,2.61-6.48,3.85-9.29c1.24-2.81,2.4-5.27,3.49-7.39
			c0.85-1.57,1.55-2.81,2.13-3.72c0.57-0.91,1.06-1.57,1.45-1.99c0.39-0.42,0.71-0.69,0.95-0.82c0.24-0.12,0.42-0.18,0.54-0.18
			c0.6-0.18,1.15-0.03,1.63,0.45c0.36,0.48,0.48,1.19,0.36,2.13c-0.12,0.94-0.76,2.52-1.9,4.76c-0.67,1.21-1.47,2.63-2.4,4.26
			c-0.94,1.63-2.01,3.44-3.22,5.44c-0.85,1.33-1.68,2.63-2.49,3.9c-0.82,1.27-1.59,2.45-2.31,3.54c-0.06,0.18-0.15,0.39-0.27,0.63
			c-0.48,1.33-0.98,2.69-1.5,4.08c-0.51,1.39-1.01,2.78-1.5,4.17c2.3-0.24,4.86-0.39,7.71-0.45
			C320.81,107.76,323.95,107.79,327.39,107.91z M322.5,79.9c-0.42,0.67-0.86,1.41-1.31,2.22s-0.92,1.8-1.41,2.95
			C320.87,83.08,321.77,81.35,322.5,79.9z"/>
		<path class="st0" d="M329.29,125.59c0.3,0.18,0.48,0.44,0.54,0.77c0.06,0.33,0.03,0.65-0.09,0.95c-0.3,0.48-0.8,1.24-1.5,2.27
			c-0.7,1.03-1.5,2.18-2.4,3.44c-0.91,1.27-1.92,2.57-3.04,3.9c-1.12,1.33-2.24,2.55-3.35,3.67c-1.12,1.12-2.25,2.02-3.4,2.72
			c-1.15,0.7-2.21,1.04-3.17,1.04h-0.63c-0.91-0.18-1.54-0.69-1.9-1.54c-0.36-0.79-0.47-1.87-0.32-3.26c0.15-1.39,0.48-2.93,1-4.62
			c0.51-1.69,1.13-3.44,1.86-5.26c0.73-1.81,1.45-3.54,2.18-5.17c0.73-1.63,1.41-3.07,2.04-4.31c0.63-1.24,1.1-2.16,1.41-2.76
			c0.12-0.3,0.35-0.5,0.68-0.59c0.33-0.09,0.65-0.04,0.95,0.14c0.3,0.12,0.5,0.35,0.59,0.68s0.08,0.65-0.04,0.95
			c-1.03,1.99-2.08,4.21-3.17,6.66s-2.05,4.77-2.9,6.98c-0.85,2.21-1.47,4.19-1.86,5.94c-0.39,1.75-0.44,2.93-0.14,3.54v0.18h0.09
			c0.78,0.12,1.8-0.32,3.04-1.31c1.24-1,2.55-2.28,3.94-3.85c1.39-1.57,2.78-3.32,4.17-5.26c1.39-1.93,2.63-3.78,3.72-5.53
			c0.18-0.3,0.44-0.48,0.77-0.54C328.67,125.35,328.99,125.41,329.29,125.59z M322.95,113.17c-0.48,0-0.91-0.18-1.27-0.54
			s-0.54-0.78-0.54-1.27c0-0.48,0.18-0.91,0.54-1.27c0.36-0.36,0.78-0.54,1.27-0.54c0.48,0,0.91,0.18,1.27,0.54
			c0.36,0.36,0.54,0.79,0.54,1.27c0,0.48-0.18,0.91-0.54,1.27C323.86,112.99,323.43,113.17,322.95,113.17z"/>
		<path class="st0" d="M325.67,149.7c-0.42,0-0.79-0.06-1.09-0.18c-0.3-0.12-0.57-0.24-0.82-0.36c-0.91-0.54-1.57-1.43-1.99-2.67
			c-0.42-1.24-0.6-2.66-0.54-4.26c0.06-1.6,0.33-3.32,0.82-5.17c0.48-1.84,1.18-3.64,2.08-5.39c2.66-4.89,5.32-8.49,7.98-10.79
			c2.66-2.3,4.89-3.63,6.71-3.99c0.97-0.24,1.75-0.26,2.36-0.05c0.6,0.21,1.06,0.44,1.36,0.68c0.66,0.61,1.12,1.25,1.36,1.95
			c0.24,0.7,0.3,1.38,0.18,2.04c0.85-1.51,1.66-3.04,2.45-4.58c0.78-1.54,1.6-3.1,2.45-4.67c1.87-5.5,3.59-10.18,5.17-14.05
			c1.15-2.78,2.31-5.44,3.49-7.98s2.28-4.83,3.31-6.89c0.85-1.51,1.54-2.69,2.08-3.54c0.54-0.85,1-1.45,1.36-1.81
			c0.36-0.36,0.65-0.57,0.86-0.63c0.21-0.06,0.41-0.09,0.59-0.09c0.3,0.06,0.6,0.21,0.91,0.45c0.3,0.24,0.45,0.61,0.45,1.09
			c0,0.67-0.44,2.08-1.31,4.26c-0.88,2.17-2.04,4.83-3.49,7.98c-1.45,3.14-3.14,6.63-5.08,10.47c-1.93,3.84-3.93,7.75-5.98,11.74
			c-1.57,4.89-3.04,10.14-4.4,15.73c-1.36,5.59-2.46,11.41-3.31,17.45c-0.06,0.3-0.23,0.58-0.5,0.82c-0.27,0.24-0.59,0.33-0.95,0.27
			c-0.3-0.06-0.58-0.23-0.82-0.5c-0.24-0.27-0.33-0.59-0.27-0.95c0.54-3.99,1.21-7.83,1.99-11.51c0.78-3.68,1.63-7.25,2.54-10.7
			c-2.12,3.81-4.12,7.31-6.03,10.51c-1.9,3.2-3.64,5.89-5.21,8.07c-1.93,2.84-3.61,4.76-5.03,5.76
			C327.92,149.2,326.7,149.7,325.67,149.7z M339.99,119.24c-0.3,0-0.54,0.03-0.73,0.09c-1.45,0.3-3.35,1.5-5.71,3.58
			s-4.75,5.39-7.16,9.93c-0.85,1.63-1.48,3.23-1.9,4.8c-0.42,1.57-0.66,3.01-0.72,4.31c-0.06,1.3,0.01,2.4,0.23,3.31
			c0.21,0.91,0.56,1.48,1.04,1.72c0.48,0.3,1.34,0.08,2.58-0.68c1.24-0.75,2.79-2.49,4.67-5.21c1.45-2.05,3.01-4.46,4.67-7.21
			c1.66-2.75,3.37-5.67,5.12-8.75c-0.42,0.12-0.79,0.03-1.09-0.27c-0.3-0.18-0.48-0.44-0.54-0.77c-0.06-0.33,0.03-0.65,0.27-0.95
			c0.36-0.54,0.6-1,0.73-1.36c0.12-0.36,0.15-0.75,0.09-1.18c-0.06-0.42-0.27-0.78-0.63-1.09
			C340.72,119.33,340.41,119.24,339.99,119.24z"/>
		<path class="st0" d="M357.57,147.16c-0.67,0-1.25-0.09-1.77-0.27c-0.51-0.18-0.92-0.39-1.22-0.63c-1.57-1.21-2.42-3.1-2.54-5.67
			c-0.12-2.57,0.51-5.18,1.9-7.84c0.97-1.81,2.05-3.52,3.26-5.12c1.21-1.6,2.45-3.05,3.72-4.35c1.27-1.3,2.52-2.37,3.76-3.22
			c1.24-0.85,2.4-1.39,3.49-1.63c0.66-0.12,1.22-0.15,1.68-0.09c0.45,0.06,0.83,0.15,1.13,0.27c0.79-0.18,1.48-0.12,2.08,0.18
			c1.75,1.09,2.75,2.57,2.99,4.44c0.36,1.93,0,4.17-1.09,6.71c1.21-0.24,2.76-0.74,4.67-1.5c1.9-0.75,4.25-1.98,7.03-3.67
			c0.78-0.42,1.39-0.27,1.81,0.45c0.42,0.72,0.27,1.3-0.45,1.72c-6.1,3.75-10.91,5.65-14.41,5.71c-1.63,2.9-3.99,5.98-7.07,9.25
			c-1.93,2.12-3.66,3.52-5.17,4.21C359.87,146.81,358.6,147.16,357.57,147.16z M368.36,121.15c-0.79,0.24-1.69,0.73-2.72,1.45
			c-1.03,0.73-2.08,1.66-3.17,2.81c-1.09,1.15-2.17,2.45-3.26,3.9s-2.08,3.02-2.99,4.71c-1.21,2.18-1.77,4.25-1.68,6.21
			c0.09,1.96,0.62,3.28,1.59,3.94c0.91,0.67,2.11,0.63,3.63-0.09c1.51-0.73,3.17-2.05,4.99-3.99c1.39-1.51,2.58-2.92,3.58-4.21
			c1-1.3,1.83-2.49,2.49-3.58c-0.91-0.3-1.69-0.82-2.36-1.54c-0.54-0.6-0.94-1.33-1.18-2.18c-0.24-0.85-0.35-1.71-0.32-2.58
			c0.03-0.88,0.18-1.74,0.45-2.58C367.68,122.57,368,121.81,368.36,121.15z M371.81,121.15c-0.12,0-0.38,0.21-0.77,0.63
			c-0.39,0.42-0.74,1.12-1.04,2.08c-0.3,0.91-0.44,1.89-0.41,2.95c0.03,1.06,0.41,1.89,1.13,2.49c0.24,0.24,0.72,0.45,1.45,0.63
			c0.78-1.63,1.24-2.96,1.36-3.99c0.12-1.03,0.12-1.78,0-2.27C373.35,122.42,372.77,121.57,371.81,121.15z"/>
	</g>
</g>
</svg>
